;TYPE=PLATED
;Layer: PTH_Through
;EasyEDA Pro v2.2.28.1, 2024-09-30 17:42:26
;Gerber Generator version 0.3
M48
METRIC,LZ,000.00000
;Hole size 1 = 0.30500 METRIC
T01C0.30500
%
G05
G90
T01
X67.19454Y-49.10283
X84.34252Y-40.67665
X83.66248Y-36.30062
X75.59419Y-65.63395
X60.4429Y-52.07362
X74.46879Y-55.24887
X52.05538Y-59.63289
X49.96844Y-57.65298
X74.58361Y-60.51583
X74.7709Y-58.0008
X64.29617Y-51.34097
X45.65616Y-44.62232
X90.93719Y-47.7162
X52.58301Y-49.84661
X46.70569Y-51.55303
X57.35443Y-70.78809
X50.95315Y-58.66779
X92.22034Y-52.86851
X88.64847Y-60.73466
X76.54406Y-50.60683
X60.84743Y-50.44926
X87.53021Y-35.31041
X91.56139Y-37.54897
X89.36743Y-40.8845
X63.37768Y-48.14644
X57.31308Y-68.10977
M30