G04 Layer: TopSilkscreenLayer*
G04 EasyEDA Pro v2.2.28.1, 2024-09-30 17:42:25*
G04 Gerber Generator version 0.3*
G04 Scale: 100 percent, Rotated: No, Reflected: No*
G04 Dimensions in millimeters*
G04 Leading zeros omitted, absolute positions, 3 integers and 5 decimals*
%FSLAX35Y35*%
%MOMM*%
%ADD10C,0.1524*%
%ADD11C,0.254*%
%ADD12C,0.12*%
%ADD13C,0.15001*%
G75*


G04 Image Start*
G36*
G01X3765699Y-5237191D02*
G01X3716045Y-5237191D01*
G01X3716508Y-5173952D01*
G01X3716973Y-5110713D01*
G01X3719962Y-5097573D01*
G01X3722952Y-5084432D01*
G01X3726160Y-5073482D01*
G01X3730948Y-5063079D01*
G01X3735737Y-5052676D01*
G01X3743579Y-5042041D01*
G01X3751422Y-5031406D01*
G01X3761108Y-5023256D01*
G01X3770795Y-5015106D01*
G01X3783575Y-5008899D01*
G01X3796355Y-5002692D01*
G01X3807436Y-4999935D01*
G01X3818517Y-4997179D01*
G01X3851292Y-4994182D01*
G01X3984052Y-4994136D01*
G01X4116812Y-4994091D01*
G01X4132673Y-4995314D01*
G01X4148533Y-4996538D01*
G01X4174201Y-5002759D01*
G01X4198262Y-5014100D01*
G01X4205670Y-5019923D01*
G01X4213078Y-5025746D01*
G01X4221404Y-5034060D01*
G01X4226733Y-5040630D01*
G01X4234561Y-5051581D01*
G01X4236929Y-5056509D01*
G01X4239298Y-5061436D01*
G01X4241761Y-5066912D01*
G01X4244223Y-5072387D01*
G01X4246331Y-5078957D01*
G01X4248439Y-5085527D01*
G01X4252194Y-5101953D01*
G01X4253866Y-5118379D01*
G01X4254207Y-5237191D01*
G01X4204669Y-5237191D01*
G01X4204205Y-5179975D01*
G01X4203742Y-5122759D01*
G01X4198809Y-5105238D01*
G01X4190351Y-5088813D01*
G01X4172268Y-5071246D01*
G01X4156445Y-5063763D01*
G01X4150229Y-5062098D01*
G01X4144013Y-5060432D01*
G01X3991242Y-5060079D01*
G01X3838470Y-5059726D01*
G01X3827849Y-5061258D01*
G01X3817228Y-5062789D01*
G01X3807453Y-5067227D01*
G01X3797678Y-5071665D01*
G01X3789443Y-5079691D01*
G01X3781207Y-5087717D01*
G01X3776363Y-5097075D01*
G01X3771520Y-5106432D01*
G01X3769306Y-5116678D01*
G01X3767093Y-5126924D01*
G01X3767077Y-5179594D01*
G01X3767062Y-5232263D01*
G01X3765699Y-5237191D01*
G37*
G36*
G01X3519478Y-5234180D02*
G01X3519580Y-5237191D01*
G01X3509408Y-5237191D01*
G01X3509408Y-5231990D01*
G01X3507906Y-5224714D01*
G01X3497953Y-5215341D01*
G01X3459114Y-5214743D01*
G01X3458768Y-5210708D01*
G01X3458422Y-5206673D01*
G01X3460813Y-5205433D01*
G01X3463205Y-5204193D01*
G01X3489094Y-5204540D01*
G01X3514983Y-5204887D01*
G01X3516863Y-5206711D01*
G01X3518743Y-5208535D01*
G01X3517991Y-5211435D01*
G01X3517240Y-5214336D01*
G01X3513889Y-5215468D01*
G01X3510538Y-5216600D01*
G01X3510538Y-5218166D01*
G01X3513959Y-5221341D01*
G01X3517379Y-5224516D01*
G01X3518378Y-5227842D01*
G01X3519376Y-5231168D01*
G01X3519478Y-5234180D01*
G37*
G36*
G01X3503025Y-5180096D02*
G01X3496249Y-5180839D01*
G01X3489472Y-5181582D01*
G01X3487573Y-5179742D01*
G01X3485674Y-5177902D01*
G01X3485674Y-5165466D01*
G01X3494614Y-5165466D01*
G01X3495889Y-5170393D01*
G01X3495889Y-5170393D01*
G01X3502707Y-5170393D01*
G01X3505546Y-5168591D01*
G01X3508386Y-5166788D01*
G01X3510027Y-5162982D01*
G01X3511669Y-5159176D01*
G01X3511438Y-5158895D01*
G01X3509032Y-5151611D01*
G01X3505333Y-5148878D01*
G01X3501634Y-5146144D01*
G01X3498457Y-5146497D01*
G01X3495281Y-5146850D01*
G01X3494947Y-5156158D01*
G01X3494614Y-5165466D01*
G01X3485674Y-5165466D01*
G01X3485674Y-5146537D01*
G01X3483872Y-5145867D01*
G01X3482070Y-5145197D01*
G01X3477336Y-5147225D01*
G01X3472602Y-5149254D01*
G01X3469600Y-5152711D01*
G01X3466598Y-5156168D01*
G01X3465842Y-5161052D01*
G01X3465086Y-5165936D01*
G01X3466435Y-5171386D01*
G01X3467785Y-5176837D01*
G01X3466248Y-5181529D01*
G01X3463257Y-5180802D01*
G01X3460267Y-5180075D01*
G01X3459484Y-5178846D01*
G01X3458700Y-5177617D01*
G01X3457157Y-5161669D01*
G01X3457957Y-5156501D01*
G01X3458757Y-5151333D01*
G01X3461954Y-5146831D01*
G01X3465151Y-5142329D01*
G01X3469669Y-5139432D01*
G01X3474187Y-5136534D01*
G01X3481499Y-5135229D01*
G01X3488811Y-5133924D01*
G01X3503192Y-5136640D01*
G01X3506583Y-5138657D01*
G01X3509973Y-5140674D01*
G01X3513243Y-5143985D01*
G01X3516512Y-5147296D01*
G01X3517970Y-5152548D01*
G01X3519427Y-5157800D01*
G01X3519476Y-5158895D01*
G01X3519525Y-5159990D01*
G01X3518356Y-5164918D01*
G01X3517188Y-5169846D01*
G01X3511103Y-5176069D01*
G01X3507064Y-5178083D01*
G01X3503025Y-5180096D01*
G37*
G36*
G01X3516665Y-5117903D02*
G01X3514992Y-5119248D01*
G01X3512200Y-5118016D01*
G01X3509408Y-5116783D01*
G01X3509408Y-5107832D01*
G01X3508238Y-5105714D01*
G01X3507068Y-5103596D01*
G01X3474937Y-5103814D01*
G01X3472124Y-5104573D01*
G01X3469312Y-5105331D01*
G01X3466756Y-5109005D01*
G01X3464200Y-5112680D01*
G01X3464200Y-5117597D01*
G01X3462252Y-5118321D01*
G01X3460304Y-5119046D01*
G01X3457419Y-5115222D01*
G01X3457419Y-5104582D01*
G01X3459087Y-5101457D01*
G01X3460755Y-5098332D01*
G01X3465021Y-5095762D01*
G01X3469286Y-5093193D01*
G01X3506974Y-5092428D01*
G01X3512816Y-5086075D01*
G01X3515764Y-5086075D01*
G01X3520778Y-5092645D01*
G01X3523954Y-5092645D01*
G01X3526853Y-5093713D01*
G01X3529752Y-5094781D01*
G01X3529752Y-5101276D01*
G01X3526926Y-5103048D01*
G01X3519015Y-5105298D01*
G01X3518676Y-5110928D01*
G01X3518338Y-5116558D01*
G01X3516665Y-5117903D01*
G37*
G36*
G01X3484867Y-5067283D02*
G01X3461850Y-5067655D01*
G01X3460200Y-5066328D01*
G01X3458549Y-5065001D01*
G01X3458549Y-5058967D01*
G01X3461435Y-5056646D01*
G01X3483133Y-5056304D01*
G01X3504830Y-5055961D01*
G01X3509697Y-5051240D01*
G01X3508924Y-5046247D01*
G01X3508151Y-5041254D01*
G01X3503258Y-5036015D01*
G01X3498365Y-5030775D01*
G01X3478740Y-5030228D01*
G01X3459114Y-5029680D01*
G01X3458362Y-5024530D01*
G01X3459042Y-5021903D01*
G01X3459723Y-5019277D01*
G01X3516245Y-5019277D01*
G01X3518394Y-5024752D01*
G01X3516245Y-5030228D01*
G01X3514361Y-5030228D01*
G01X3512312Y-5031680D01*
G01X3510262Y-5033132D01*
G01X3513696Y-5036921D01*
G01X3517130Y-5040710D01*
G01X3518302Y-5044503D01*
G01X3519475Y-5048296D01*
G01X3518955Y-5052367D01*
G01X3518435Y-5056437D01*
G01X3517250Y-5058957D01*
G01X3516065Y-5061476D01*
G01X3511974Y-5064194D01*
G01X3507884Y-5066912D01*
G01X3484867Y-5067283D01*
G37*
G36*
G01X3495153Y-4995968D02*
G01X3488244Y-4996557D01*
G01X3487245Y-4995050D01*
G01X3486246Y-4993544D01*
G01X3485862Y-4982810D01*
G01X3494638Y-4982810D01*
G01X3496408Y-4984233D01*
G01X3496408Y-4984233D01*
G01X3498178Y-4985657D01*
G01X3502656Y-4984357D01*
G01X3507135Y-4983056D01*
G01X3510252Y-4977118D01*
G01X3510907Y-4974928D01*
G01X3511562Y-4972738D01*
G01X3508544Y-4965982D01*
G01X3502182Y-4961133D01*
G01X3498731Y-4961460D01*
G01X3495281Y-4961787D01*
G01X3494638Y-4982810D01*
G01X3485862Y-4982810D01*
G01X3485109Y-4961787D01*
G01X3481121Y-4961462D01*
G01X3477133Y-4961136D01*
G01X3472987Y-4964199D01*
G01X3468841Y-4967262D01*
G01X3465896Y-4973833D01*
G01X3466480Y-4986973D01*
G01X3467026Y-4995734D01*
G01X3464624Y-4996066D01*
G01X3462222Y-4996398D01*
G01X3460484Y-4994714D01*
G01X3458745Y-4993030D01*
G01X3457951Y-4984818D01*
G01X3457157Y-4976606D01*
G01X3458716Y-4966167D01*
G01X3461587Y-4962096D01*
G01X3464458Y-4958024D01*
G01X3468002Y-4955463D01*
G01X3471547Y-4952902D01*
G01X3476670Y-4951048D01*
G01X3481794Y-4949194D01*
G01X3495762Y-4949194D01*
G01X3501738Y-4951459D01*
G01X3507713Y-4953723D01*
G01X3511997Y-4957747D01*
G01X3516281Y-4961771D01*
G01X3519422Y-4971643D01*
G01X3519495Y-4973833D01*
G01X3519567Y-4976023D01*
G01X3518338Y-4980403D01*
G01X3517109Y-4984783D01*
G01X3514106Y-4987888D01*
G01X3511103Y-4990993D01*
G01X3502062Y-4995379D01*
G01X3495153Y-4995968D01*
G37*
G36*
G01X3765333Y-4944570D02*
G01X3763574Y-4947004D01*
G01X3717407Y-4947004D01*
G01X3716722Y-4944359D01*
G01X3716037Y-4941715D01*
G01X3717014Y-4820526D01*
G01X3721852Y-4798166D01*
G01X3724039Y-4790731D01*
G01X3726227Y-4783295D01*
G01X3728832Y-4777272D01*
G01X3731436Y-4771249D01*
G01X3734981Y-4764599D01*
G01X3738526Y-4757948D01*
G01X3744911Y-4749584D01*
G01X3751295Y-4741220D01*
G01X3761053Y-4733053D01*
G01X3770812Y-4724886D01*
G01X3783362Y-4718794D01*
G01X3795913Y-4712701D01*
G01X3807185Y-4709885D01*
G01X3818458Y-4707069D01*
G01X3832050Y-4705213D01*
G01X3845641Y-4703356D01*
G01X4124799Y-4703356D01*
G01X4155315Y-4707418D01*
G01X4159835Y-4708820D01*
G01X4164356Y-4710222D01*
G01X4175299Y-4712746D01*
G01X4187509Y-4718679D01*
G01X4199719Y-4724612D01*
G01X4206337Y-4729950D01*
G01X4212955Y-4735287D01*
G01X4217475Y-4739821D01*
G01X4221996Y-4744354D01*
G01X4226724Y-4750443D01*
G01X4230642Y-4755919D01*
G01X4234561Y-4761394D01*
G01X4236929Y-4766322D01*
G01X4239298Y-4771249D01*
G01X4241761Y-4776724D01*
G01X4244223Y-4782200D01*
G01X4246331Y-4788770D01*
G01X4248439Y-4795340D01*
G01X4252179Y-4811766D01*
G01X4253027Y-4819431D01*
G01X4253875Y-4827097D01*
G01X4254041Y-4885318D01*
G01X4254207Y-4943540D01*
G01X4252835Y-4947004D01*
G01X4207015Y-4947004D01*
G01X4205845Y-4945635D01*
G01X4204674Y-4944266D01*
G01X4204205Y-4888419D01*
G01X4203736Y-4832572D01*
G01X4201267Y-4823854D01*
G01X4198797Y-4815135D01*
G01X4193963Y-4805196D01*
G01X4189585Y-4798870D01*
G01X4185206Y-4792544D01*
G01X4180997Y-4788646D01*
G01X4176788Y-4784747D01*
G01X4167747Y-4778663D01*
G01X4157575Y-4773918D01*
G01X4148379Y-4771762D01*
G01X4139183Y-4769607D01*
G01X3831692Y-4769607D01*
G01X3822279Y-4771775D01*
G01X3812866Y-4773943D01*
G01X3804959Y-4778014D01*
G01X3797052Y-4782085D01*
G01X3780968Y-4797668D01*
G01X3770717Y-4818336D01*
G01X3768903Y-4828192D01*
G01X3767088Y-4838047D01*
G01X3767090Y-4890092D01*
G01X3767093Y-4942137D01*
G01X3765333Y-4944570D01*
G37*
G36*
G01X3534071Y-4931657D02*
G01X3532174Y-4931673D01*
G01X3530440Y-4929994D01*
G01X3528706Y-4928314D01*
G01X3530638Y-4923393D01*
G01X3532019Y-4915098D01*
G01X3533400Y-4906804D01*
G01X3530790Y-4894989D01*
G01X3524940Y-4886800D01*
G01X3519152Y-4884095D01*
G01X3513364Y-4881391D01*
G01X3505990Y-4880107D01*
G01X3498615Y-4878824D01*
G01X3490167Y-4880671D01*
G01X3481718Y-4882518D01*
G01X3477516Y-4885320D01*
G01X3473314Y-4888121D01*
G01X3470549Y-4891633D01*
G01X3467784Y-4895145D01*
G01X3465036Y-4908677D01*
G01X3467767Y-4922366D01*
G01X3469419Y-4925633D01*
G01X3471072Y-4928901D01*
G01X3469116Y-4930287D01*
G01X3467159Y-4931673D01*
G01X3464200Y-4931673D01*
G01X3459799Y-4927409D01*
G01X3458670Y-4923245D01*
G01X3457541Y-4919080D01*
G01X3456787Y-4912387D01*
G01X3456032Y-4905694D01*
G01X3457401Y-4897604D01*
G01X3458770Y-4889514D01*
G01X3464008Y-4880754D01*
G01X3471547Y-4873748D01*
G01X3477198Y-4871279D01*
G01X3482849Y-4868810D01*
G01X3498671Y-4868782D01*
G01X3514494Y-4868754D01*
G01X3519844Y-4871125D01*
G01X3525193Y-4873497D01*
G01X3529116Y-4876396D01*
G01X3533038Y-4879294D01*
G01X3536140Y-4884404D01*
G01X3539243Y-4889514D01*
G01X3540587Y-4896632D01*
G01X3541930Y-4903750D01*
G01X3542002Y-4905940D01*
G01X3542074Y-4908130D01*
G01X3540593Y-4918920D01*
G01X3539112Y-4929711D01*
G01X3537540Y-4930675D01*
G01X3535968Y-4931640D01*
G01X3534071Y-4931657D01*
G37*
G36*
G01X3516065Y-4798665D02*
G01X3511975Y-4801383D01*
G01X3507885Y-4804101D01*
G01X3459114Y-4804101D01*
G01X3459114Y-4795340D01*
G01X3480023Y-4794713D01*
G01X3500932Y-4794086D01*
G01X3503804Y-4792911D01*
G01X3506676Y-4791736D01*
G01X3508185Y-4789973D01*
G01X3509695Y-4788211D01*
G01X3508960Y-4783757D01*
G01X3508225Y-4779304D01*
G01X3505869Y-4776216D01*
G01X3503513Y-4773129D01*
G01X3496411Y-4767964D01*
G01X3459114Y-4766869D01*
G01X3458755Y-4763239D01*
G01X3458395Y-4759608D01*
G01X3461087Y-4756466D01*
G01X3515007Y-4756466D01*
G01X3518510Y-4761646D01*
G01X3516245Y-4767417D01*
G01X3513076Y-4767417D01*
G01X3510185Y-4770792D01*
G01X3513666Y-4774306D01*
G01X3517146Y-4777820D01*
G01X3519475Y-4785485D01*
G01X3518955Y-4789556D01*
G01X3518435Y-4793626D01*
G01X3517250Y-4796146D01*
G01X3516065Y-4798665D01*
G37*
G36*
G01X3494787Y-4734390D02*
G01X3487934Y-4735298D01*
G01X3480976Y-4734376D01*
G01X3474017Y-4733454D01*
G01X3464554Y-4727653D01*
G01X3461269Y-4722622D01*
G01X3457984Y-4717592D01*
G01X3457984Y-4704290D01*
G01X3465081Y-4704290D01*
G01X3465630Y-4709009D01*
G01X3466179Y-4713728D01*
G01X3468032Y-4716467D01*
G01X3469884Y-4719206D01*
G01X3479458Y-4723983D01*
G01X3487995Y-4724001D01*
G01X3487995Y-4724001D01*
G01X3496532Y-4724018D01*
G01X3501631Y-4721627D01*
G01X3506728Y-4719236D01*
G01X3508633Y-4715365D01*
G01X3510538Y-4711495D01*
G01X3510513Y-4707426D01*
G01X3510487Y-4703356D01*
G01X3508599Y-4699642D01*
G01X3506710Y-4695928D01*
G01X3501561Y-4693659D01*
G01X3496411Y-4691390D01*
G01X3488500Y-4691351D01*
G01X3480588Y-4691311D01*
G01X3475151Y-4693401D01*
G01X3469714Y-4695492D01*
G01X3467398Y-4699891D01*
G01X3465081Y-4704290D01*
G01X3457984Y-4704290D01*
G01X3457984Y-4696584D01*
G01X3466413Y-4686618D01*
G01X3471660Y-4683639D01*
G01X3476906Y-4680660D01*
G01X3498944Y-4680585D01*
G01X3511144Y-4687348D01*
G01X3516625Y-4694531D01*
G01X3518006Y-4700039D01*
G01X3519388Y-4705547D01*
G01X3519484Y-4706861D01*
G01X3519580Y-4708176D01*
G01X3517104Y-4719782D01*
G01X3511402Y-4727938D01*
G01X3506520Y-4730710D01*
G01X3501639Y-4733482D01*
G01X3494787Y-4734390D01*
G37*
G36*
G01X3539923Y-4656549D02*
G01X3538290Y-4657862D01*
G01X3536657Y-4659175D01*
G01X3534168Y-4658817D01*
G01X3531678Y-4658460D01*
G01X3530476Y-4656601D01*
G01X3529273Y-4654742D01*
G01X3530383Y-4651673D01*
G01X3531492Y-4648604D01*
G01X3534075Y-4648246D01*
G01X3536657Y-4647889D01*
G01X3538290Y-4649202D01*
G01X3539923Y-4650515D01*
G01X3539923Y-4656549D01*
G37*
G36*
G01X3514494Y-4658974D02*
G01X3462125Y-4659007D01*
G01X3458549Y-4657678D01*
G01X3458549Y-4651521D01*
G01X3459921Y-4648057D01*
G01X3516077Y-4648057D01*
G01X3517256Y-4649973D01*
G01X3518436Y-4651889D01*
G01X3517788Y-4654616D01*
G01X3517140Y-4657343D01*
G01X3514494Y-4658974D01*
G37*
G36*
G01X4252956Y-4653056D02*
G01X4251975Y-4653644D01*
G01X4244332Y-4650914D01*
G01X4236689Y-4648185D01*
G01X4224257Y-4643525D01*
G01X4215215Y-4640376D01*
G01X4210694Y-4638316D01*
G01X4195437Y-4632726D01*
G01X4180179Y-4627097D01*
G01X4176618Y-4625532D01*
G01X4173056Y-4623966D01*
G01X4170633Y-4623966D01*
G01X4165799Y-4621880D01*
G01X4160966Y-4619795D01*
G01X4151924Y-4616405D01*
G01X4136101Y-4610606D01*
G01X4121409Y-4605235D01*
G01X4116888Y-4603275D01*
G01X4108977Y-4600407D01*
G01X4101065Y-4597539D01*
G01X4097110Y-4596021D01*
G01X4093154Y-4594504D01*
G01X4085243Y-4591648D01*
G01X4077331Y-4588792D01*
G01X4067159Y-4584676D01*
G01X4059248Y-4581820D01*
G01X4051337Y-4578964D01*
G01X4047381Y-4577447D01*
G01X4043425Y-4575930D01*
G01X4035514Y-4573061D01*
G01X4027603Y-4570193D01*
G01X4023082Y-4568233D01*
G01X4015170Y-4565365D01*
G01X4007259Y-4562497D01*
G01X4003303Y-4560980D01*
G01X3999348Y-4559463D01*
G01X3991436Y-4556607D01*
G01X3983525Y-4553751D01*
G01X3973353Y-4549634D01*
G01X3965442Y-4546754D01*
G01X3957530Y-4543874D01*
G01X3953969Y-4542308D01*
G01X3950408Y-4540742D01*
G01X3948001Y-4540742D01*
G01X3944289Y-4539143D01*
G01X3940578Y-4537544D01*
G01X3914583Y-4527829D01*
G01X3906672Y-4524901D01*
G01X3898760Y-4521973D01*
G01X3895199Y-4520407D01*
G01X3891638Y-4518841D01*
G01X3889769Y-4518841D01*
G01X3880137Y-4515086D01*
G01X3870505Y-4511331D01*
G01X3862877Y-4508516D01*
G01X3855248Y-4505701D01*
G01X3839990Y-4500110D01*
G01X3835469Y-4498151D01*
G01X3820777Y-4492779D01*
G01X3804954Y-4486932D01*
G01X3801393Y-4485366D01*
G01X3797831Y-4483800D01*
G01X3795963Y-4483800D01*
G01X3786331Y-4480045D01*
G01X3776699Y-4476289D01*
G01X3769070Y-4473474D01*
G01X3761442Y-4470659D01*
G01X3746184Y-4465031D01*
G01X3742623Y-4463465D01*
G01X3739061Y-4461899D01*
G01X3736638Y-4461899D01*
G01X3731804Y-4459794D01*
G01X3726971Y-4457689D01*
G01X3723201Y-4456337D01*
G01X3719432Y-4454986D01*
G01X3717833Y-4453436D01*
G01X3716234Y-4451887D01*
G01X3716268Y-4392363D01*
G01X3718089Y-4389584D01*
G01X3728101Y-4392926D01*
G01X3732622Y-4394986D01*
G01X3740533Y-4397847D01*
G01X3748444Y-4400708D01*
G01X3758616Y-4404833D01*
G01X3772179Y-4409885D01*
G01X3785741Y-4414936D01*
G01X3790262Y-4416877D01*
G01X3803824Y-4421929D01*
G01X3817386Y-4426981D01*
G01X3827558Y-4431106D01*
G01X3835469Y-4433986D01*
G01X3843381Y-4436866D01*
G01X3846942Y-4438432D01*
G01X3850504Y-4439998D01*
G01X3852081Y-4439998D01*
G01X3855642Y-4441564D01*
G01X3859204Y-4443130D01*
G01X3867115Y-4446010D01*
G01X3875026Y-4448890D01*
G01X3885198Y-4453007D01*
G01X3893109Y-4455887D01*
G01X3901021Y-4458767D01*
G01X3904582Y-4460333D01*
G01X3908144Y-4461899D01*
G01X3909721Y-4461899D01*
G01X3913282Y-4463465D01*
G01X3916843Y-4465031D01*
G01X3924755Y-4467911D01*
G01X3932666Y-4470791D01*
G01X3942838Y-4474916D01*
G01X3956400Y-4479968D01*
G01X3969963Y-4485019D01*
G01X3974483Y-4486960D01*
G01X3988046Y-4492012D01*
G01X4001608Y-4497064D01*
G01X4011780Y-4501189D01*
G01X4019691Y-4504050D01*
G01X4027603Y-4506911D01*
G01X4032123Y-4508861D01*
G01X4045686Y-4513913D01*
G01X4059248Y-4518965D01*
G01X4069420Y-4523090D01*
G01X4077331Y-4525951D01*
G01X4085243Y-4528812D01*
G01X4089763Y-4530769D01*
G01X4101065Y-4535138D01*
G01X4108977Y-4538006D01*
G01X4116888Y-4540874D01*
G01X4127060Y-4544991D01*
G01X4134971Y-4547852D01*
G01X4142882Y-4550713D01*
G01X4147403Y-4552670D01*
G01X4158705Y-4557030D01*
G01X4172268Y-4562088D01*
G01X4185830Y-4567147D01*
G01X4197132Y-4571636D01*
G01X4201965Y-4573710D01*
G01X4206799Y-4575784D01*
G01X4209123Y-4575784D01*
G01X4213864Y-4577780D01*
G01X4218606Y-4579776D01*
G01X4227647Y-4583344D01*
G01X4235558Y-4586164D01*
G01X4243470Y-4588984D01*
G01X4248556Y-4591418D01*
G01X4253642Y-4593852D01*
G01X4254772Y-4647509D01*
G01X4253937Y-4652469D01*
G01X4252956Y-4653056D01*
G37*
G36*
G01X3463928Y-4626107D02*
G01X3460565Y-4628811D01*
G01X3457419Y-4624642D01*
G01X3457423Y-4619102D01*
G01X3457428Y-4613563D01*
G01X3459634Y-4610057D01*
G01X3461840Y-4606551D01*
G01X3469286Y-4602625D01*
G01X3488114Y-4602254D01*
G01X3506941Y-4601883D01*
G01X3512816Y-4595494D01*
G01X3516238Y-4595494D01*
G01X3517528Y-4598238D01*
G01X3518818Y-4600981D01*
G01X3523437Y-4602182D01*
G01X3528056Y-4603382D01*
G01X3528904Y-4603883D01*
G01X3529752Y-4604384D01*
G01X3529752Y-4610696D01*
G01X3526926Y-4612468D01*
G01X3522971Y-4613594D01*
G01X3519015Y-4614720D01*
G01X3518430Y-4620164D01*
G01X3517844Y-4625608D01*
G01X3516056Y-4628346D01*
G01X3512960Y-4628346D01*
G01X3511184Y-4626625D01*
G01X3509408Y-4624904D01*
G01X3509408Y-4616719D01*
G01X3506429Y-4612772D01*
G01X3488605Y-4613170D01*
G01X3470781Y-4613568D01*
G01X3468003Y-4616698D01*
G01X3465224Y-4619828D01*
G01X3463928Y-4626107D01*
G37*
G36*
G01X3465212Y-4579850D02*
G01X3460567Y-4583916D01*
G01X3458993Y-4581831D01*
G01X3457419Y-4579745D01*
G01X3457419Y-4573362D01*
G01X3463070Y-4566855D01*
G01X3463070Y-4563449D01*
G01X3460766Y-4559836D01*
G01X3458461Y-4556224D01*
G01X3457801Y-4550824D01*
G01X3457753Y-4550428D01*
G01X3466178Y-4550428D01*
G01X3466949Y-4555410D01*
G01X3467720Y-4560392D01*
G01X3470633Y-4562613D01*
G01X3473547Y-4564833D01*
G01X3473547Y-4564833D01*
G01X3484464Y-4564833D01*
G01X3485634Y-4562715D01*
G01X3486804Y-4560597D01*
G01X3486689Y-4558609D01*
G01X3486573Y-4556620D01*
G01X3485686Y-4552990D01*
G01X3484799Y-4549359D01*
G01X3482129Y-4546574D01*
G01X3479458Y-4543788D01*
G01X3477198Y-4542944D01*
G01X3474937Y-4542101D01*
G01X3471780Y-4543664D01*
G01X3468623Y-4545228D01*
G01X3467401Y-4547828D01*
G01X3466178Y-4550428D01*
G01X3457753Y-4550428D01*
G01X3457141Y-4545424D01*
G01X3459745Y-4537779D01*
G01X3462529Y-4535245D01*
G01X3465313Y-4532711D01*
G01X3471470Y-4532216D01*
G01X3477626Y-4531721D01*
G01X3481533Y-4534061D01*
G01X3485440Y-4536400D01*
G01X3489590Y-4542385D01*
G01X3493552Y-4554430D01*
G01X3493569Y-4557514D01*
G01X3493585Y-4560597D01*
G01X3494755Y-4562715D01*
G01X3495925Y-4564833D01*
G01X3502480Y-4564833D01*
G01X3505325Y-4563785D01*
G01X3508170Y-4562737D01*
G01X3510019Y-4559272D01*
G01X3511868Y-4555807D01*
G01X3507977Y-4539797D01*
G01X3508657Y-4538079D01*
G01X3509337Y-4536362D01*
G01X3512367Y-4536362D01*
G01X3514448Y-4537836D01*
G01X3516529Y-4539311D01*
G01X3518026Y-4545775D01*
G01X3519523Y-4552240D01*
G01X3518478Y-4564888D01*
G01X3515121Y-4571179D01*
G01X3505304Y-4575784D01*
G01X3469858Y-4575784D01*
G01X3465212Y-4579850D01*
G37*
G36*
G01X3511975Y-4507911D02*
G01X3507884Y-4510628D01*
G01X3459114Y-4510628D01*
G01X3458775Y-4506702D01*
G01X3458435Y-4502776D01*
G01X3459935Y-4501569D01*
G01X3461435Y-4500363D01*
G01X3483046Y-4500021D01*
G01X3504656Y-4499678D01*
G01X3507147Y-4497491D01*
G01X3509639Y-4495304D01*
G01X3508955Y-4490473D01*
G01X3508272Y-4485641D01*
G01X3505374Y-4481960D01*
G01X3502476Y-4478280D01*
G01X3499499Y-4476386D01*
G01X3496521Y-4474492D01*
G01X3459114Y-4473397D01*
G01X3458362Y-4468246D01*
G01X3459042Y-4465620D01*
G01X3459723Y-4462994D01*
G01X3515827Y-4462994D01*
G01X3517112Y-4465727D01*
G01X3518397Y-4468460D01*
G01X3517321Y-4471202D01*
G01X3516245Y-4473944D01*
G01X3514361Y-4473944D01*
G01X3512167Y-4475510D01*
G01X3509973Y-4477076D01*
G01X3517146Y-4484347D01*
G01X3519475Y-4492013D01*
G01X3518955Y-4496083D01*
G01X3518435Y-4500154D01*
G01X3517250Y-4502674D01*
G01X3516065Y-4505193D01*
G01X3511975Y-4507911D01*
G37*
G36*
G01X3536182Y-4436518D02*
G01X3533006Y-4436871D01*
G01X3531379Y-4435563D01*
G01X3529752Y-4434255D01*
G01X3529752Y-4428187D01*
G01X3533327Y-4426857D01*
G01X3538417Y-4426857D01*
G01X3539224Y-4427640D01*
G01X3540031Y-4428422D01*
G01X3539695Y-4432294D01*
G01X3539358Y-4436165D01*
G01X3536182Y-4436518D01*
G37*
G36*
G01X3516897Y-4435503D02*
G01X3515344Y-4436752D01*
G01X3487229Y-4436458D01*
G01X3459114Y-4436165D01*
G01X3459114Y-4427405D01*
G01X3487229Y-4427112D01*
G01X3515344Y-4426819D01*
G01X3516897Y-4428067D01*
G01X3518450Y-4429316D01*
G01X3518450Y-4434255D01*
G01X3516897Y-4435503D01*
G37*
G36*
G01X3544029Y-4399361D02*
G01X3542483Y-4400604D01*
G01X3500799Y-4400316D01*
G01X3459114Y-4400029D01*
G01X3458768Y-4395994D01*
G01X3458422Y-4391959D01*
G01X3460746Y-4390754D01*
G01X3463070Y-4389549D01*
G01X3463070Y-4386252D01*
G01X3460651Y-4383082D01*
G01X3458231Y-4379911D01*
G01X3457688Y-4374427D01*
G01X3457144Y-4368943D01*
G01X3457372Y-4367763D01*
G01X3467160Y-4367763D01*
G01X3467244Y-4373158D01*
G01X3467328Y-4378552D01*
G01X3472271Y-4386301D01*
G01X3475474Y-4388511D01*
G01X3478677Y-4390721D01*
G01X3478677Y-4390721D01*
G01X3501323Y-4390721D01*
G01X3504602Y-4388048D01*
G01X3507880Y-4385375D01*
G01X3509209Y-4381077D01*
G01X3510538Y-4376779D01*
G01X3510385Y-4370463D01*
G01X3509150Y-4367979D01*
G01X3507915Y-4365496D01*
G01X3503922Y-4363105D01*
G01X3499929Y-4360714D01*
G01X3490110Y-4360259D01*
G01X3480291Y-4359804D01*
G01X3476367Y-4361059D01*
G01X3472444Y-4362313D01*
G01X3469802Y-4365038D01*
G01X3467160Y-4367763D01*
G01X3457372Y-4367763D01*
G01X3457902Y-4365025D01*
G01X3458661Y-4361108D01*
G01X3462240Y-4357158D01*
G01X3465819Y-4353209D01*
G01X3470943Y-4350975D01*
G01X3476067Y-4348742D01*
G01X3495281Y-4348562D01*
G01X3501402Y-4350752D01*
G01X3507524Y-4352942D01*
G01X3517130Y-4362239D01*
G01X3518334Y-4367681D01*
G01X3519539Y-4373124D01*
G01X3518833Y-4376721D01*
G01X3518127Y-4380318D01*
G01X3516593Y-4383275D01*
G01X3515059Y-4386232D01*
G01X3515059Y-4390721D01*
G01X3542862Y-4390721D01*
G01X3545574Y-4393349D01*
G01X3545574Y-4398118D01*
G01X3544029Y-4399361D01*
G37*
G36*
G01X4251670Y-4357869D02*
G01X4207191Y-4357869D01*
G01X4204478Y-4355241D01*
G01X4204478Y-4257125D01*
G01X4199957Y-4252745D01*
G01X3717606Y-4252745D01*
G01X3716234Y-4249281D01*
G01X3716234Y-4189670D01*
G01X3718946Y-4187042D01*
G01X4200926Y-4187042D01*
G01X4202702Y-4185322D01*
G01X4204478Y-4183601D01*
G01X4204513Y-4085751D01*
G01X4205583Y-4084108D01*
G01X4206653Y-4082466D01*
G01X4224952Y-4082093D01*
G01X4243251Y-4081720D01*
G01X4253208Y-4083166D01*
G01X4253990Y-4085214D01*
G01X4254772Y-4087262D01*
G01X4254189Y-4354928D01*
G01X4252929Y-4356399D01*
G01X4251670Y-4357869D01*
G37*
G36*
G01X3519015Y-4333007D02*
G01X3515409Y-4335196D01*
G01X3512560Y-4334503D01*
G01X3509710Y-4333810D01*
G01X3509096Y-4329372D01*
G01X3508482Y-4324935D01*
G01X3504934Y-4319689D01*
G01X3496596Y-4313520D01*
G01X3477855Y-4312973D01*
G01X3459114Y-4312425D01*
G01X3459114Y-4303665D01*
G01X3487229Y-4303372D01*
G01X3515344Y-4303078D01*
G01X3516897Y-4304327D01*
G01X3518450Y-4305575D01*
G01X3518450Y-4310732D01*
G01X3512234Y-4314500D01*
G01X3511485Y-4314975D01*
G01X3512876Y-4317533D01*
G01X3514267Y-4320090D01*
G01X3515179Y-4320673D01*
G01X3516092Y-4321256D01*
G01X3517813Y-4325053D01*
G01X3519535Y-4328851D01*
G01X3519275Y-4330929D01*
G01X3519015Y-4333007D01*
G37*
G36*
G01X3508142Y-4276728D02*
G01X3501951Y-4278972D01*
G01X3495761Y-4281216D01*
G01X3480069Y-4281216D01*
G01X3475243Y-4279370D01*
G01X3470416Y-4277525D01*
G01X3467322Y-4275341D01*
G01X3464227Y-4273158D01*
G01X3461309Y-4269079D01*
G01X3458391Y-4265000D01*
G01X3457774Y-4256956D01*
G01X3457547Y-4253996D01*
G01X3464283Y-4253996D01*
G01X3467877Y-4263148D01*
G01X3473784Y-4268030D01*
G01X3473784Y-4268030D01*
G01X3479988Y-4269277D01*
G01X3486192Y-4270525D01*
G01X3492860Y-4269850D01*
G01X3499528Y-4269175D01*
G01X3507203Y-4264579D01*
G01X3508712Y-4261674D01*
G01X3510221Y-4258768D01*
G01X3510820Y-4256030D01*
G01X3511419Y-4253293D01*
G01X3510569Y-4250491D01*
G01X3509720Y-4247690D01*
G01X3507176Y-4243085D01*
G01X3502924Y-4240524D01*
G01X3498671Y-4237962D01*
G01X3487815Y-4237986D01*
G01X3476959Y-4238009D01*
G01X3467851Y-4243849D01*
G01X3466067Y-4248922D01*
G01X3464283Y-4253996D01*
G01X3457547Y-4253996D01*
G01X3457157Y-4248912D01*
G01X3458428Y-4244381D01*
G01X3459699Y-4239850D01*
G01X3464118Y-4235438D01*
G01X3468537Y-4231026D01*
G01X3479458Y-4226316D01*
G01X3496948Y-4226291D01*
G01X3502975Y-4228965D01*
G01X3509002Y-4231638D01*
G01X3513093Y-4236475D01*
G01X3517184Y-4241312D01*
G01X3518267Y-4246755D01*
G01X3519351Y-4252198D01*
G01X3518171Y-4262053D01*
G01X3516757Y-4265418D01*
G01X3515342Y-4268783D01*
G01X3511742Y-4272755D01*
G01X3508142Y-4276728D01*
G37*
G36*
G01X3500932Y-4207617D02*
G01X3493558Y-4208381D01*
G01X3486184Y-4209146D01*
G01X3479760Y-4207995D01*
G01X3473336Y-4206844D01*
G01X3468858Y-4203974D01*
G01X3464381Y-4201103D01*
G01X3461203Y-4196536D01*
G01X3458025Y-4191970D01*
G01X3458011Y-4185069D01*
G01X3465331Y-4185069D01*
G01X3467226Y-4188939D01*
G01X3469122Y-4192810D01*
G01X3469122Y-4192810D01*
G01X3475170Y-4195401D01*
G01X3481218Y-4197993D01*
G01X3488249Y-4197982D01*
G01X3495281Y-4197971D01*
G01X3501259Y-4195275D01*
G01X3507237Y-4192578D01*
G01X3508888Y-4188751D01*
G01X3510538Y-4184923D01*
G01X3510534Y-4180781D01*
G01X3510530Y-4176639D01*
G01X3508250Y-4173017D01*
G01X3505971Y-4169394D01*
G01X3501191Y-4167292D01*
G01X3496411Y-4165190D01*
G01X3479458Y-4165190D01*
G01X3474678Y-4167292D01*
G01X3469898Y-4169394D01*
G01X3467619Y-4173017D01*
G01X3465339Y-4176639D01*
G01X3465335Y-4180854D01*
G01X3465331Y-4185069D01*
G01X3458011Y-4185069D01*
G01X3457984Y-4171164D01*
G01X3464534Y-4161134D01*
G01X3476067Y-4154739D01*
G01X3500932Y-4154799D01*
G01X3506101Y-4157930D01*
G01X3511271Y-4161060D01*
G01X3514013Y-4164886D01*
G01X3516754Y-4168711D01*
G01X3519363Y-4178830D01*
G01X3519471Y-4181055D01*
G01X3519580Y-4183280D01*
G01X3518106Y-4188786D01*
G01X3516632Y-4194292D01*
G01X3513491Y-4198282D01*
G01X3510350Y-4202272D01*
G01X3505641Y-4204945D01*
G01X3500932Y-4207617D01*
G37*
G36*
G01X3537862Y-4135821D02*
G01X3536808Y-4136842D01*
G01X3530317Y-4136123D01*
G01X3530405Y-4131743D01*
G01X3530494Y-4127362D01*
G01X3533392Y-4111010D01*
G01X3532075Y-4105305D01*
G01X3530757Y-4099600D01*
G01X3527601Y-4095413D01*
G01X3524446Y-4091226D01*
G01X3511204Y-4084809D01*
G01X3487301Y-4084809D01*
G01X3476482Y-4090045D01*
G01X3468006Y-4098953D01*
G01X3466507Y-4105799D01*
G01X3465007Y-4112645D01*
G01X3466913Y-4121099D01*
G01X3468818Y-4129552D01*
G01X3469468Y-4133190D01*
G01X3470118Y-4136828D01*
G01X3466414Y-4136475D01*
G01X3462710Y-4136123D01*
G01X3460665Y-4132288D01*
G01X3458619Y-4128454D01*
G01X3457308Y-4119914D01*
G01X3455997Y-4111374D01*
G01X3457380Y-4102942D01*
G01X3458762Y-4094511D01*
G01X3460429Y-4091056D01*
G01X3462096Y-4087601D01*
G01X3467045Y-4082737D01*
G01X3471994Y-4077873D01*
G01X3486239Y-4072740D01*
G01X3498671Y-4072731D01*
G01X3511103Y-4072722D01*
G01X3516960Y-4074646D01*
G01X3522816Y-4076569D01*
G01X3528015Y-4080415D01*
G01X3533214Y-4084261D01*
G01X3536101Y-4088693D01*
G01X3538988Y-4093124D01*
G01X3540464Y-4100935D01*
G01X3541939Y-4108747D01*
G01X3542112Y-4113127D01*
G01X3540513Y-4123964D01*
G01X3538915Y-4134800D01*
G01X3537862Y-4135821D01*
G37*
G36*
G01X3724710Y-4049021D02*
G01X3721414Y-4050181D01*
G01X3718117Y-4051342D01*
G01X3717193Y-4049930D01*
G01X3716268Y-4048519D01*
G01X3716234Y-3989913D01*
G01X3720761Y-3986157D01*
G01X3950749Y-3887123D01*
G01X3952219Y-3882072D01*
G01X3952445Y-3823630D01*
G01X3952332Y-3823343D01*
G01X4003303Y-3823343D01*
G01X4003362Y-3873312D01*
G01X4004448Y-3884140D01*
G01X4005535Y-3894968D01*
G01X4008472Y-3903211D01*
G01X4011408Y-3911454D01*
G01X4013204Y-3914284D01*
G01X4014999Y-3917114D01*
G01X4018641Y-3922589D01*
G01X4022284Y-3928064D01*
G01X4033937Y-3938725D01*
G01X4042389Y-3944071D01*
G01X4050842Y-3949417D01*
G01X4052125Y-3949417D01*
G01X4055687Y-3951010D01*
G01X4059248Y-3952603D01*
G01X4070550Y-3956825D01*
G01X4096544Y-3961709D01*
G01X4096544Y-3961709D01*
G01X4127060Y-3961742D01*
G01X4138362Y-3959387D01*
G01X4149664Y-3957031D01*
G01X4160966Y-3952592D01*
G01X4170007Y-3947983D01*
G01X4175767Y-3943499D01*
G01X4181527Y-3939015D01*
G01X4185374Y-3934185D01*
G01X4189220Y-3929355D01*
G01X4191502Y-3925424D01*
G01X4193783Y-3921494D01*
G01X4199670Y-3906163D01*
G01X4201616Y-3898498D01*
G01X4203563Y-3890833D01*
G01X4204500Y-3824035D01*
G01X4202290Y-3819107D01*
G01X4005643Y-3819107D01*
G01X4004473Y-3821225D01*
G01X4003303Y-3823343D01*
G01X3952332Y-3823343D01*
G01X3951342Y-3820821D01*
G01X3950240Y-3818012D01*
G01X3718771Y-3818012D01*
G01X3716198Y-3815008D01*
G01X3716498Y-3784480D01*
G01X3716799Y-3753952D01*
G01X3984090Y-3753671D01*
G01X4251381Y-3753391D01*
G01X4252864Y-3753937D01*
G01X4254347Y-3754483D01*
G01X4253589Y-3921494D01*
G01X4251570Y-3928612D01*
G01X4249550Y-3935729D01*
G01X4247152Y-3944490D01*
G01X4244754Y-3953250D01*
G01X4239365Y-3964201D01*
G01X4233975Y-3975151D01*
G01X4226855Y-3983555D01*
G01X4219736Y-3991960D01*
G01X4202783Y-4004860D01*
G01X4194343Y-4009550D01*
G01X4177919Y-4016302D01*
G01X4176080Y-4017279D01*
G01X4174241Y-4018256D01*
G01X4165486Y-4019696D01*
G01X4149664Y-4023793D01*
G01X4132146Y-4025079D01*
G01X4114628Y-4026365D01*
G01X4099871Y-4025689D01*
G01X4085115Y-4025013D01*
G01X4076301Y-4023825D01*
G01X4067486Y-4022637D01*
G01X4059144Y-4020570D01*
G01X4050803Y-4018503D01*
G01X4043158Y-4016222D01*
G01X4035514Y-4013940D01*
G01X4030993Y-4011915D01*
G01X4026472Y-4009890D01*
G01X4014040Y-4004078D01*
G01X4007826Y-4000303D01*
G01X4001612Y-3996528D01*
G01X3993463Y-3989888D01*
G01X3985314Y-3983247D01*
G01X3978154Y-3974271D01*
G01X3970994Y-3965296D01*
G01X3963284Y-3950512D01*
G01X3956935Y-3950512D01*
G01X3954972Y-3951529D01*
G01X3953010Y-3952546D01*
G01X3942838Y-3956871D01*
G01X3905542Y-3972571D01*
G01X3897630Y-3975993D01*
G01X3890849Y-3978826D01*
G01X3853553Y-3994526D01*
G01X3843381Y-3998892D01*
G01X3838860Y-4000687D01*
G01X3828688Y-4005053D01*
G01X3791392Y-4020807D01*
G01X3781220Y-4025173D01*
G01X3778960Y-4026096D01*
G01X3776699Y-4027020D01*
G01X3729231Y-4047023D01*
G01X3726971Y-4048022D01*
G01X3724710Y-4049021D01*
G37*
G36*
G01X3538115Y-4007101D02*
G01X3536306Y-4007774D01*
G01X3507713Y-3999627D01*
G01X3500367Y-3997461D01*
G01X3493020Y-3995295D01*
G01X3478328Y-3991143D01*
G01X3470699Y-3988896D01*
G01X3463070Y-3986649D01*
G01X3456006Y-3984662D01*
G01X3448943Y-3982674D01*
G01X3442162Y-3979511D01*
G01X3441783Y-3976931D01*
G01X3441405Y-3974351D01*
G01X3443417Y-3972401D01*
G01X3448440Y-3973909D01*
G01X3453464Y-3975418D01*
G01X3469851Y-3980079D01*
G01X3478045Y-3982400D01*
G01X3486239Y-3984722D01*
G01X3498671Y-3988576D01*
G01X3514494Y-3993128D01*
G01X3525637Y-3996424D01*
G01X3536781Y-3999721D01*
G01X3538352Y-4000984D01*
G01X3539923Y-4002248D01*
G01X3539923Y-4006429D01*
G01X3538115Y-4007101D01*
G37*
G36*
G01X3513364Y-3900971D02*
G01X3509702Y-3902768D01*
G01X3506041Y-3904565D01*
G01X3482578Y-3904269D01*
G01X3459114Y-3903973D01*
G01X3458755Y-3900343D01*
G01X3458395Y-3896712D01*
G01X3461087Y-3893570D01*
G01X3481574Y-3893461D01*
G01X3502062Y-3893352D01*
G01X3504804Y-3892609D01*
G01X3507545Y-3891867D01*
G01X3508616Y-3888756D01*
G01X3509686Y-3885645D01*
G01X3508403Y-3881669D01*
G01X3507121Y-3877692D01*
G01X3504316Y-3874628D01*
G01X3501511Y-3871563D01*
G01X3497585Y-3869974D01*
G01X3493658Y-3868384D01*
G01X3459921Y-3868384D01*
G01X3458549Y-3864920D01*
G01X3458549Y-3858763D01*
G01X3462125Y-3857434D01*
G01X3504322Y-3857400D01*
G01X3506809Y-3855791D01*
G01X3508109Y-3853399D01*
G01X3509408Y-3851007D01*
G01X3509408Y-3845718D01*
G01X3506300Y-3841259D01*
G01X3503192Y-3836801D01*
G01X3497256Y-3832302D01*
G01X3478185Y-3832001D01*
G01X3459114Y-3831700D01*
G01X3459114Y-3822940D01*
G01X3487229Y-3822647D01*
G01X3515344Y-3822353D01*
G01X3516954Y-3823648D01*
G01X3518564Y-3824942D01*
G01X3518224Y-3827663D01*
G01X3517885Y-3830384D01*
G01X3514494Y-3832090D01*
G01X3510441Y-3833310D01*
G01X3511761Y-3835790D01*
G01X3513081Y-3838270D01*
G01X3515108Y-3840460D01*
G01X3517135Y-3842650D01*
G01X3519376Y-3850316D01*
G01X3519580Y-3855314D01*
G01X3518038Y-3858889D01*
G01X3516497Y-3862464D01*
G01X3512952Y-3865353D01*
G01X3509408Y-3868243D01*
G01X3509408Y-3870067D01*
G01X3513830Y-3875252D01*
G01X3518252Y-3880436D01*
G01X3518994Y-3884690D01*
G01X3519736Y-3888943D01*
G01X3518532Y-3893273D01*
G01X3517329Y-3897603D01*
G01X3513364Y-3900971D01*
G37*
G36*
G01X3469858Y-3795016D02*
G01X3460567Y-3803149D01*
G01X3458907Y-3800999D01*
G01X3457247Y-3798849D01*
G01X3458364Y-3790421D01*
G01X3460717Y-3787994D01*
G01X3463070Y-3785567D01*
G01X3463070Y-3781787D01*
G01X3460527Y-3778455D01*
G01X3457984Y-3775122D01*
G01X3457984Y-3773883D01*
G01X3466461Y-3773883D01*
G01X3468890Y-3780636D01*
G01X3474293Y-3784066D01*
G01X3474293Y-3784066D01*
G01X3484464Y-3784066D01*
G01X3485634Y-3781947D01*
G01X3486804Y-3779829D01*
G01X3486683Y-3777841D01*
G01X3486562Y-3775853D01*
G01X3485519Y-3771359D01*
G01X3484476Y-3766865D01*
G01X3478831Y-3761727D01*
G01X3470767Y-3761727D01*
G01X3466511Y-3767092D01*
G01X3466486Y-3770488D01*
G01X3466461Y-3773883D01*
G01X3457984Y-3773883D01*
G01X3457984Y-3759029D01*
G01X3461275Y-3755699D01*
G01X3464565Y-3752368D01*
G01X3469186Y-3751446D01*
G01X3473807Y-3750523D01*
G01X3481718Y-3752509D01*
G01X3485340Y-3755861D01*
G01X3488962Y-3759213D01*
G01X3491274Y-3766348D01*
G01X3493585Y-3773484D01*
G01X3493585Y-3780362D01*
G01X3495097Y-3782365D01*
G01X3496609Y-3784368D01*
G01X3501892Y-3783600D01*
G01X3507175Y-3782832D01*
G01X3509495Y-3778426D01*
G01X3511815Y-3774019D01*
G01X3509836Y-3765887D01*
G01X3507857Y-3757754D01*
G01X3510618Y-3755079D01*
G01X3513686Y-3756744D01*
G01X3516754Y-3758408D01*
G01X3518044Y-3764940D01*
G01X3519334Y-3771473D01*
G01X3519567Y-3778043D01*
G01X3518335Y-3782423D01*
G01X3517103Y-3786803D01*
G01X3514808Y-3789211D01*
G01X3512513Y-3791619D01*
G01X3507369Y-3793318D01*
G01X3502224Y-3795016D01*
G01X3469858Y-3795016D01*
G37*
G36*
G01X3503192Y-3730736D02*
G01X3495717Y-3731256D01*
G01X3488242Y-3731776D01*
G01X3487241Y-3730271D01*
G01X3486239Y-3728766D01*
G01X3485265Y-3701390D01*
G01X3494614Y-3701390D01*
G01X3494947Y-3710582D01*
G01X3495281Y-3719775D01*
G01X3495281Y-3719775D01*
G01X3497198Y-3720942D01*
G01X3499115Y-3722110D01*
G01X3507163Y-3718391D01*
G01X3511660Y-3711245D01*
G01X3511552Y-3709055D01*
G01X3509815Y-3705000D01*
G01X3508078Y-3700944D01*
G01X3504158Y-3698703D01*
G01X3500237Y-3696462D01*
G01X3495889Y-3696462D01*
G01X3494614Y-3701390D01*
G01X3485265Y-3701390D01*
G01X3485109Y-3697009D01*
G01X3479458Y-3696446D01*
G01X3470416Y-3701399D01*
G01X3467793Y-3706322D01*
G01X3465169Y-3711245D01*
G01X3465945Y-3717268D01*
G01X3466721Y-3723291D01*
G01X3467026Y-3730956D01*
G01X3463994Y-3731295D01*
G01X3460962Y-3731635D01*
G01X3459544Y-3729105D01*
G01X3458126Y-3726576D01*
G01X3458055Y-3714901D01*
G01X3457984Y-3703226D01*
G01X3461375Y-3698579D01*
G01X3464765Y-3693933D01*
G01X3468971Y-3690651D01*
G01X3473176Y-3687370D01*
G01X3487673Y-3684731D01*
G01X3494867Y-3685785D01*
G01X3502062Y-3686838D01*
G01X3511402Y-3692138D01*
G01X3514499Y-3696468D01*
G01X3517596Y-3700799D01*
G01X3518472Y-3704379D01*
G01X3519349Y-3707960D01*
G01X3519458Y-3709602D01*
G01X3519567Y-3711245D01*
G01X3518339Y-3715533D01*
G01X3517110Y-3719822D01*
G01X3514672Y-3723034D01*
G01X3512234Y-3726247D01*
G01X3507713Y-3728492D01*
G01X3503192Y-3730736D01*
G37*
G36*
G01X3539923Y-3672137D02*
G01X3538337Y-3672726D01*
G01X3536751Y-3673316D01*
G01X3534486Y-3672742D01*
G01X3532221Y-3672168D01*
G01X3531567Y-3669806D01*
G01X3530913Y-3667443D01*
G01X3530897Y-3657951D01*
G01X3530882Y-3648459D01*
G01X3529510Y-3644995D01*
G01X3461087Y-3644995D01*
G01X3458395Y-3641853D01*
G01X3458755Y-3638294D01*
G01X3459114Y-3634736D01*
G01X3462505Y-3633830D01*
G01X3465896Y-3632924D01*
G01X3528451Y-3633181D01*
G01X3529666Y-3632453D01*
G01X3530882Y-3631725D01*
G01X3530882Y-3609809D01*
G01X3532052Y-3607691D01*
G01X3533222Y-3605573D01*
G01X3538605Y-3605573D01*
G01X3539745Y-3608311D01*
G01X3539834Y-3640224D01*
G01X3539923Y-3672137D01*
G37*
G36*
G01X3768223Y-3665644D02*
G01X3766447Y-3667365D01*
G01X3764671Y-3669086D01*
G01X3718946Y-3669086D01*
G01X3716234Y-3666458D01*
G01X3716234Y-3435184D01*
G01X3718946Y-3432556D01*
G01X4251494Y-3432556D01*
G01X4254207Y-3435184D01*
G01X4254207Y-3658792D01*
G01X4251494Y-3661420D01*
G01X4207171Y-3661420D01*
G01X4203370Y-3658683D01*
G01X4203076Y-3580025D01*
G01X4202783Y-3501367D01*
G01X4200589Y-3499813D01*
G01X4198395Y-3498259D01*
G01X4034251Y-3498259D01*
G01X4032057Y-3499812D01*
G01X4029863Y-3501366D01*
G01X4029244Y-3627860D01*
G01X4028002Y-3629310D01*
G01X4026761Y-3630759D01*
G01X3980976Y-3630759D01*
G01X3979743Y-3629319D01*
G01X3978510Y-3627880D01*
G01X3978192Y-3564255D01*
G01X3977874Y-3500630D01*
G01X3976933Y-3499718D01*
G01X3975991Y-3498806D01*
G01X3874391Y-3498510D01*
G01X3772791Y-3498213D01*
G01X3768223Y-3502639D01*
G01X3768223Y-3665644D01*
G37*
G36*
G01X3494463Y-3549242D02*
G01X3489630Y-3549820D01*
G01X3487934Y-3548720D01*
G01X3486239Y-3547620D01*
G01X3485874Y-3531087D01*
G01X3485621Y-3519619D01*
G01X3494611Y-3519619D01*
G01X3494946Y-3528376D01*
G01X3495281Y-3537133D01*
G01X3499034Y-3537482D01*
G01X3499034Y-3537482D01*
G01X3502787Y-3537831D01*
G01X3505627Y-3536028D01*
G01X3508467Y-3534225D01*
G01X3510068Y-3530512D01*
G01X3511669Y-3526800D01*
G01X3511644Y-3526491D01*
G01X3511619Y-3526182D01*
G01X3509435Y-3521520D01*
G01X3507251Y-3516858D01*
G01X3504300Y-3515771D01*
G01X3501350Y-3514684D01*
G01X3495889Y-3514684D01*
G01X3495250Y-3517152D01*
G01X3494611Y-3519619D01*
G01X3485621Y-3519619D01*
G01X3485509Y-3514554D01*
G01X3483943Y-3513972D01*
G01X3482377Y-3513390D01*
G01X3478346Y-3514679D01*
G01X3474315Y-3515968D01*
G01X3471108Y-3518582D01*
G01X3467902Y-3521196D01*
G01X3464966Y-3531355D01*
G01X3466383Y-3538263D01*
G01X3467800Y-3545171D01*
G01X3466308Y-3549726D01*
G01X3463070Y-3549726D01*
G01X3458804Y-3545593D01*
G01X3458001Y-3537839D01*
G01X3457197Y-3530085D01*
G01X3458779Y-3518943D01*
G01X3462388Y-3514359D01*
G01X3465996Y-3509775D01*
G01X3471032Y-3506481D01*
G01X3476067Y-3503186D01*
G01X3487050Y-3502811D01*
G01X3498032Y-3502436D01*
G01X3504360Y-3505540D01*
G01X3510688Y-3508645D01*
G01X3513597Y-3512340D01*
G01X3516506Y-3516035D01*
G01X3519516Y-3525087D01*
G01X3518923Y-3530015D01*
G01X3518330Y-3534943D01*
G01X3512139Y-3543703D01*
G01X3499296Y-3548665D01*
G01X3494463Y-3549242D01*
G37*
G36*
G01X3482771Y-3480954D02*
G01X3477509Y-3481528D01*
G01X3472246Y-3482103D01*
G01X3469402Y-3481411D01*
G01X3466558Y-3480720D01*
G01X3463104Y-3477170D01*
G01X3459649Y-3473620D01*
G01X3457160Y-3464860D01*
G01X3457902Y-3456135D01*
G01X3458643Y-3447411D01*
G01X3462290Y-3443506D01*
G01X3466532Y-3443506D01*
G01X3467241Y-3445298D01*
G01X3467951Y-3447089D01*
G01X3466247Y-3453988D01*
G01X3464543Y-3460886D01*
G01X3468955Y-3470760D01*
G01X3471381Y-3471151D01*
G01X3473807Y-3471543D01*
G01X3476916Y-3470089D01*
G01X3480024Y-3468636D01*
G01X3483959Y-3461066D01*
G01X3487893Y-3453496D01*
G01X3492392Y-3448914D01*
G01X3496890Y-3444332D01*
G01X3503699Y-3444809D01*
G01X3510507Y-3445286D01*
G01X3513380Y-3447902D01*
G01X3516253Y-3450517D01*
G01X3517903Y-3455498D01*
G01X3519553Y-3460480D01*
G01X3518339Y-3474620D01*
G01X3517078Y-3476092D01*
G01X3515818Y-3477563D01*
G01X3512896Y-3477234D01*
G01X3509973Y-3476905D01*
G01X3510367Y-3468145D01*
G01X3510764Y-3461342D01*
G01X3507090Y-3454457D01*
G01X3500674Y-3454457D01*
G01X3495013Y-3462670D01*
G01X3488008Y-3474715D01*
G01X3485389Y-3477834D01*
G01X3482771Y-3480954D01*
G37*
G36*
G01X3496411Y-3420466D02*
G01X3462922Y-3420510D01*
G01X3460736Y-3419377D01*
G01X3458549Y-3418243D01*
G01X3458549Y-3412188D01*
G01X3461262Y-3409560D01*
G01X3500091Y-3409560D01*
G01X3504107Y-3407934D01*
G01X3508123Y-3406308D01*
G01X3508882Y-3405119D01*
G01X3509641Y-3403929D01*
G01X3508849Y-3398816D01*
G01X3508058Y-3393703D01*
G01X3497299Y-3383279D01*
G01X3461087Y-3383279D01*
G01X3458395Y-3380137D01*
G01X3458755Y-3376506D01*
G01X3459114Y-3372876D01*
G01X3516230Y-3372291D01*
G01X3517340Y-3375119D01*
G01X3518450Y-3377947D01*
G01X3517294Y-3380040D01*
G01X3516138Y-3382134D01*
G01X3511669Y-3384451D01*
G01X3511669Y-3386710D01*
G01X3517476Y-3394087D01*
G01X3518431Y-3397169D01*
G01X3519386Y-3400252D01*
G01X3519483Y-3402315D01*
G01X3519580Y-3404378D01*
G01X3516995Y-3412736D01*
G01X3510846Y-3418444D01*
G01X3496411Y-3420466D01*
G37*
G36*
G01X4251494Y-3363568D02*
G01X4207015Y-3363568D01*
G01X4205845Y-3362199D01*
G01X4204674Y-3360830D01*
G01X4204205Y-3304983D01*
G01X4203736Y-3249136D01*
G01X4201341Y-3240700D01*
G01X4198947Y-3232265D01*
G01X4194696Y-3223819D01*
G01X4190445Y-3215373D01*
G01X4181921Y-3206989D01*
G01X4173398Y-3198606D01*
G01X4167182Y-3195288D01*
G01X4160966Y-3191970D01*
G01X4152489Y-3189344D01*
G01X4144013Y-3186718D01*
G01X3826428Y-3186718D01*
G01X3817810Y-3189642D01*
G01X3809193Y-3192565D01*
G01X3803408Y-3195405D01*
G01X3797624Y-3198245D01*
G01X3789422Y-3206182D01*
G01X3781220Y-3214119D01*
G01X3771519Y-3232811D01*
G01X3767093Y-3253301D01*
G01X3767093Y-3359563D01*
G01X3765222Y-3361565D01*
G01X3763352Y-3363568D01*
G01X3718771Y-3363568D01*
G01X3717406Y-3361974D01*
G01X3716040Y-3360380D01*
G01X3716509Y-3298735D01*
G01X3716977Y-3237090D01*
G01X3722952Y-3210809D01*
G01X3726160Y-3199859D01*
G01X3730948Y-3189456D01*
G01X3735737Y-3179053D01*
G01X3743574Y-3168425D01*
G01X3751411Y-3157798D01*
G01X3758404Y-3152007D01*
G01X3765397Y-3146215D01*
G01X3766528Y-3145001D01*
G01X3769918Y-3142732D01*
G01X3773309Y-3140462D01*
G01X3791392Y-3131313D01*
G01X3797608Y-3129286D01*
G01X3803824Y-3127260D01*
G01X3813626Y-3124909D01*
G01X3823428Y-3122558D01*
G01X3838491Y-3121552D01*
G01X3853553Y-3120545D01*
G01X4118018Y-3120545D01*
G01X4132711Y-3121563D01*
G01X4147403Y-3122582D01*
G01X4168877Y-3127982D01*
G01X4173091Y-3129198D01*
G01X4177305Y-3130413D01*
G01X4188657Y-3135959D01*
G01X4200010Y-3141504D01*
G01X4210438Y-3150544D01*
G01X4220866Y-3159584D01*
G01X4227647Y-3168756D01*
G01X4231146Y-3173357D01*
G01X4234644Y-3177958D01*
G01X4244224Y-3198764D01*
G01X4246331Y-3205334D01*
G01X4248439Y-3211904D01*
G01X4252179Y-3228330D01*
G01X4253027Y-3235995D01*
G01X4253875Y-3243660D01*
G01X4254041Y-3302300D01*
G01X4254207Y-3360940D01*
G01X4251494Y-3363568D01*
G37*
G36*
G01X3488500Y-3349813D02*
G01X3476067Y-3349880D01*
G01X3465096Y-3343310D01*
G01X3457984Y-3333786D01*
G01X3457984Y-3326407D01*
G01X3465331Y-3326407D01*
G01X3466943Y-3330145D01*
G01X3468555Y-3333883D01*
G01X3474251Y-3336680D01*
G01X3479948Y-3339477D01*
G01X3479948Y-3339477D01*
G01X3496551Y-3339477D01*
G01X3501331Y-3337240D01*
G01X3506110Y-3335002D01*
G01X3508320Y-3331491D01*
G01X3510530Y-3327979D01*
G01X3510534Y-3322939D01*
G01X3510538Y-3317900D01*
G01X3507967Y-3314203D01*
G01X3505396Y-3310507D01*
G01X3499773Y-3308471D01*
G01X3494151Y-3306436D01*
G01X3478328Y-3307203D01*
G01X3473807Y-3309453D01*
G01X3469286Y-3311704D01*
G01X3467310Y-3315461D01*
G01X3465334Y-3319219D01*
G01X3465332Y-3322813D01*
G01X3465331Y-3326407D01*
G01X3457984Y-3326407D01*
G01X3457984Y-3312316D01*
G01X3465096Y-3302793D01*
G01X3476067Y-3296223D01*
G01X3499083Y-3296223D01*
G01X3505220Y-3299438D01*
G01X3511358Y-3302652D01*
G01X3514314Y-3307180D01*
G01X3517271Y-3311708D01*
G01X3518365Y-3316011D01*
G01X3519460Y-3320314D01*
G01X3518897Y-3325789D01*
G01X3518333Y-3331264D01*
G01X3516121Y-3335737D01*
G01X3513908Y-3340210D01*
G01X3511941Y-3342061D01*
G01X3509973Y-3343911D01*
G01X3500932Y-3349746D01*
G01X3488500Y-3349813D01*
G37*
G36*
G01X3504253Y-3275801D02*
G01X3497905Y-3278154D01*
G01X3482849Y-3278131D01*
G01X3477360Y-3276517D01*
G01X3471871Y-3274904D01*
G01X3464442Y-3270455D01*
G01X3461357Y-3266536D01*
G01X3458272Y-3262618D01*
G01X3457731Y-3255877D01*
G01X3457256Y-3249959D01*
G01X3465331Y-3249959D01*
G01X3465335Y-3252832D01*
G01X3465339Y-3255706D01*
G01X3467462Y-3259079D01*
G01X3469585Y-3262452D01*
G01X3469585Y-3262452D01*
G01X3473887Y-3264430D01*
G01X3478189Y-3266408D01*
G01X3499036Y-3266408D01*
G01X3503174Y-3263930D01*
G01X3507313Y-3261451D01*
G01X3509408Y-3256111D01*
G01X3509100Y-3250231D01*
G01X3508626Y-3247883D01*
G01X3508152Y-3245535D01*
G01X3503868Y-3241039D01*
G01X3499584Y-3236543D01*
G01X3486695Y-3236579D01*
G01X3473807Y-3236616D01*
G01X3471244Y-3238687D01*
G01X3468681Y-3240758D01*
G01X3467006Y-3245358D01*
G01X3465331Y-3249959D01*
G01X3457256Y-3249959D01*
G01X3457190Y-3249136D01*
G01X3459565Y-3243346D01*
G01X3461940Y-3237557D01*
G01X3461940Y-3236543D01*
G01X3442162Y-3236324D01*
G01X3439336Y-3235569D01*
G01X3436511Y-3234814D01*
G01X3436131Y-3231626D01*
G01X3435752Y-3228438D01*
G01X3437760Y-3227015D01*
G01X3439768Y-3225592D01*
G01X3514898Y-3225592D01*
G01X3516674Y-3227313D01*
G01X3518450Y-3229034D01*
G01X3518450Y-3233099D01*
G01X3511583Y-3238305D01*
G01X3514299Y-3242183D01*
G01X3517015Y-3246061D01*
G01X3518208Y-3249241D01*
G01X3519401Y-3252421D01*
G01X3519491Y-3253736D01*
G01X3519580Y-3255051D01*
G01X3518337Y-3260666D01*
G01X3517094Y-3266282D01*
G01X3513847Y-3269864D01*
G01X3510601Y-3273447D01*
G01X3504253Y-3275801D01*
G37*
G36*
G01X3479978Y-3200549D02*
G01X3475720Y-3201785D01*
G01X3471429Y-3201005D01*
G01X3467138Y-3200225D01*
G01X3458843Y-3192188D01*
G01X3458010Y-3187413D01*
G01X3457177Y-3182639D01*
G01X3458762Y-3166254D01*
G01X3463209Y-3161945D01*
G01X3465118Y-3162310D01*
G01X3467026Y-3162675D01*
G01X3466773Y-3167579D01*
G01X3466521Y-3172483D01*
G01X3466208Y-3178550D01*
G01X3465896Y-3184616D01*
G01X3467900Y-3187584D01*
G01X3469903Y-3190551D01*
G01X3472985Y-3190516D01*
G01X3476067Y-3190481D01*
G01X3478008Y-3189053D01*
G01X3479949Y-3187624D01*
G01X3483297Y-3181458D01*
G01X3486644Y-3175293D01*
G01X3490144Y-3170364D01*
G01X3493644Y-3165436D01*
G01X3498135Y-3164132D01*
G01X3502627Y-3162828D01*
G01X3506912Y-3164072D01*
G01X3511197Y-3165316D01*
G01X3514222Y-3168375D01*
G01X3517248Y-3171434D01*
G01X3518364Y-3175791D01*
G01X3519481Y-3180148D01*
G01X3518910Y-3187218D01*
G01X3518339Y-3194288D01*
G01X3517126Y-3195705D01*
G01X3515913Y-3197121D01*
G01X3511945Y-3197121D01*
G01X3510701Y-3195668D01*
G01X3509457Y-3194216D01*
G01X3510057Y-3187182D01*
G01X3510656Y-3180148D01*
G01X3509159Y-3177410D01*
G01X3507661Y-3174673D01*
G01X3504135Y-3174338D01*
G01X3500610Y-3174004D01*
G01X3495593Y-3180830D01*
G01X3492811Y-3185964D01*
G01X3490029Y-3191098D01*
G01X3487132Y-3195206D01*
G01X3484235Y-3199313D01*
G01X3479978Y-3200549D01*
G37*
G36*
G01X3508602Y-3138126D02*
G01X3500396Y-3140171D01*
G01X3492189Y-3142217D01*
G01X3489651Y-3141282D01*
G01X3487113Y-3140347D01*
G01X3486409Y-3137799D01*
G01X3485705Y-3135251D01*
G01X3485672Y-3121563D01*
G01X3485642Y-3108970D01*
G01X3494707Y-3108970D01*
G01X3494994Y-3119373D01*
G01X3495281Y-3129776D01*
G01X3497939Y-3130140D01*
G01X3497939Y-3130140D01*
G01X3500596Y-3130505D01*
G01X3505867Y-3129223D01*
G01X3510242Y-3123205D01*
G01X3510811Y-3121015D01*
G01X3511380Y-3118825D01*
G01X3510274Y-3114445D01*
G01X3505904Y-3108477D01*
G01X3501351Y-3107156D01*
G01X3496798Y-3105834D01*
G01X3495753Y-3107402D01*
G01X3494707Y-3108970D01*
G01X3485642Y-3108970D01*
G01X3485639Y-3107875D01*
G01X3484704Y-3106446D01*
G01X3483769Y-3105017D01*
G01X3478788Y-3106884D01*
G01X3473807Y-3108750D01*
G01X3470819Y-3111418D01*
G01X3467831Y-3114085D01*
G01X3466398Y-3119041D01*
G01X3464966Y-3123998D01*
G01X3466347Y-3130730D01*
G01X3467728Y-3137463D01*
G01X3466219Y-3141274D01*
G01X3462101Y-3141274D01*
G01X3460423Y-3139648D01*
G01X3458745Y-3138022D01*
G01X3457945Y-3129748D01*
G01X3457145Y-3121474D01*
G01X3457883Y-3117000D01*
G01X3458622Y-3112525D01*
G01X3461511Y-3107748D01*
G01X3464400Y-3102971D01*
G01X3474765Y-3096194D01*
G01X3488337Y-3094076D01*
G01X3495354Y-3095135D01*
G01X3502372Y-3096193D01*
G01X3506782Y-3098891D01*
G01X3511193Y-3101589D01*
G01X3514259Y-3105483D01*
G01X3517325Y-3109378D01*
G01X3518339Y-3113554D01*
G01X3519353Y-3117730D01*
G01X3519466Y-3118498D01*
G01X3519580Y-3119265D01*
G01X3518393Y-3124625D01*
G01X3517207Y-3129985D01*
G01X3512905Y-3134056D01*
G01X3508602Y-3138126D01*
G37*
G36*
G01X3467026Y-3076136D02*
G01X3463886Y-3078089D01*
G01X3460746Y-3080042D01*
G01X3459648Y-3079384D01*
G01X3458549Y-3078727D01*
G01X3458549Y-3069001D01*
G01X3462513Y-3065168D01*
G01X3488536Y-3048386D01*
G01X3490637Y-3046137D01*
G01X3492738Y-3043887D01*
G01X3492738Y-3039540D01*
G01X3501359Y-3039540D01*
G01X3502624Y-3045443D01*
G01X3503889Y-3051347D01*
G01X3508216Y-3056677D01*
G01X3512313Y-3058561D01*
G01X3512313Y-3058561D01*
G01X3516409Y-3060444D01*
G01X3520057Y-3059781D01*
G01X3523705Y-3059118D01*
G01X3526992Y-3055794D01*
G01X3530278Y-3052470D01*
G01X3531090Y-3036697D01*
G01X3530233Y-3035876D01*
G01X3529375Y-3035054D01*
G01X3503837Y-3035054D01*
G01X3501359Y-3039540D01*
G01X3492738Y-3039540D01*
G01X3492738Y-3038346D01*
G01X3491328Y-3036700D01*
G01X3489918Y-3035054D01*
G01X3461087Y-3035054D01*
G01X3458395Y-3031912D01*
G01X3458755Y-3028282D01*
G01X3459114Y-3024651D01*
G01X3497972Y-3024363D01*
G01X3536830Y-3024075D01*
G01X3538377Y-3025318D01*
G01X3539923Y-3026562D01*
G01X3539923Y-3055430D01*
G01X3536981Y-3061151D01*
G01X3534039Y-3066871D01*
G01X3531048Y-3068363D01*
G01X3528056Y-3069854D01*
G01X3523716Y-3071009D01*
G01X3519376Y-3072164D01*
G01X3512944Y-3070224D01*
G01X3506511Y-3068284D01*
G01X3500419Y-3062382D01*
G01X3499223Y-3060216D01*
G01X3498027Y-3058050D01*
G01X3492786Y-3058050D01*
G01X3481036Y-3066217D01*
G01X3469286Y-3074383D01*
G01X3467026Y-3076136D01*
G37*
G36*
G01X3995957Y-3016155D02*
G01X3989445Y-3018694D01*
G01X3982933Y-3021232D01*
G01X3979841Y-3020179D01*
G01X3976749Y-3019125D01*
G01X3975086Y-3015865D01*
G01X3973422Y-3012606D01*
G01X3973353Y-2975374D01*
G01X3978511Y-2965866D01*
G01X3979158Y-2961291D01*
G01X3979805Y-2956717D01*
G01X3978614Y-2947287D01*
G01X3977424Y-2937857D01*
G01X3975117Y-2931222D01*
G01X3972810Y-2924587D01*
G01X3966268Y-2913838D01*
G01X3965370Y-2911207D01*
G01X3964471Y-2908577D01*
G01X3964391Y-2897717D01*
G01X3964312Y-2886858D01*
G01X3959228Y-2884251D01*
G01X3954145Y-2881643D01*
G01X3953012Y-2880548D01*
G01X3951880Y-2879453D01*
G01X3950663Y-2858204D01*
G01X3947462Y-2850170D01*
G01X3944260Y-2842134D01*
G01X3936749Y-2834857D01*
G01X3901758Y-2818216D01*
G01X3895434Y-2811446D01*
G01X3889111Y-2804676D01*
G01X3886812Y-2797494D01*
G01X3884514Y-2790312D01*
G01X3883469Y-2769230D01*
G01X3882424Y-2748148D01*
G01X3880419Y-2744362D01*
G01X3878415Y-2740575D01*
G01X3870823Y-2735149D01*
G01X3861352Y-2726795D01*
G01X3851880Y-2718441D01*
G01X3845251Y-2710575D01*
G01X3838622Y-2702708D01*
G01X3835924Y-2697780D01*
G01X3833226Y-2692852D01*
G01X3833428Y-2677966D01*
G01X3833630Y-2663079D01*
G01X3836464Y-2651685D01*
G01X3839298Y-2640290D01*
G01X3842205Y-2634268D01*
G01X3845113Y-2628245D01*
G01X3849528Y-2621675D01*
G01X3851318Y-2618604D01*
G01X3853108Y-2615534D01*
G01X3853755Y-2610241D01*
G01X3854402Y-2604949D01*
G01X3852395Y-2599857D01*
G01X3850388Y-2594766D01*
G01X3838653Y-2584443D01*
G01X3832540Y-2581499D01*
G01X3826428Y-2578556D01*
G01X3816939Y-2576183D01*
G01X3807451Y-2573811D01*
G01X3802976Y-2574504D01*
G01X3798501Y-2575198D01*
G01X3794946Y-2576972D01*
G01X3791392Y-2578745D01*
G01X3783177Y-2585427D01*
G01X3774963Y-2592108D01*
G01X3769770Y-2595667D01*
G01X3764577Y-2599226D01*
G01X3756623Y-2599226D01*
G01X3753099Y-2595553D01*
G01X3749575Y-2591880D01*
G01X3744011Y-2579401D01*
G01X3738448Y-2566922D01*
G01X3728199Y-2549496D01*
G01X3726454Y-2547690D01*
G01X3724710Y-2545885D01*
G01X3721042Y-2541994D01*
G01X3717374Y-2538103D01*
G01X3710305Y-2533479D01*
G01X3703237Y-2528855D01*
G01X3694667Y-2520512D01*
G01X3686097Y-2512170D01*
G01X3683654Y-2508218D01*
G01X3681210Y-2504266D01*
G01X3674510Y-2483177D01*
G01X3673227Y-2480853D01*
G01X3671943Y-2478529D01*
G01X3669712Y-2470729D01*
G01X3667481Y-2462928D01*
G01X3665318Y-2432249D01*
G01X3663155Y-2401570D01*
G01X3663135Y-2379645D01*
G01X3663115Y-2357720D01*
G01X3658679Y-2345411D01*
G01X3654243Y-2333101D01*
G01X3652980Y-2325177D01*
G01X3651716Y-2317252D01*
G01X3649494Y-2310261D01*
G01X3647272Y-2303270D01*
G01X3628828Y-2270165D01*
G01X3621013Y-2255929D01*
G01X3612448Y-2239443D01*
G01X3610669Y-2232790D01*
G01X3608889Y-2226137D01*
G01X3610763Y-2220775D01*
G01X3612636Y-2215413D01*
G01X3620804Y-2204462D01*
G01X3622592Y-2201717D01*
G01X3624379Y-2198973D01*
G01X3624949Y-2180912D01*
G01X3625520Y-2162850D01*
G01X3629037Y-2152995D01*
G01X3631564Y-2143140D01*
G01X3633647Y-2138759D01*
G01X3637291Y-2125619D01*
G01X3640676Y-2111931D01*
G01X3644062Y-2098243D01*
G01X3647650Y-2086197D01*
G01X3650469Y-2081269D01*
G01X3653287Y-2076342D01*
G01X3659689Y-2068129D01*
G01X3666091Y-2059916D01*
G01X3670024Y-2053346D01*
G01X3673957Y-2046776D01*
G01X3679898Y-2030350D01*
G01X3681201Y-2021144D01*
G01X3682504Y-2011938D01*
G01X3681210Y-1998148D01*
G01X3679917Y-1984358D01*
G01X3678861Y-1974503D01*
G01X3677805Y-1964647D01*
G01X3676726Y-1956434D01*
G01X3675646Y-1948221D01*
G01X3675712Y-1920845D01*
G01X3677556Y-1909895D01*
G01X3678865Y-1900587D01*
G01X3680175Y-1891279D01*
G01X3683442Y-1872663D01*
G01X3686730Y-1847477D01*
G01X3687949Y-1839264D01*
G01X3689168Y-1831052D01*
G01X3691264Y-1817043D01*
G01X3687786Y-1791630D01*
G01X3688686Y-1779067D01*
G01X3694195Y-1773370D01*
G01X3700976Y-1770616D01*
G01X3711622Y-1761109D01*
G01X3722268Y-1751602D01*
G01X3725184Y-1750064D01*
G01X3728101Y-1748526D01*
G01X3741663Y-1742075D01*
G01X3747314Y-1740415D01*
G01X3751773Y-1737425D01*
G01X3754766Y-1737425D01*
G01X3764037Y-1732318D01*
G01X3773309Y-1727211D01*
G01X3776699Y-1724491D01*
G01X3790360Y-1722516D01*
G01X3816256Y-1725314D01*
G01X3835469Y-1728507D01*
G01X3854683Y-1730993D01*
G01X3866550Y-1732518D01*
G01X3878417Y-1734043D01*
G01X3901021Y-1737381D01*
G01X3916843Y-1739534D01*
G01X3925320Y-1740710D01*
G01X3933796Y-1741885D01*
G01X3949054Y-1743980D01*
G01X3964312Y-1746075D01*
G01X3975614Y-1747341D01*
G01X3994827Y-1750465D01*
G01X4012910Y-1752828D01*
G01X4046584Y-1757171D01*
G01X4049442Y-1758522D01*
G01X4052300Y-1759874D01*
G01X4052669Y-1760977D01*
G01X4053038Y-1762080D01*
G01X4027603Y-1774703D01*
G01X4000478Y-1788450D01*
G01X3982960Y-1797311D01*
G01X3965442Y-1806172D01*
G01X3938882Y-1819554D01*
G01X3926168Y-1825969D01*
G01X3913453Y-1832385D01*
G01X3889719Y-1844479D01*
G01X3875026Y-1851870D01*
G01X3860334Y-1859261D01*
G01X3847902Y-1865533D01*
G01X3835469Y-1871806D01*
G01X3823602Y-1877840D01*
G01X3811735Y-1883873D01*
G01X3786871Y-1896400D01*
G01X3785458Y-1898155D01*
G01X3784046Y-1899911D01*
G01X3784046Y-1911388D01*
G01X3787195Y-1913561D01*
G01X3790344Y-1915734D01*
G01X3806126Y-1923636D01*
G01X3821907Y-1931538D01*
G01X3836600Y-1938908D01*
G01X3851292Y-1946278D01*
G01X3867115Y-1954226D01*
G01X3882938Y-1962173D01*
G01X3896783Y-1969159D01*
G01X3924472Y-1983131D01*
G01X3938317Y-1990117D01*
G01X3969963Y-2006008D01*
G01X4003868Y-2023049D01*
G01X4017996Y-2030274D01*
G01X4032123Y-2037498D01*
G01X4040879Y-2041589D01*
G01X4049635Y-2045680D01*
G01X4049638Y-2048123D01*
G01X4049641Y-2050566D01*
G01X4044556Y-2051665D01*
G01X4032728Y-2052860D01*
G01X4020901Y-2054055D01*
G01X4020143Y-2054509D01*
G01X4019386Y-2054962D01*
G01X4002586Y-2057129D01*
G01X3985785Y-2059297D01*
G01X3967702Y-2061659D01*
G01X3958096Y-2063284D01*
G01X3948489Y-2064908D01*
G01X3939161Y-2065924D01*
G01X3929834Y-2066939D01*
G01X3923338Y-2068048D01*
G01X3916843Y-2069157D01*
G01X3906672Y-2070294D01*
G01X3896500Y-2071432D01*
G01X3877287Y-2074518D01*
G01X3865420Y-2076223D01*
G01X3853553Y-2077927D01*
G01X3839494Y-2079662D01*
G01X3825436Y-2081396D01*
G01X3824743Y-2081811D01*
G01X3824051Y-2082225D01*
G01X3812180Y-2083464D01*
G01X3800309Y-2084702D01*
G01X3792460Y-2086545D01*
G01X3784611Y-2088387D01*
G01X3784304Y-2109494D01*
G01X3783997Y-2130602D01*
G01X3785099Y-2132598D01*
G01X3786202Y-2134594D01*
G01X3794448Y-2133241D01*
G01X3802694Y-2131888D01*
G01X3820777Y-2129376D01*
G01X3850162Y-2125293D01*
G01X3867115Y-2122766D01*
G01X3880112Y-2120708D01*
G01X3893109Y-2118650D01*
G01X3911192Y-2116113D01*
G01X3925885Y-2114057D01*
G01X3940578Y-2112001D01*
G01X3949054Y-2110814D01*
G01X3957530Y-2109628D01*
G01X3974483Y-2106570D01*
G01X3980134Y-2105912D01*
G01X3985785Y-2105254D01*
G01X4017431Y-2100806D01*
G01X4030428Y-2098777D01*
G01X4043425Y-2096747D01*
G01X4060378Y-2094305D01*
G01X4075071Y-2092278D01*
G01X4089763Y-2090251D01*
G01X4106716Y-2087724D01*
G01X4132711Y-2083634D01*
G01X4164356Y-2079033D01*
G01X4171480Y-2078346D01*
G01X4178604Y-2077660D01*
G01X4181369Y-2075553D01*
G01X4184135Y-2073445D01*
G01X4184135Y-2068232D01*
G01X4181759Y-2063180D01*
G01X4165146Y-2054887D01*
G01X4148533Y-2046593D01*
G01X4111237Y-2027901D01*
G01X4094284Y-2019416D01*
G01X4077331Y-2010931D01*
G01X4050206Y-1997215D01*
G01X4016301Y-1980233D01*
G01X3981265Y-1962740D01*
G01X3966572Y-1955350D01*
G01X3951880Y-1947960D01*
G01X3936622Y-1940284D01*
G01X3921364Y-1932607D01*
G01X3882986Y-1913448D01*
G01X3876463Y-1910135D01*
G01X3869940Y-1906823D01*
G01X3869940Y-1905386D01*
G01X3871353Y-1903646D01*
G01X3872766Y-1901907D01*
G01X3898760Y-1888804D01*
G01X3927015Y-1874614D01*
G01X3950749Y-1862546D01*
G01X3977309Y-1849120D01*
G01X4003303Y-1835979D01*
G01X4016018Y-1829534D01*
G01X4028733Y-1823089D01*
G01X4061508Y-1806704D01*
G01X4087503Y-1793568D01*
G01X4099370Y-1787531D01*
G01X4111237Y-1781495D01*
G01X4124799Y-1774641D01*
G01X4138362Y-1767788D01*
G01X4150794Y-1761527D01*
G01X4163226Y-1755267D01*
G01X4172268Y-1750652D01*
G01X4181309Y-1746036D01*
G01X4184135Y-1742482D01*
G01X4184135Y-1735286D01*
G01X4179049Y-1732200D01*
G01X4166051Y-1730340D01*
G01X4153054Y-1728480D01*
G01X4140057Y-1726457D01*
G01X4127060Y-1724434D01*
G01X4108977Y-1721897D01*
G01X4094284Y-1719841D01*
G01X4079592Y-1717785D01*
G01X4071115Y-1716589D01*
G01X4062639Y-1715393D01*
G01X4053032Y-1713794D01*
G01X4043425Y-1712195D01*
G01X4024212Y-1710000D01*
G01X4018561Y-1708923D01*
G01X4012910Y-1707846D01*
G01X3994827Y-1705709D01*
G01X3975614Y-1702515D01*
G01X3958661Y-1700103D01*
G01X3928145Y-1695904D01*
G01X3911192Y-1693476D01*
G01X3885198Y-1689392D01*
G01X3876156Y-1688126D01*
G01X3867115Y-1686859D01*
G01X3837730Y-1682807D01*
G01X3830384Y-1681670D01*
G01X3823037Y-1680532D01*
G01X3812300Y-1679254D01*
G01X3812300Y-1674738D01*
G01X3817581Y-1667481D01*
G01X3822862Y-1660224D01*
G01X3837160Y-1642314D01*
G01X3841706Y-1633488D01*
G01X3846251Y-1624663D01*
G01X3848007Y-1616710D01*
G01X3849764Y-1608757D01*
G01X3851850Y-1560575D01*
G01X3853810Y-1517868D01*
G01X3861108Y-1501443D01*
G01X3864026Y-1495168D01*
G01X3866944Y-1488894D01*
G01X3869855Y-1486218D01*
G01X3872766Y-1483543D01*
G01X3890322Y-1474404D01*
G01X3896050Y-1474447D01*
G01X3901778Y-1474490D01*
G01X3911192Y-1479197D01*
G01X3915713Y-1482866D01*
G01X3919104Y-1485141D01*
G01X3922494Y-1487415D01*
G01X3926392Y-1489368D01*
G01X3930290Y-1491321D01*
G01X3938133Y-1490684D01*
G01X3945977Y-1490047D01*
G01X3960921Y-1493460D01*
G01X3969944Y-1492812D01*
G01X3978967Y-1492164D01*
G01X3986332Y-1489209D01*
G01X3993697Y-1486254D01*
G01X4003868Y-1478520D01*
G01X4007391Y-1475369D01*
G01X4010913Y-1472218D01*
G01X4015302Y-1469835D01*
G01X4019691Y-1467452D01*
G01X4035514Y-1461319D01*
G01X4045385Y-1456546D01*
G01X4050621Y-1451605D01*
G01X4055857Y-1446665D01*
G01X4060291Y-1441406D01*
G01X4064725Y-1436147D01*
G01X4065791Y-1423697D01*
G01X4071091Y-1416029D01*
G01X4072927Y-1413579D01*
G01X4074762Y-1411129D01*
G01X4076167Y-1398604D01*
G01X4077572Y-1386080D01*
G01X4094798Y-1365328D01*
G01X4100273Y-1362064D01*
G01X4105748Y-1358800D01*
G01X4112623Y-1350326D01*
G01X4116257Y-1343441D01*
G01X4119675Y-1340130D01*
G01X4123092Y-1336818D01*
G01X4133954Y-1333323D01*
G01X4138135Y-1328476D01*
G01X4142317Y-1323628D01*
G01X4142317Y-1321308D01*
G01X4154750Y-1321308D01*
G01X4154750Y-1324419D01*
G01X4157947Y-1325099D01*
G01X4161144Y-1325780D01*
G01X4168797Y-1331185D01*
G01X4176449Y-1336591D01*
G01X4184739Y-1340454D01*
G01X4193028Y-1344317D01*
G01X4194823Y-1349231D01*
G01X4194847Y-1367300D01*
G01X4194871Y-1385368D01*
G01X4197248Y-1390296D01*
G01X4199624Y-1395223D01*
G01X4200374Y-1396866D01*
G01X4201124Y-1398508D01*
G01X4207823Y-1408364D01*
G01X4208847Y-1410554D01*
G01X4209870Y-1412744D01*
G01X4212340Y-1414934D01*
G01X4214810Y-1417124D01*
G01X4222284Y-1420957D01*
G01X4229757Y-1424790D01*
G01X4233643Y-1431907D01*
G01X4237529Y-1439025D01*
G01X4244355Y-1451071D01*
G01X4251182Y-1463116D01*
G01X4252995Y-1466401D01*
G01X4274628Y-1509108D01*
G01X4283607Y-1521154D01*
G01X4286990Y-1526762D01*
G01X4290373Y-1532371D01*
G01X4290373Y-1550982D01*
G01X4292646Y-1557875D01*
G01X4294919Y-1564769D01*
G01X4295441Y-1585912D01*
G01X4293755Y-1588178D01*
G01X4292068Y-1590443D01*
G01X4288916Y-1594284D01*
G01X4285764Y-1598125D01*
G01X4281145Y-1610859D01*
G01X4280463Y-1662004D01*
G01X4278067Y-1664475D01*
G01X4275671Y-1666946D01*
G01X4259293Y-1671941D01*
G01X4255742Y-1672972D01*
G01X4252191Y-1674004D01*
G01X4241935Y-1680586D01*
G01X4239549Y-1684505D01*
G01X4237162Y-1688424D01*
G01X4236102Y-1696527D01*
G01X4235041Y-1704631D01*
G01X4233873Y-1706746D01*
G01X4232705Y-1708861D01*
G01X4230642Y-1717331D01*
G01X4228579Y-1725801D01*
G01X4230253Y-1732982D01*
G01X4231927Y-1740163D01*
G01X4231907Y-1752756D01*
G01X4231887Y-1765349D01*
G01X4228112Y-1775204D01*
G01X4226955Y-1783259D01*
G01X4225798Y-1791313D01*
G01X4221624Y-1806961D01*
G01X4219292Y-1811888D01*
G01X4216960Y-1816816D01*
G01X4216935Y-1822637D01*
G01X4216910Y-1828458D01*
G01X4217993Y-1830418D01*
G01X4219076Y-1832378D01*
G01X4224712Y-1837956D01*
G01X4230348Y-1843533D01*
G01X4231603Y-1851310D01*
G01X4232844Y-1859022D01*
G01X4239692Y-1866578D01*
G01X4245537Y-1869783D01*
G01X4251381Y-1872987D01*
G01X4257911Y-1874375D01*
G01X4264441Y-1875763D01*
G01X4270343Y-1874444D01*
G01X4276245Y-1873126D01*
G01X4280766Y-1870173D01*
G01X4285287Y-1867221D01*
G01X4290938Y-1863232D01*
G01X4296589Y-1859244D01*
G01X4300972Y-1858486D01*
G01X4305356Y-1857728D01*
G01X4311709Y-1854992D01*
G01X4318063Y-1852256D01*
G01X4323714Y-1852706D01*
G01X4329365Y-1853156D01*
G01X4337276Y-1856046D01*
G01X4343228Y-1858267D01*
G01X4349180Y-1860488D01*
G01X4351139Y-1862346D01*
G01X4353099Y-1864203D01*
G01X4356356Y-1868104D01*
G01X4359613Y-1872005D01*
G01X4363137Y-1872727D01*
G01X4366661Y-1873449D01*
G01X4370884Y-1875713D01*
G01X4375106Y-1877977D01*
G01X4381180Y-1886899D01*
G01X4384092Y-1891239D01*
G01X4387005Y-1895578D01*
G01X4395498Y-1903631D01*
G01X4399330Y-1904328D01*
G01X4403163Y-1905025D01*
G01X4406211Y-1907348D01*
G01X4409259Y-1909671D01*
G01X4408590Y-1912911D01*
G01X4407921Y-1916152D01*
G01X4403541Y-1921236D01*
G01X4399160Y-1926321D01*
G01X4396755Y-1930684D01*
G01X4394351Y-1935048D01*
G01X4394351Y-1938398D01*
G01X4389830Y-1946571D01*
G01X4389830Y-1956136D01*
G01X4385513Y-1959035D01*
G01X4381196Y-1961934D01*
G01X4379282Y-1969861D01*
G01X4377369Y-1977788D01*
G01X4377398Y-1990082D01*
G01X4376311Y-1995633D01*
G01X4375225Y-2001184D01*
G01X4368840Y-2013924D01*
G01X4363901Y-2022683D01*
G01X4358962Y-2031442D01*
G01X4355728Y-2042395D01*
G01X4354590Y-2047323D01*
G01X4353452Y-2052251D01*
G01X4351079Y-2062925D01*
G01X4348706Y-2073600D01*
G01X4345584Y-2076498D01*
G01X4342462Y-2079396D01*
G01X4326142Y-2080310D01*
G01X4309822Y-2081223D01*
G01X4304621Y-2083163D01*
G01X4299420Y-2085102D01*
G01X4284442Y-2095904D01*
G01X4269464Y-2106707D01*
G01X4264270Y-2113029D01*
G01X4259076Y-2119351D01*
G01X4258308Y-2127358D01*
G01X4257540Y-2135364D01*
G01X4253754Y-2141989D01*
G01X4249969Y-2148615D01*
G01X4246123Y-2171253D01*
G01X4245927Y-2179124D01*
G01X4245730Y-2186995D01*
G01X4252015Y-2195181D01*
G01X4258299Y-2203367D01*
G01X4262253Y-2213639D01*
G01X4266456Y-2230743D01*
G01X4268397Y-2243778D01*
G01X4270337Y-2256813D01*
G01X4268981Y-2267656D01*
G01X4267624Y-2278500D01*
G01X4266061Y-2282794D01*
G01X4264497Y-2287088D01*
G01X4262627Y-2294313D01*
G01X4260757Y-2301538D01*
G01X4261510Y-2306406D01*
G01X4262263Y-2311273D01*
G01X4259851Y-2317519D01*
G01X4257440Y-2323765D01*
G01X4251387Y-2330911D01*
G01X4245335Y-2338058D01*
G01X4241195Y-2341890D01*
G01X4237056Y-2345723D01*
G01X4235033Y-2349556D01*
G01X4233011Y-2353388D01*
G01X4232510Y-2366413D01*
G01X4232010Y-2379438D01*
G01X4225162Y-2385366D01*
G01X4219407Y-2386106D01*
G01X4213651Y-2386846D01*
G01X4209734Y-2388431D01*
G01X4205817Y-2390017D01*
G01X4203456Y-2392925D01*
G01X4201095Y-2395834D01*
G01X4199966Y-2399897D01*
G01X4198837Y-2403960D01*
G01X4194810Y-2407491D01*
G01X4181874Y-2413229D01*
G01X4181634Y-2415065D01*
G01X4181394Y-2416901D01*
G01X4181352Y-2438254D01*
G01X4181309Y-2459608D01*
G01X4176404Y-2469459D01*
G01X4171499Y-2479311D01*
G01X4170188Y-2480119D01*
G01X4168877Y-2480928D01*
G01X3893674Y-2480961D01*
G01X3893674Y-2478367D01*
G01X3909033Y-2463988D01*
G01X3938302Y-2438254D01*
G01X3967572Y-2412521D01*
G01X3971246Y-2409236D01*
G01X3977394Y-2403760D01*
G01X3983543Y-2398285D01*
G01X3995305Y-2387882D01*
G01X4007066Y-2377479D01*
G01X4013086Y-2372004D01*
G01X4023735Y-2362620D01*
G01X4034384Y-2353236D01*
G01X4063769Y-2327329D01*
G01X4068855Y-2322789D01*
G01X4073941Y-2318249D01*
G01X4098733Y-2296446D01*
G01X4102353Y-2293161D01*
G01X4113576Y-2283227D01*
G01X4124799Y-2273292D01*
G01X4153054Y-2248422D01*
G01X4163791Y-2238902D01*
G01X4174528Y-2229382D01*
G01X4178947Y-2225514D01*
G01X4183365Y-2221646D01*
G01X4183905Y-2215340D01*
G01X4184445Y-2209033D01*
G01X4180312Y-2206105D01*
G01X3786758Y-2206105D01*
G01X3784046Y-2208733D01*
G01X3784046Y-2253115D01*
G01X3786232Y-2254248D01*
G01X3788418Y-2255382D01*
G01X4069985Y-2255382D01*
G01X4069985Y-2258632D01*
G01X4063769Y-2265012D01*
G01X4056423Y-2271327D01*
G01X4049076Y-2277641D01*
G01X4036079Y-2289326D01*
G01X4023082Y-2301012D01*
G01X4001043Y-2320561D01*
G01X3979004Y-2340109D01*
G01X3966076Y-2351677D01*
G01X3953148Y-2363244D01*
G01X3949513Y-2366529D01*
G01X3925991Y-2387335D01*
G01X3922394Y-2390620D01*
G01X3898918Y-2411426D01*
G01X3895264Y-2414711D01*
G01X3871742Y-2435517D01*
G01X3869917Y-2437159D01*
G01X3868093Y-2438802D01*
G01X3854607Y-2450935D01*
G01X3841120Y-2463067D01*
G01X3826993Y-2475504D01*
G01X3812866Y-2487941D01*
G01X3798456Y-2501044D01*
G01X3784046Y-2514147D01*
G01X3784063Y-2519729D01*
G01X3784080Y-2525311D01*
G01X3785152Y-2526953D01*
G01X3786223Y-2528596D01*
G01X4166416Y-2529168D01*
G01X4167830Y-2530305D01*
G01X4169243Y-2531442D01*
G01X4170608Y-2537136D01*
G01X4171972Y-2542831D01*
G01X4178656Y-2558162D01*
G01X4181645Y-2564732D01*
G01X4182396Y-2577325D01*
G01X4183147Y-2589918D01*
G01X4184941Y-2599226D01*
G01X4186736Y-2608534D01*
G01X4188975Y-2612881D01*
G01X4191215Y-2617227D01*
G01X4193436Y-2620138D01*
G01X4195656Y-2623048D01*
G01X4196696Y-2632050D01*
G01X4197735Y-2641052D01*
G01X4200619Y-2646959D01*
G01X4203504Y-2652866D01*
G01X4211693Y-2659350D01*
G01X4219883Y-2665834D01*
G01X4225523Y-2673142D01*
G01X4231001Y-2682450D01*
G01X4236478Y-2691757D01*
G01X4239402Y-2695590D01*
G01X4242327Y-2699423D01*
G01X4243521Y-2700518D01*
G01X4254113Y-2714495D01*
G01X4254968Y-2719552D01*
G01X4255823Y-2724609D01*
G01X4255862Y-2735559D01*
G01X4255902Y-2746510D01*
G01X4255010Y-2750581D01*
G01X4254118Y-2754652D01*
G01X4252713Y-2756056D01*
G01X4251309Y-2757460D01*
G01X4242455Y-2766676D01*
G01X4233602Y-2775891D01*
G01X4231477Y-2779269D01*
G01X4229351Y-2782646D01*
G01X4229347Y-2787029D01*
G01X4229342Y-2791411D01*
G01X4234218Y-2814403D01*
G01X4234710Y-2821411D01*
G01X4235201Y-2828419D01*
G01X4232792Y-2835816D01*
G01X4230382Y-2843214D01*
G01X4227072Y-2847641D01*
G01X4223762Y-2852068D01*
G01X4221724Y-2853125D01*
G01X4219687Y-2854181D01*
G01X4211800Y-2851539D01*
G01X4203913Y-2848897D01*
G01X4191481Y-2842751D01*
G01X4179049Y-2836606D01*
G01X4157575Y-2824042D01*
G01X4143803Y-2816157D01*
G01X4130031Y-2808272D01*
G01X4122907Y-2805567D01*
G01X4115783Y-2802862D01*
G01X4109554Y-2802215D01*
G01X4103326Y-2801568D01*
G01X4095511Y-2797153D01*
G01X4087696Y-2792737D01*
G01X4083889Y-2791905D01*
G01X4080082Y-2791073D01*
G01X4067812Y-2793837D01*
G01X4061508Y-2797713D01*
G01X4058400Y-2800514D01*
G01X4055292Y-2803314D01*
G01X4055292Y-2811497D01*
G01X4064079Y-2827543D01*
G01X4064965Y-2840136D01*
G01X4065851Y-2852729D01*
G01X4065775Y-2864775D01*
G01X4064465Y-2867512D01*
G01X4063155Y-2870250D01*
G01X4056378Y-2879010D01*
G01X4054140Y-2883073D01*
G01X4051902Y-2887136D01*
G01X4051902Y-2891475D01*
G01X4065347Y-2901500D01*
G01X4069221Y-2906133D01*
G01X4073094Y-2910767D01*
G01X4075149Y-2914599D01*
G01X4077205Y-2918432D01*
G01X4077100Y-2926097D01*
G01X4076995Y-2933763D01*
G01X4074595Y-2940333D01*
G01X4072195Y-2946903D01*
G01X4058118Y-2960044D01*
G01X4055627Y-2964424D01*
G01X4053136Y-2968804D01*
G01X4048750Y-2976469D01*
G01X4044550Y-2980783D01*
G01X4040349Y-2985096D01*
G01X4030585Y-2992547D01*
G01X4020821Y-2999998D01*
G01X4019691Y-3000858D01*
G01X4018561Y-3001718D01*
G01X4007259Y-3008936D01*
G01X3995957Y-3016155D01*
G37*
G36*
G01X3518501Y-2959805D02*
G01X3517834Y-2961841D01*
G01X3517167Y-2963876D01*
G01X3514700Y-2963873D01*
G01X3512234Y-2963869D01*
G01X3503757Y-2960457D01*
G01X3495281Y-2957045D01*
G01X3484544Y-2952926D01*
G01X3461940Y-2944165D01*
G01X3456572Y-2942072D01*
G01X3451203Y-2939979D01*
G01X3445771Y-2937882D01*
G01X3440338Y-2935785D01*
G01X3438074Y-2933907D01*
G01X3435809Y-2932028D01*
G01X3436160Y-2928515D01*
G01X3436511Y-2925002D01*
G01X3439406Y-2925180D01*
G01X3442302Y-2925358D01*
G01X3449688Y-2928739D01*
G01X3457073Y-2932120D01*
G01X3459200Y-2932120D01*
G01X3478242Y-2924455D01*
G01X3479415Y-2924448D01*
G01X3480588Y-2924441D01*
G01X3483587Y-2922925D01*
G01X3486586Y-2921409D01*
G01X3490933Y-2920052D01*
G01X3495281Y-2918694D01*
G01X3497541Y-2917159D01*
G01X3506320Y-2914119D01*
G01X3515099Y-2911078D01*
G01X3516774Y-2912425D01*
G01X3518450Y-2913772D01*
G01X3518414Y-2916102D01*
G01X3518378Y-2918432D01*
G01X3516800Y-2920449D01*
G01X3515223Y-2922466D01*
G01X3501861Y-2927375D01*
G01X3488500Y-2932283D01*
G01X3484865Y-2933338D01*
G01X3481230Y-2934393D01*
G01X3479496Y-2936072D01*
G01X3477763Y-2937752D01*
G01X3477763Y-2940643D01*
G01X3483900Y-2942135D01*
G01X3488460Y-2944104D01*
G01X3493020Y-2946072D01*
G01X3500932Y-2949083D01*
G01X3508843Y-2952094D01*
G01X3512942Y-2954106D01*
G01X3517041Y-2956118D01*
G01X3518501Y-2959805D01*
G37*
G36*
G01X3467807Y-2896244D02*
G01X3466284Y-2897719D01*
G01X3464762Y-2899194D01*
G01X3459114Y-2896475D01*
G01X3458136Y-2889119D01*
G01X3457157Y-2881763D01*
G01X3457904Y-2875972D01*
G01X3458650Y-2870181D01*
G01X3467556Y-2860086D01*
G01X3472377Y-2857603D01*
G01X3477198Y-2855121D01*
G01X3486549Y-2854608D01*
G01X3495900Y-2854094D01*
G01X3501004Y-2855983D01*
G01X3506107Y-2857871D01*
G01X3509390Y-2860548D01*
G01X3512673Y-2863225D01*
G01X3515043Y-2866939D01*
G01X3517412Y-2870653D01*
G01X3518423Y-2875379D01*
G01X3519433Y-2880105D01*
G01X3518217Y-2894341D01*
G01X3517127Y-2896323D01*
G01X3516037Y-2898305D01*
G01X3513005Y-2897965D01*
G01X3509973Y-2897626D01*
G01X3509973Y-2877546D01*
G01X3507643Y-2874513D01*
G01X3505313Y-2871480D01*
G01X3502378Y-2869357D01*
G01X3499443Y-2867234D01*
G01X3491711Y-2866704D01*
G01X3483979Y-2866173D01*
G01X3479458Y-2867407D01*
G01X3474937Y-2868641D01*
G01X3471702Y-2871415D01*
G01X3468467Y-2874190D01*
G01X3465280Y-2884449D01*
G01X3467807Y-2896244D01*
G37*
G36*
G01X3497541Y-2833553D02*
G01X3461087Y-2833566D01*
G01X3458395Y-2830424D01*
G01X3458755Y-2826793D01*
G01X3459114Y-2823163D01*
G01X3480588Y-2822585D01*
G01X3502062Y-2822006D01*
G01X3505138Y-2820707D01*
G01X3508215Y-2819408D01*
G01X3508960Y-2816532D01*
G01X3509705Y-2813657D01*
G01X3508423Y-2809512D01*
G01X3507142Y-2805368D01*
G01X3502084Y-2800851D01*
G01X3497027Y-2796334D01*
G01X3459723Y-2796334D01*
G01X3459042Y-2793708D01*
G01X3458362Y-2791082D01*
G01X3459114Y-2785931D01*
G01X3516230Y-2785346D01*
G01X3517340Y-2788174D01*
G01X3518450Y-2791002D01*
G01X3517366Y-2792966D01*
G01X3516281Y-2794929D01*
G01X3513295Y-2796825D01*
G01X3510309Y-2798720D01*
G01X3513339Y-2801784D01*
G01X3516368Y-2804848D01*
G01X3517924Y-2809078D01*
G01X3519481Y-2813308D01*
G01X3519580Y-2817434D01*
G01X3516995Y-2825792D01*
G01X3513958Y-2828611D01*
G01X3510921Y-2831430D01*
G01X3504231Y-2832492D01*
G01X3497541Y-2833553D01*
G37*
G36*
G01X3467938Y-2759021D02*
G01X3465248Y-2762162D01*
G01X3462993Y-2761591D01*
G01X3460738Y-2761019D01*
G01X3459432Y-2758692D01*
G01X3458126Y-2756365D01*
G01X3458055Y-2744776D01*
G01X3457984Y-2733187D01*
G01X3461375Y-2728350D01*
G01X3464765Y-2723514D01*
G01X3468156Y-2720646D01*
G01X3480588Y-2714879D01*
G01X3495281Y-2714788D01*
G01X3507510Y-2719134D01*
G01X3516754Y-2728330D01*
G01X3519443Y-2737749D01*
G01X3518227Y-2747605D01*
G01X3517067Y-2749795D01*
G01X3515907Y-2751985D01*
G01X3513536Y-2754506D01*
G01X3511164Y-2757026D01*
G01X3506048Y-2759238D01*
G01X3500932Y-2761450D01*
G01X3488134Y-2761840D01*
G01X3487187Y-2760930D01*
G01X3486239Y-2760019D01*
G01X3485897Y-2745407D01*
G01X3494611Y-2745407D01*
G01X3495250Y-2747875D01*
G01X3495889Y-2750342D01*
G01X3502521Y-2750342D01*
G01X3508155Y-2747855D01*
G01X3509912Y-2743601D01*
G01X3511669Y-2739348D01*
G01X3511664Y-2738549D01*
G01X3511660Y-2737749D01*
G01X3509261Y-2733936D01*
G01X3506862Y-2730123D01*
G01X3503192Y-2727356D01*
G01X3495281Y-2727894D01*
G01X3494946Y-2736651D01*
G01X3494611Y-2745407D01*
G01X3494611Y-2745407D01*
G01X3485897Y-2745407D01*
G01X3485863Y-2743956D01*
G01X3485487Y-2727894D01*
G01X3483701Y-2726092D01*
G01X3474937Y-2728382D01*
G01X3467768Y-2734731D01*
G01X3466369Y-2739256D01*
G01X3464970Y-2743782D01*
G01X3466454Y-2751401D01*
G01X3467938Y-2759021D01*
G37*
G36*
G01X3518636Y-2690220D02*
G01X3517275Y-2691810D01*
G01X3515913Y-2693400D01*
G01X3462505Y-2693356D01*
G01X3455528Y-2692378D01*
G01X3448552Y-2691400D01*
G01X3445044Y-2688887D01*
G01X3441536Y-2686375D01*
G01X3438873Y-2681948D01*
G01X3436211Y-2677522D01*
G01X3434593Y-2663834D01*
G01X3435372Y-2657338D01*
G01X3436150Y-2650841D01*
G01X3437460Y-2649235D01*
G01X3438771Y-2647629D01*
G01X3441245Y-2646919D01*
G01X3443719Y-2646208D01*
G01X3444881Y-2648311D01*
G01X3446042Y-2650413D01*
G01X3444883Y-2654112D01*
G01X3443725Y-2657811D01*
G01X3443687Y-2671289D01*
G01X3445440Y-2674573D01*
G01X3447193Y-2677858D01*
G01X3451166Y-2680237D01*
G01X3455139Y-2682616D01*
G01X3465148Y-2682991D01*
G01X3465807Y-2682353D01*
G01X3466466Y-2681714D01*
G01X3463093Y-2675785D01*
G01X3459721Y-2669857D01*
G01X3459701Y-2664809D01*
G01X3468498Y-2664809D01*
G01X3470411Y-2670389D01*
G01X3472324Y-2675970D01*
G01X3475635Y-2679483D01*
G01X3478945Y-2682997D01*
G01X3490089Y-2683370D01*
G01X3490089Y-2683370D01*
G01X3501233Y-2683742D01*
G01X3504796Y-2680632D01*
G01X3508358Y-2677522D01*
G01X3511393Y-2667658D01*
G01X3507508Y-2658030D01*
G01X3497576Y-2652883D01*
G01X3479418Y-2652883D01*
G01X3475367Y-2655550D01*
G01X3471316Y-2658217D01*
G01X3469907Y-2661513D01*
G01X3468498Y-2664809D01*
G01X3459701Y-2664809D01*
G01X3459680Y-2659050D01*
G01X3461980Y-2654446D01*
G01X3464280Y-2649843D01*
G01X3468507Y-2647005D01*
G01X3472734Y-2644166D01*
G01X3478356Y-2642514D01*
G01X3483979Y-2640861D01*
G01X3487934Y-2640863D01*
G01X3491890Y-2640864D01*
G01X3497795Y-2642387D01*
G01X3503700Y-2643910D01*
G01X3507402Y-2646155D01*
G01X3511103Y-2648399D01*
G01X3514218Y-2652234D01*
G01X3517333Y-2656068D01*
G01X3518367Y-2660225D01*
G01X3519402Y-2664381D01*
G01X3518795Y-2668761D01*
G01X3518189Y-2673142D01*
G01X3516065Y-2677442D01*
G01X3513941Y-2681742D01*
G01X3515496Y-2683465D01*
G01X3517052Y-2685187D01*
G01X3518636Y-2690220D01*
G37*
G36*
G01X3517177Y-2626676D02*
G01X3514773Y-2627923D01*
G01X3512251Y-2626809D01*
G01X3509728Y-2625695D01*
G01X3509017Y-2621386D01*
G01X3508306Y-2617076D01*
G01X3503659Y-2611353D01*
G01X3500035Y-2608849D01*
G01X3496411Y-2606344D01*
G01X3459114Y-2605249D01*
G01X3459114Y-2596488D01*
G01X3487229Y-2596195D01*
G01X3515344Y-2595902D01*
G01X3516954Y-2597197D01*
G01X3518564Y-2598491D01*
G01X3518224Y-2601297D01*
G01X3517885Y-2604103D01*
G01X3512234Y-2606833D01*
G01X3512598Y-2609326D01*
G01X3512963Y-2611819D01*
G01X3514859Y-2613231D01*
G01X3516754Y-2614643D01*
G01X3518081Y-2618159D01*
G01X3519408Y-2621675D01*
G01X3519580Y-2625430D01*
G01X3517177Y-2626676D01*
G37*
G36*
G01X3510030Y-2568651D02*
G01X3494919Y-2573098D01*
G01X3491189Y-2572748D01*
G01X3487458Y-2572397D01*
G01X3485899Y-2566922D01*
G01X3485671Y-2542839D01*
G01X3494611Y-2542839D01*
G01X3494946Y-2551595D01*
G01X3495281Y-2560352D01*
G01X3498525Y-2560711D01*
G01X3498525Y-2560711D01*
G01X3501770Y-2561071D01*
G01X3506942Y-2559813D01*
G01X3509305Y-2555083D01*
G01X3511669Y-2550353D01*
G01X3511644Y-2549877D01*
G01X3511619Y-2549402D01*
G01X3509555Y-2544999D01*
G01X3507491Y-2540597D01*
G01X3504441Y-2539250D01*
G01X3501390Y-2537904D01*
G01X3495889Y-2537904D01*
G01X3495250Y-2540371D01*
G01X3494611Y-2542839D01*
G01X3485671Y-2542839D01*
G01X3485639Y-2539546D01*
G01X3484651Y-2538033D01*
G01X3483662Y-2536521D01*
G01X3472981Y-2540047D01*
G01X3470327Y-2542821D01*
G01X3467673Y-2545595D01*
G01X3466306Y-2550018D01*
G01X3464939Y-2554440D01*
G01X3467800Y-2568390D01*
G01X3466308Y-2572945D01*
G01X3463070Y-2572945D01*
G01X3458804Y-2568812D01*
G01X3458001Y-2561058D01*
G01X3457197Y-2553305D01*
G01X3457985Y-2547756D01*
G01X3458772Y-2542207D01*
G01X3463200Y-2536779D01*
G01X3467628Y-2531352D01*
G01X3473223Y-2528605D01*
G01X3478818Y-2525858D01*
G01X3498424Y-2525858D01*
G01X3503478Y-2528304D01*
G01X3508533Y-2530750D01*
G01X3512404Y-2534600D01*
G01X3516274Y-2538451D01*
G01X3519509Y-2548306D01*
G01X3518227Y-2558162D01*
G01X3515913Y-2562542D01*
G01X3512971Y-2565597D01*
G01X3510030Y-2568651D01*
G37*
G36*
G01X3512897Y-2501154D02*
G01X3508656Y-2504001D01*
G01X3483885Y-2503705D01*
G01X3459114Y-2503410D01*
G01X3459114Y-2494649D01*
G01X3503192Y-2493554D01*
G01X3505659Y-2492187D01*
G01X3508125Y-2490819D01*
G01X3509623Y-2486246D01*
G01X3508920Y-2482616D01*
G01X3508217Y-2478986D01*
G01X3503859Y-2474225D01*
G01X3499501Y-2469463D01*
G01X3459114Y-2468368D01*
G01X3458362Y-2463218D01*
G01X3459042Y-2460591D01*
G01X3459723Y-2457965D01*
G01X3497105Y-2457965D01*
G01X3507341Y-2455468D01*
G01X3508516Y-2452968D01*
G01X3509692Y-2450468D01*
G01X3508083Y-2442158D01*
G01X3503243Y-2437468D01*
G01X3498404Y-2432779D01*
G01X3459723Y-2432779D01*
G01X3459042Y-2430153D01*
G01X3458362Y-2427527D01*
G01X3459114Y-2422376D01*
G01X3516230Y-2421791D01*
G01X3517340Y-2424619D01*
G01X3518450Y-2427447D01*
G01X3517294Y-2429541D01*
G01X3516138Y-2431634D01*
G01X3511669Y-2433951D01*
G01X3511669Y-2436471D01*
G01X3514025Y-2438901D01*
G01X3516382Y-2441332D01*
G01X3517931Y-2445542D01*
G01X3519481Y-2449752D01*
G01X3519481Y-2454133D01*
G01X3517961Y-2458259D01*
G01X3516441Y-2462386D01*
G01X3513629Y-2464529D01*
G01X3510816Y-2466673D01*
G01X3510243Y-2468797D01*
G01X3509669Y-2470922D01*
G01X3513378Y-2474404D01*
G01X3517087Y-2477887D01*
G01X3519837Y-2487404D01*
G01X3518487Y-2492855D01*
G01X3517138Y-2498306D01*
G01X3512897Y-2501154D01*
G37*
G36*
G01X3463918Y-2403122D02*
G01X3461375Y-2404056D01*
G01X3458549Y-2401850D01*
G01X3458549Y-2360685D01*
G01X3459921Y-2357221D01*
G01X3537211Y-2357221D01*
G01X3539923Y-2359849D01*
G01X3539889Y-2399380D01*
G01X3538897Y-2400897D01*
G01X3537906Y-2402414D01*
G01X3535094Y-2401731D01*
G01X3532282Y-2401047D01*
G01X3531597Y-2398571D01*
G01X3530913Y-2396095D01*
G01X3530897Y-2383362D01*
G01X3530882Y-2370630D01*
G01X3529217Y-2369291D01*
G01X3527551Y-2367951D01*
G01X3517308Y-2368335D01*
G01X3507064Y-2368719D01*
G01X3504922Y-2372004D01*
G01X3504905Y-2382547D01*
G01X3504887Y-2393089D01*
G01X3503159Y-2394479D01*
G01X3501430Y-2395870D01*
G01X3498638Y-2394637D01*
G01X3495846Y-2393404D01*
G01X3495846Y-2370630D01*
G01X3494270Y-2369362D01*
G01X3492694Y-2368095D01*
G01X3468254Y-2368719D01*
G01X3466686Y-2374194D01*
G01X3466461Y-2402188D01*
G01X3463918Y-2403122D01*
G37*
G36*
G01X3518227Y-2296842D02*
G01X3516633Y-2297435D01*
G01X3515039Y-2298027D01*
G01X3512364Y-2297042D01*
G01X3509689Y-2296056D01*
G01X3508881Y-2290776D01*
G01X3508072Y-2285495D01*
G01X3497792Y-2276188D01*
G01X3462125Y-2276188D01*
G01X3458549Y-2274858D01*
G01X3458549Y-2267865D01*
G01X3461262Y-2265237D01*
G01X3514709Y-2265237D01*
G01X3516634Y-2267298D01*
G01X3518559Y-2269360D01*
G01X3517817Y-2272226D01*
G01X3517075Y-2275093D01*
G01X3515491Y-2275093D01*
G01X3511303Y-2278060D01*
G01X3514256Y-2281810D01*
G01X3517208Y-2285561D01*
G01X3519437Y-2290971D01*
G01X3519493Y-2291518D01*
G01X3519549Y-2292066D01*
G01X3518888Y-2294454D01*
G01X3518227Y-2296842D01*
G37*
G36*
G01X3496300Y-2241652D02*
G01X3489408Y-2242418D01*
G01X3485674Y-2238800D01*
G01X3485674Y-2226896D01*
G01X3494628Y-2226896D01*
G01X3495842Y-2229093D01*
G01X3497056Y-2231291D01*
G01X3497056Y-2231291D01*
G01X3501314Y-2231291D01*
G01X3508100Y-2227517D01*
G01X3509884Y-2223892D01*
G01X3511669Y-2220266D01*
G01X3511624Y-2219482D01*
G01X3511580Y-2218698D01*
G01X3510053Y-2215299D01*
G01X3508526Y-2211900D01*
G01X3505014Y-2209477D01*
G01X3501501Y-2207054D01*
G01X3498391Y-2207401D01*
G01X3495281Y-2207747D01*
G01X3494954Y-2217321D01*
G01X3494628Y-2226896D01*
G01X3485674Y-2226896D01*
G01X3485674Y-2207329D01*
G01X3484457Y-2206600D01*
G01X3483240Y-2205871D01*
G01X3478294Y-2207702D01*
G01X3473347Y-2209532D01*
G01X3466572Y-2217008D01*
G01X3465825Y-2220870D01*
G01X3465077Y-2224732D01*
G01X3466480Y-2231937D01*
G01X3467883Y-2239142D01*
G01X3466322Y-2240654D01*
G01X3464762Y-2242167D01*
G01X3461950Y-2240808D01*
G01X3459138Y-2239450D01*
G01X3457247Y-2227458D01*
G01X3457844Y-2219927D01*
G01X3458442Y-2212395D01*
G01X3461496Y-2208125D01*
G01X3464551Y-2203854D01*
G01X3469055Y-2200645D01*
G01X3473559Y-2197436D01*
G01X3479893Y-2196162D01*
G01X3486228Y-2194888D01*
G01X3500535Y-2196182D01*
G01X3512234Y-2202801D01*
G01X3514373Y-2205688D01*
G01X3516513Y-2208575D01*
G01X3517971Y-2213089D01*
G01X3519429Y-2217603D01*
G01X3519477Y-2219245D01*
G01X3519525Y-2220888D01*
G01X3518356Y-2225816D01*
G01X3517188Y-2230743D01*
G01X3511103Y-2236967D01*
G01X3503192Y-2240887D01*
G01X3496300Y-2241652D01*
G37*
G36*
G01X3495281Y-2177128D02*
G01X3488500Y-2177842D01*
G01X3481201Y-2176553D01*
G01X3473903Y-2175265D01*
G01X3470515Y-2173567D01*
G01X3467128Y-2171870D01*
G01X3462904Y-2167611D01*
G01X3458681Y-2163352D01*
G01X3457908Y-2158362D01*
G01X3457136Y-2153372D01*
G01X3457849Y-2148336D01*
G01X3457849Y-2148335D01*
G01X3465331Y-2148335D01*
G01X3465331Y-2154746D01*
G01X3467099Y-2158060D01*
G01X3468868Y-2161375D01*
G01X3474728Y-2164018D01*
G01X3480588Y-2166662D01*
G01X3488604Y-2166672D01*
G01X3488604Y-2166672D01*
G01X3496620Y-2166683D01*
G01X3506583Y-2161588D01*
G01X3507979Y-2158934D01*
G01X3509375Y-2156280D01*
G01X3509391Y-2152995D01*
G01X3509406Y-2149710D01*
G01X3507020Y-2145039D01*
G01X3504634Y-2140367D01*
G01X3501783Y-2138195D01*
G01X3498932Y-2136022D01*
G01X3486369Y-2136058D01*
G01X3473807Y-2136095D01*
G01X3471351Y-2138082D01*
G01X3468895Y-2140069D01*
G01X3467113Y-2144202D01*
G01X3465331Y-2148335D01*
G01X3457849Y-2148335D01*
G01X3458561Y-2143300D01*
G01X3460250Y-2141491D01*
G01X3461940Y-2139682D01*
G01X3461940Y-2136022D01*
G01X3459624Y-2136022D01*
G01X3458454Y-2133041D01*
G01X3457285Y-2130061D01*
G01X3458458Y-2127566D01*
G01X3459631Y-2125071D01*
G01X3543202Y-2125071D01*
G01X3545506Y-2128904D01*
G01X3545540Y-2130345D01*
G01X3545574Y-2131786D01*
G01X3544404Y-2133904D01*
G01X3543234Y-2136022D01*
G01X3512932Y-2136022D01*
G01X3512219Y-2137139D01*
G01X3511507Y-2138257D01*
G01X3514383Y-2141569D01*
G01X3517260Y-2144882D01*
G01X3518544Y-2149486D01*
G01X3519829Y-2154090D01*
G01X3518578Y-2159360D01*
G01X3517327Y-2164630D01*
G01X3514407Y-2168339D01*
G01X3511487Y-2172048D01*
G01X3502062Y-2176413D01*
G01X3495281Y-2177128D01*
G37*
G36*
G01X3518460Y-2103296D02*
G01X3517232Y-2105519D01*
G01X3516004Y-2107743D01*
G01X3512988Y-2107023D01*
G01X3509973Y-2106303D01*
G01X3503192Y-2103534D01*
G01X3496411Y-2100764D01*
G01X3485109Y-2096344D01*
G01X3463635Y-2088096D01*
G01X3452333Y-2083643D01*
G01X3444700Y-2080568D01*
G01X3437067Y-2077493D01*
G01X3436404Y-2075470D01*
G01X3435741Y-2073446D01*
G01X3436458Y-2070681D01*
G01X3437174Y-2067915D01*
G01X3443292Y-2069362D01*
G01X3449362Y-2072030D01*
G01X3455432Y-2074699D01*
G01X3462052Y-2074699D01*
G01X3465383Y-2073031D01*
G01X3468713Y-2071362D01*
G01X3478041Y-2068062D01*
G01X3487369Y-2064763D01*
G01X3490931Y-2063161D01*
G01X3494492Y-2061559D01*
G01X3496069Y-2061559D01*
G01X3499631Y-2059970D01*
G01X3503192Y-2058381D01*
G01X3509018Y-2056282D01*
G01X3514844Y-2054183D01*
G01X3515912Y-2054859D01*
G01X3516981Y-2055536D01*
G01X3518271Y-2058821D01*
G01X3518419Y-2059916D01*
G01X3517074Y-2064776D01*
G01X3507873Y-2068140D01*
G01X3498671Y-2071504D01*
G01X3496411Y-2072497D01*
G01X3494151Y-2073491D01*
G01X3477316Y-2079830D01*
G01X3476631Y-2081820D01*
G01X3486239Y-2086636D01*
G01X3508843Y-2095698D01*
G01X3512406Y-2096847D01*
G01X3515968Y-2097997D01*
G01X3517214Y-2100646D01*
G01X3518460Y-2103296D01*
G37*
G36*
G01X3471133Y-2037614D02*
G01X3469789Y-2039183D01*
G01X3468444Y-2040753D01*
G01X3463421Y-2040753D01*
G01X3461655Y-2038836D01*
G01X3459890Y-2036920D01*
G01X3458730Y-2032540D01*
G01X3457571Y-2028160D01*
G01X3456821Y-2022026D01*
G01X3456071Y-2015892D01*
G01X3458879Y-1998594D01*
G01X3461502Y-1994179D01*
G01X3464125Y-1989765D01*
G01X3467271Y-1986970D01*
G01X3470416Y-1984175D01*
G01X3479112Y-1979379D01*
G01X3496411Y-1977037D01*
G01X3515624Y-1978556D01*
G01X3526937Y-1983715D01*
G01X3530968Y-1987869D01*
G01X3534999Y-1992023D01*
G01X3537135Y-1995308D01*
G01X3539271Y-1998594D01*
G01X3541940Y-2013924D01*
G01X3542007Y-2015567D01*
G01X3542074Y-2017209D01*
G01X3540636Y-2027673D01*
G01X3539198Y-2038137D01*
G01X3538364Y-2039445D01*
G01X3537530Y-2040753D01*
G01X3530811Y-2040753D01*
G01X3529532Y-2037524D01*
G01X3531481Y-2027036D01*
G01X3533430Y-2016547D01*
G01X3532149Y-2010366D01*
G01X3530868Y-2004185D01*
G01X3528332Y-2000538D01*
G01X3525796Y-1996891D01*
G01X3521223Y-1994268D01*
G01X3516649Y-1991645D01*
G01X3507660Y-1989993D01*
G01X3498671Y-1988342D01*
G01X3490962Y-1989908D01*
G01X3483253Y-1991475D01*
G01X3478381Y-1994241D01*
G01X3473509Y-1997007D01*
G01X3470596Y-2001086D01*
G01X3467683Y-2005164D01*
G01X3466365Y-2011128D01*
G01X3465048Y-2017092D01*
G01X3466431Y-2024816D01*
G01X3467815Y-2032540D01*
G01X3469474Y-2035077D01*
G01X3471133Y-2037614D01*
G37*
G36*
G01X3509248Y-1913180D02*
G01X3459114Y-1913180D01*
G01X3459114Y-1904420D01*
G01X3481718Y-1903768D01*
G01X3504322Y-1903117D01*
G01X3504561Y-1902947D01*
G01X3504799Y-1902777D01*
G01X3507104Y-1900380D01*
G01X3509408Y-1897984D01*
G01X3509408Y-1892851D01*
G01X3507882Y-1889328D01*
G01X3506356Y-1885804D01*
G01X3497607Y-1877591D01*
G01X3461262Y-1877591D01*
G01X3458549Y-1874963D01*
G01X3458549Y-1868174D01*
G01X3461262Y-1865545D01*
G01X3511521Y-1865545D01*
G01X3514324Y-1866578D01*
G01X3517126Y-1867610D01*
G01X3517882Y-1869917D01*
G01X3518637Y-1872223D01*
G01X3516822Y-1874907D01*
G01X3515007Y-1877591D01*
G01X3511802Y-1877591D01*
G01X3511047Y-1878775D01*
G01X3510291Y-1879959D01*
G01X3513330Y-1883032D01*
G01X3516368Y-1886104D01*
G01X3517982Y-1890334D01*
G01X3519596Y-1894564D01*
G01X3518701Y-1902519D01*
G01X3517162Y-1905561D01*
G01X3515624Y-1908603D01*
G01X3512436Y-1910891D01*
G01X3509248Y-1913180D01*
G37*
G36*
G01X3464809Y-1844026D02*
G01X3460811Y-1848572D01*
G01X3459115Y-1846447D01*
G01X3457419Y-1844321D01*
G01X3457419Y-1836970D01*
G01X3463070Y-1831895D01*
G01X3463070Y-1827130D01*
G01X3460527Y-1823798D01*
G01X3457984Y-1820466D01*
G01X3457984Y-1818221D01*
G01X3466205Y-1818221D01*
G01X3467549Y-1822169D01*
G01X3468894Y-1826117D01*
G01X3471319Y-1827763D01*
G01X3473745Y-1829409D01*
G01X3473745Y-1829409D01*
G01X3484092Y-1829409D01*
G01X3486804Y-1826781D01*
G01X3486496Y-1820101D01*
G01X3485978Y-1817428D01*
G01X3485460Y-1814756D01*
G01X3482608Y-1811132D01*
G01X3479755Y-1807508D01*
G01X3470128Y-1807508D01*
G01X3468805Y-1809053D01*
G01X3467482Y-1810598D01*
G01X3466205Y-1818221D01*
G01X3457984Y-1818221D01*
G01X3457984Y-1804405D01*
G01X3463194Y-1799026D01*
G01X3467663Y-1797074D01*
G01X3472131Y-1795121D01*
G01X3476661Y-1796436D01*
G01X3481191Y-1797751D01*
G01X3485115Y-1801090D01*
G01X3489039Y-1804428D01*
G01X3491312Y-1811559D01*
G01X3493585Y-1818689D01*
G01X3493585Y-1825173D01*
G01X3494755Y-1827291D01*
G01X3495925Y-1829409D01*
G01X3502480Y-1829409D01*
G01X3505206Y-1828405D01*
G01X3507931Y-1827401D01*
G01X3509936Y-1823307D01*
G01X3511941Y-1819213D01*
G01X3508278Y-1806446D01*
G01X3508278Y-1801964D01*
G01X3509982Y-1801331D01*
G01X3511686Y-1800697D01*
G01X3514365Y-1802398D01*
G01X3517044Y-1804098D01*
G01X3518167Y-1810457D01*
G01X3519290Y-1816816D01*
G01X3519435Y-1819890D01*
G01X3519580Y-1822964D01*
G01X3518343Y-1827723D01*
G01X3517106Y-1832482D01*
G01X3513758Y-1835590D01*
G01X3510410Y-1838698D01*
G01X3490921Y-1839260D01*
G01X3471432Y-1839822D01*
G01X3468120Y-1841924D01*
G01X3464809Y-1844026D01*
G37*
G36*
G01X3538228Y-1774301D02*
G01X3533271Y-1775514D01*
G01X3531427Y-1773540D01*
G01X3529582Y-1771565D01*
G01X3529949Y-1768567D01*
G01X3530317Y-1765570D01*
G01X3532207Y-1764423D01*
G01X3534097Y-1763277D01*
G01X3537010Y-1764563D01*
G01X3539923Y-1765849D01*
G01X3539906Y-1768884D01*
G01X3539889Y-1771919D01*
G01X3538228Y-1774301D01*
G37*
G36*
G01X3517037Y-1772825D02*
G01X3515624Y-1774696D01*
G01X3459114Y-1774109D01*
G01X3458755Y-1770479D01*
G01X3458395Y-1766848D01*
G01X3461087Y-1763706D01*
G01X3514494Y-1763740D01*
G01X3515737Y-1764544D01*
G01X3516981Y-1765349D01*
G01X3518271Y-1768634D01*
G01X3518361Y-1769793D01*
G01X3518450Y-1770953D01*
G01X3517037Y-1772825D01*
G37*
G36*
G01X3545574Y-1736253D02*
G01X3543388Y-1737387D01*
G01X3541202Y-1738520D01*
G01X3461262Y-1738520D01*
G01X3458549Y-1735892D01*
G01X3458549Y-1730198D01*
G01X3461262Y-1727570D01*
G01X3541202Y-1727570D01*
G01X3543388Y-1728703D01*
G01X3545574Y-1729837D01*
G01X3545574Y-1736253D01*
G37*
G36*
G01X3497541Y-1706045D02*
G01X3478328Y-1706060D01*
G01X3472509Y-1703164D01*
G01X3466690Y-1700269D01*
G01X3463157Y-1696125D01*
G01X3459624Y-1691981D01*
G01X3458390Y-1687601D01*
G01X3457157Y-1683220D01*
G01X3457551Y-1678083D01*
G01X3464323Y-1678083D01*
G01X3465508Y-1682243D01*
G01X3466694Y-1686403D01*
G01X3473928Y-1693412D01*
G01X3473928Y-1693412D01*
G01X3480490Y-1694206D01*
G01X3487052Y-1695001D01*
G01X3493883Y-1694401D01*
G01X3500713Y-1693801D01*
G01X3506583Y-1689562D01*
G01X3508426Y-1686391D01*
G01X3510269Y-1683220D01*
G01X3510851Y-1680483D01*
G01X3511434Y-1677745D01*
G01X3508216Y-1668805D01*
G01X3504769Y-1666336D01*
G01X3501323Y-1663867D01*
G01X3494629Y-1662950D01*
G01X3487934Y-1662033D01*
G01X3481159Y-1662961D01*
G01X3474384Y-1663889D01*
G01X3471270Y-1666262D01*
G01X3468156Y-1668634D01*
G01X3466239Y-1673359D01*
G01X3464323Y-1678083D01*
G01X3457551Y-1678083D01*
G01X3457773Y-1675188D01*
G01X3458390Y-1667156D01*
G01X3461012Y-1663373D01*
G01X3463635Y-1659589D01*
G01X3473316Y-1653308D01*
G01X3479064Y-1651972D01*
G01X3484812Y-1650636D01*
G01X3491629Y-1651235D01*
G01X3498447Y-1651834D01*
G01X3504629Y-1654934D01*
G01X3510812Y-1658034D01*
G01X3514080Y-1662438D01*
G01X3517349Y-1666842D01*
G01X3518341Y-1671746D01*
G01X3519332Y-1676650D01*
G01X3519438Y-1678293D01*
G01X3519545Y-1679935D01*
G01X3518075Y-1685984D01*
G01X3516605Y-1692033D01*
G01X3514419Y-1694605D01*
G01X3512234Y-1697177D01*
G01X3507713Y-1701423D01*
G01X3502627Y-1703734D01*
G01X3497541Y-1706045D01*
G37*
G36*
G01X3518578Y-1626374D02*
G01X3516268Y-1628399D01*
G01X3513959Y-1630424D01*
G01X3485406Y-1629840D01*
G01X3456854Y-1629257D01*
G01X3451768Y-1627966D01*
G01X3446682Y-1626675D01*
G01X3444343Y-1624818D01*
G01X3442004Y-1622962D01*
G01X3438760Y-1617598D01*
G01X3435516Y-1612235D01*
G01X3435458Y-1601188D01*
G01X3435399Y-1590141D01*
G01X3436255Y-1587147D01*
G01X3437110Y-1584152D01*
G01X3442918Y-1582740D01*
G01X3444468Y-1584250D01*
G01X3446017Y-1585761D01*
G01X3444964Y-1590141D01*
G01X3443911Y-1594522D01*
G01X3443884Y-1600853D01*
G01X3443857Y-1607185D01*
G01X3446997Y-1614467D01*
G01X3457003Y-1619160D01*
G01X3464765Y-1619127D01*
G01X3468156Y-1616930D01*
G01X3466182Y-1615803D01*
G01X3464207Y-1614675D01*
G01X3461944Y-1609860D01*
G01X3459680Y-1605045D01*
G01X3459701Y-1601008D01*
G01X3468416Y-1601008D01*
G01X3470393Y-1606643D01*
G01X3472370Y-1612279D01*
G01X3472370Y-1612279D01*
G01X3475689Y-1615719D01*
G01X3479008Y-1619160D01*
G01X3503363Y-1619160D01*
G01X3505638Y-1616696D01*
G01X3507912Y-1614232D01*
G01X3510326Y-1607662D01*
G01X3511321Y-1604377D01*
G01X3509720Y-1598774D01*
G01X3508337Y-1596270D01*
G01X3506954Y-1593767D01*
G01X3500704Y-1590995D01*
G01X3494455Y-1588223D01*
G01X3486789Y-1588754D01*
G01X3479124Y-1589285D01*
G01X3475601Y-1591716D01*
G01X3472078Y-1594147D01*
G01X3470247Y-1597577D01*
G01X3468416Y-1601008D01*
G01X3459701Y-1601008D01*
G01X3459704Y-1600331D01*
G01X3459729Y-1595617D01*
G01X3461816Y-1591237D01*
G01X3463902Y-1586856D01*
G01X3466610Y-1584445D01*
G01X3469317Y-1582033D01*
G01X3473257Y-1580445D01*
G01X3477198Y-1578857D01*
G01X3489894Y-1577333D01*
G01X3503192Y-1579999D01*
G01X3507148Y-1582224D01*
G01X3511103Y-1584448D01*
G01X3513860Y-1587718D01*
G01X3516617Y-1590988D01*
G01X3518058Y-1596040D01*
G01X3519498Y-1601092D01*
G01X3518316Y-1608757D01*
G01X3516152Y-1613083D01*
G01X3513989Y-1617409D01*
G01X3515566Y-1619106D01*
G01X3517143Y-1620803D01*
G01X3517861Y-1623588D01*
G01X3518578Y-1626374D01*
G37*
G36*
G01X3514282Y-1551815D02*
G01X3509867Y-1554273D01*
G01X3505452Y-1556731D01*
G01X3482283Y-1556463D01*
G01X3459114Y-1556195D01*
G01X3458362Y-1551045D01*
G01X3459042Y-1548418D01*
G01X3459723Y-1545792D01*
G01X3497541Y-1545768D01*
G01X3501859Y-1545077D01*
G01X3506176Y-1544386D01*
G01X3509619Y-1539294D01*
G01X3508030Y-1529914D01*
G01X3502507Y-1524712D01*
G01X3496983Y-1519511D01*
G01X3461262Y-1519511D01*
G01X3458549Y-1516883D01*
G01X3458549Y-1511189D01*
G01X3461262Y-1508561D01*
G01X3514898Y-1508561D01*
G01X3516734Y-1510340D01*
G01X3518570Y-1512119D01*
G01X3518227Y-1514409D01*
G01X3517885Y-1516700D01*
G01X3511103Y-1520059D01*
G01X3510729Y-1520239D01*
G01X3510355Y-1520418D01*
G01X3511718Y-1522976D01*
G01X3513081Y-1525534D01*
G01X3515108Y-1527724D01*
G01X3517135Y-1529914D01*
G01X3519475Y-1537579D01*
G01X3518387Y-1546340D01*
G01X3514282Y-1551815D01*
G37*
G36*
G01X3487870Y-1487013D02*
G01X3478199Y-1487025D01*
G01X3472087Y-1483831D01*
G01X3465976Y-1480637D01*
G01X3462347Y-1476005D01*
G01X3458718Y-1471372D01*
G01X3457938Y-1465328D01*
G01X3457159Y-1459284D01*
G01X3457176Y-1459152D01*
G01X3464291Y-1459152D01*
G01X3467805Y-1469143D01*
G01X3470671Y-1471327D01*
G01X3473537Y-1473512D01*
G01X3473537Y-1473512D01*
G01X3478193Y-1474731D01*
G01X3482849Y-1475950D01*
G01X3500465Y-1474971D01*
G01X3506583Y-1470553D01*
G01X3508426Y-1467382D01*
G01X3510269Y-1464211D01*
G01X3510851Y-1461474D01*
G01X3511434Y-1458736D01*
G01X3508216Y-1449796D01*
G01X3504816Y-1447360D01*
G01X3501416Y-1444925D01*
G01X3494675Y-1443774D01*
G01X3487934Y-1442624D01*
G01X3481111Y-1443788D01*
G01X3474288Y-1444953D01*
G01X3471222Y-1447289D01*
G01X3468156Y-1449625D01*
G01X3466224Y-1454389D01*
G01X3464291Y-1459152D01*
G01X3457176Y-1459152D01*
G01X3457919Y-1453388D01*
G01X3458679Y-1447493D01*
G01X3461264Y-1444098D01*
G01X3463850Y-1440703D01*
G01X3466734Y-1438505D01*
G01X3469617Y-1436307D01*
G01X3480210Y-1431907D01*
G01X3495800Y-1431907D01*
G01X3500626Y-1433753D01*
G01X3505452Y-1435599D01*
G01X3508547Y-1437782D01*
G01X3511642Y-1439966D01*
G01X3517375Y-1447981D01*
G01X3518354Y-1452811D01*
G01X3519332Y-1457641D01*
G01X3519456Y-1458956D01*
G01X3519580Y-1460271D01*
G01X3518318Y-1466074D01*
G01X3517056Y-1471877D01*
G01X3513130Y-1476562D01*
G01X3509203Y-1481248D01*
G01X3497541Y-1487002D01*
G01X3487870Y-1487013D01*
G37*
G36*
G01X3539358Y-1403436D02*
G01X3539358Y-1409459D01*
G01X3459114Y-1409459D01*
G01X3459114Y-1400699D01*
G01X3514876Y-1399604D01*
G01X3515721Y-1398782D01*
G01X3516566Y-1397961D01*
G01X3516095Y-1397620D01*
G01X3515624Y-1397280D01*
G01X3510538Y-1395308D01*
G01X3505452Y-1393336D01*
G01X3496411Y-1390198D01*
G01X3492850Y-1388604D01*
G01X3489288Y-1387010D01*
G01X3487413Y-1387010D01*
G01X3481175Y-1384689D01*
G01X3474937Y-1382367D01*
G01X3469538Y-1380107D01*
G01X3464139Y-1377848D01*
G01X3463442Y-1375158D01*
G01X3462745Y-1372467D01*
G01X3463779Y-1369620D01*
G01X3464813Y-1366772D01*
G01X3486239Y-1359391D01*
G01X3488500Y-1358447D01*
G01X3490760Y-1357503D01*
G01X3500932Y-1354000D01*
G01X3511103Y-1350855D01*
G01X3514183Y-1349753D01*
G01X3512788Y-1348123D01*
G01X3511392Y-1346494D01*
G01X3461262Y-1346494D01*
G01X3458549Y-1343866D01*
G01X3458549Y-1338171D01*
G01X3461262Y-1335543D01*
G01X3536371Y-1335543D01*
G01X3538147Y-1337264D01*
G01X3539923Y-1338985D01*
G01X3539923Y-1350830D01*
G01X3531447Y-1355002D01*
G01X3507713Y-1363140D01*
G01X3497541Y-1366202D01*
G01X3495281Y-1367311D01*
G01X3493020Y-1368419D01*
G01X3482849Y-1371229D01*
G01X3482849Y-1376384D01*
G01X3488500Y-1378257D01*
G01X3494151Y-1380130D01*
G01X3506583Y-1384597D01*
G01X3519015Y-1389064D01*
G01X3530804Y-1393364D01*
G01X3539358Y-1397413D01*
G01X3539358Y-1403436D01*
G37*
G04 Image End*

G04 Text Start*
G36*
G01X8599706Y-2681355D02*
G01X8585767Y-2681961D01*
G01X8572433Y-2681355D01*
G01X8565767Y-2680142D01*
G01X8556070Y-2678324D01*
G01X8550009Y-2676506D01*
G01X8545767Y-2675294D01*
G01X8541524Y-2673476D01*
G01X8536676Y-2670446D01*
G01X8532433Y-2667415D01*
G01X8529403Y-2664991D01*
G01X8526373Y-2661961D01*
G01X8523948Y-2658930D01*
G01X8522130Y-2655294D01*
G01X8520312Y-2650446D01*
G01X8519100Y-2645597D01*
G01X8518494Y-2641355D01*
G01X8518494Y-2636506D01*
G01X8518736Y-2635294D01*
G01X8536070Y-2635294D01*
G01X8537282Y-2643779D01*
G01X8540918Y-2651052D01*
G01X8544554Y-2655294D01*
G01X8548191Y-2657718D01*
G01X8553645Y-2660143D01*
G01X8558494Y-2661961D01*
G01X8564554Y-2662567D01*
G01X8564554Y-2662567D01*
G01X8569403Y-2663173D01*
G01X8582130Y-2663779D01*
G01X8597282Y-2663173D01*
G01X8604555Y-2661961D01*
G01X8612433Y-2660143D01*
G01X8617888Y-2657718D01*
G01X8622736Y-2654688D01*
G01X8627585Y-2649840D01*
G01X8630615Y-2644385D01*
G01X8632433Y-2638930D01*
G01X8633645Y-2634082D01*
G01X8634251Y-2623173D01*
G01X8634251Y-2614082D01*
G01X8630009Y-2613476D01*
G01X8623948Y-2612264D01*
G01X8615464Y-2611051D01*
G01X8604555Y-2609839D01*
G01X8591221Y-2609233D01*
G01X8577888Y-2609839D01*
G01X8569403Y-2611051D01*
G01X8563342Y-2612264D01*
G01X8556676Y-2614082D01*
G01X8551221Y-2616506D01*
G01X8546979Y-2618930D01*
G01X8543948Y-2620748D01*
G01X8540312Y-2624385D01*
G01X8537282Y-2629233D01*
G01X8536070Y-2635294D01*
G01X8518736Y-2635294D01*
G01X8519706Y-2630446D01*
G01X8521524Y-2624385D01*
G01X8523948Y-2619536D01*
G01X8526373Y-2615294D01*
G01X8530615Y-2610445D01*
G01X8535463Y-2606809D01*
G01X8538494Y-2604385D01*
G01X8542130Y-2602567D01*
G01X8550615Y-2598930D01*
G01X8555464Y-2597112D01*
G01X8561524Y-2595294D01*
G01X8566979Y-2594082D01*
G01X8575464Y-2592870D01*
G01X8591827Y-2592264D01*
G01X8608191Y-2592870D01*
G01X8620312Y-2594082D01*
G01X8628797Y-2595294D01*
G01X8632433Y-2595294D01*
G01X8633645Y-2594385D01*
G01X8633645Y-2592870D01*
G01X8632433Y-2572264D01*
G01X8631827Y-2552264D01*
G01X8631221Y-2529839D01*
G01X8630615Y-2525597D01*
G01X8613039Y-2525597D01*
G01X8593646Y-2526203D01*
G01X8590615Y-2526203D01*
G01X8573645Y-2525597D01*
G01X8556070Y-2524991D01*
G01X8548797Y-2524385D01*
G01X8540312Y-2523779D01*
G01X8535463Y-2521961D01*
G01X8534100Y-2519082D01*
G01X8533645Y-2512870D01*
G01X8533645Y-2504991D01*
G01X8536676Y-2504991D01*
G01X8541524Y-2505597D01*
G01X8557282Y-2506809D01*
G01X8594858Y-2507415D01*
G01X8630615Y-2507415D01*
G01X8630615Y-2441961D01*
G01X8625161Y-2441961D01*
G01X8617888Y-2442567D01*
G01X8586979Y-2443173D01*
G01X8556070Y-2442567D01*
G01X8536676Y-2441355D01*
G01X8529403Y-2440748D01*
G01X8521524Y-2439536D01*
G01X8519706Y-2438021D01*
G01X8519100Y-2435900D01*
G01X8518494Y-2431658D01*
G01X8517888Y-2425597D01*
G01X8517888Y-2421355D01*
G01X8521524Y-2421355D01*
G01X8526979Y-2421961D01*
G01X8541524Y-2423173D01*
G01X8564554Y-2424385D01*
G01X8588191Y-2424991D01*
G01X8611827Y-2424385D01*
G01X8622130Y-2423779D01*
G01X8630615Y-2423779D01*
G01X8630615Y-2410446D01*
G01X8630009Y-2395294D01*
G01X8628797Y-2368627D01*
G01X8627585Y-2361355D01*
G01X8627585Y-2357264D01*
G01X8628797Y-2355900D01*
G01X8633645Y-2356506D01*
G01X8640918Y-2357718D01*
G01X8649403Y-2359536D01*
G01X8655464Y-2362567D01*
G01X8656524Y-2364385D01*
G01X8656070Y-2366203D01*
G01X8653645Y-2371052D01*
G01X8651827Y-2375900D01*
G01X8650615Y-2389233D01*
G01X8650009Y-2406809D01*
G01X8650009Y-2422567D01*
G01X8654857Y-2422567D01*
G01X8661524Y-2421961D01*
G01X8677282Y-2420749D01*
G01X8688191Y-2419536D01*
G01X8693039Y-2418930D01*
G01X8699100Y-2418324D01*
G01X8706373Y-2417112D01*
G01X8723342Y-2414688D01*
G01X8741524Y-2411052D01*
G01X8748191Y-2410446D01*
G01X8753039Y-2410446D01*
G01X8753039Y-2414082D01*
G01X8753645Y-2419536D01*
G01X8753645Y-2424991D01*
G01X8752130Y-2427870D01*
G01X8748797Y-2429233D01*
G01X8742736Y-2430445D01*
G01X8728191Y-2432870D01*
G01X8718494Y-2434082D01*
G01X8710009Y-2435294D01*
G01X8699100Y-2436506D01*
G01X8686979Y-2437718D01*
G01X8673645Y-2438930D01*
G01X8657888Y-2440142D01*
G01X8653039Y-2440748D01*
G01X8650009Y-2440748D01*
G01X8650009Y-2473476D01*
G01X8650312Y-2497870D01*
G01X8651221Y-2505597D01*
G01X8657888Y-2504991D01*
G01X8665160Y-2504385D01*
G01X8670009Y-2503779D01*
G01X8678494Y-2503173D01*
G01X8689403Y-2501961D01*
G01X8699100Y-2500749D01*
G01X8706373Y-2499536D01*
G01X8714858Y-2498324D01*
G01X8722130Y-2497112D01*
G01X8734252Y-2494688D01*
G01X8740312Y-2494082D01*
G01X8744555Y-2494082D01*
G01X8744555Y-2499536D01*
G01X8743948Y-2508021D01*
G01X8742888Y-2510597D01*
G01X8740918Y-2512264D01*
G01X8735464Y-2514082D01*
G01X8728191Y-2515294D01*
G01X8722130Y-2516506D01*
G01X8705161Y-2518930D01*
G01X8683342Y-2521355D01*
G01X8668797Y-2522567D01*
G01X8659100Y-2523173D01*
G01X8653039Y-2523779D01*
G01X8650615Y-2525597D01*
G01X8650615Y-2529839D01*
G01X8651827Y-2568627D01*
G01X8653039Y-2589233D01*
G01X8653645Y-2594688D01*
G01X8654857Y-2600142D01*
G01X8659706Y-2602567D01*
G01X8665767Y-2604385D01*
G01X8676676Y-2608021D01*
G01X8694857Y-2615294D01*
G01X8705767Y-2620142D01*
G01X8712433Y-2623173D01*
G01X8717282Y-2626203D01*
G01X8726979Y-2631052D01*
G01X8735464Y-2635900D01*
G01X8740312Y-2638930D01*
G01X8746373Y-2642567D01*
G01X8757282Y-2649840D01*
G01X8761524Y-2653476D01*
G01X8761524Y-2658324D01*
G01X8759100Y-2663173D01*
G01X8756070Y-2668021D01*
G01X8752433Y-2671052D01*
G01X8748191Y-2669233D01*
G01X8743948Y-2666203D01*
G01X8740918Y-2663779D01*
G01X8736676Y-2660749D01*
G01X8725767Y-2653476D01*
G01X8720918Y-2650446D01*
G01X8716676Y-2648021D01*
G01X8713039Y-2645597D01*
G01X8708797Y-2643173D01*
G01X8697888Y-2637112D01*
G01X8693039Y-2634688D01*
G01X8682130Y-2629839D01*
G01X8677888Y-2628021D01*
G01X8663342Y-2622567D01*
G01X8657888Y-2620748D01*
G01X8655615Y-2620900D01*
G01X8654857Y-2622567D01*
G01X8654251Y-2629233D01*
G01X8653039Y-2637718D01*
G01X8651221Y-2645597D01*
G01X8648797Y-2652264D01*
G01X8646373Y-2657112D01*
G01X8643342Y-2661961D01*
G01X8638494Y-2667415D01*
G01X8633645Y-2671052D01*
G01X8630009Y-2673476D01*
G01X8625767Y-2675294D01*
G01X8620918Y-2677112D01*
G01X8615464Y-2678930D01*
G01X8610615Y-2680142D01*
G01X8599706Y-2681355D01*
G37*
G36*
G01X9837282Y-2678324D02*
G01X9830615Y-2679536D01*
G01X9818494Y-2680749D01*
G01X9808797Y-2680142D01*
G01X9806979Y-2677112D01*
G01X9803342Y-2671658D01*
G01X9799706Y-2667415D01*
G01X9797888Y-2664385D01*
G01X9798645Y-2663021D01*
G01X9800918Y-2662567D01*
G01X9806979Y-2661961D01*
G01X9811827Y-2660749D01*
G01X9828797Y-2659536D01*
G01X9843342Y-2657112D01*
G01X9851827Y-2655900D01*
G01X9856675Y-2654688D01*
G01X9863948Y-2653476D01*
G01X9871827Y-2651658D01*
G01X9877282Y-2649840D01*
G01X9889403Y-2646203D01*
G01X9894857Y-2644385D01*
G01X9900918Y-2641961D01*
G01X9911827Y-2637112D01*
G01X9916676Y-2634688D01*
G01X9922130Y-2631658D01*
G01X9928191Y-2627415D01*
G01X9934251Y-2622567D01*
G01X9938494Y-2618930D01*
G01X9940918Y-2616506D01*
G01X9943948Y-2612264D01*
G01X9946979Y-2607415D01*
G01X9949403Y-2601961D01*
G01X9951827Y-2595900D01*
G01X9953039Y-2591051D01*
G01X9953645Y-2586809D01*
G01X9954251Y-2578930D01*
G01X9953645Y-2571051D01*
G01X9953039Y-2566809D01*
G01X9951827Y-2560142D01*
G01X9948797Y-2552870D01*
G01X9945160Y-2546809D01*
G01X9941524Y-2542567D01*
G01X9937282Y-2539536D01*
G01X9932433Y-2536506D01*
G01X9928191Y-2534082D01*
G01X9923342Y-2532264D01*
G01X9917888Y-2530446D01*
G01X9913039Y-2529233D01*
G01X9900312Y-2527415D01*
G01X9894857Y-2526809D01*
G01X9883948Y-2528021D01*
G01X9877282Y-2528627D01*
G01X9870009Y-2529839D01*
G01X9861524Y-2531658D01*
G01X9849403Y-2535294D01*
G01X9842130Y-2537718D01*
G01X9836676Y-2540142D01*
G01X9831827Y-2542567D01*
G01X9826373Y-2544991D01*
G01X9821524Y-2547415D01*
G01X9817282Y-2549839D01*
G01X9812433Y-2552870D01*
G01X9808191Y-2555900D01*
G01X9805160Y-2558324D01*
G01X9800918Y-2561355D01*
G01X9796676Y-2564991D01*
G01X9789403Y-2571051D01*
G01X9786373Y-2574082D01*
G01X9779100Y-2582567D01*
G01X9774251Y-2588627D01*
G01X9771221Y-2592264D01*
G01X9768191Y-2597112D01*
G01X9765161Y-2600748D01*
G01X9762130Y-2601354D01*
G01X9757888Y-2599536D01*
G01X9752433Y-2597718D01*
G01X9748191Y-2595900D01*
G01X9745160Y-2593476D01*
G01X9743948Y-2591051D01*
G01X9745766Y-2585597D01*
G01X9748191Y-2578930D01*
G01X9749403Y-2574082D01*
G01X9750615Y-2569839D01*
G01X9751827Y-2564991D01*
G01X9753039Y-2559536D01*
G01X9754857Y-2552870D01*
G01X9756070Y-2546809D01*
G01X9760918Y-2524991D01*
G01X9761524Y-2520143D01*
G01X9762736Y-2514688D01*
G01X9763948Y-2509840D01*
G01X9764554Y-2505597D01*
G01X9766979Y-2494688D01*
G01X9768191Y-2484991D01*
G01X9769403Y-2479536D01*
G01X9770615Y-2472870D01*
G01X9771827Y-2465597D01*
G01X9773039Y-2459536D01*
G01X9773645Y-2454082D01*
G01X9773645Y-2450445D01*
G01X9768797Y-2450445D01*
G01X9762130Y-2451051D01*
G01X9753645Y-2452264D01*
G01X9729403Y-2453476D01*
G01X9708191Y-2454082D01*
G01X9693342Y-2453476D01*
G01X9687585Y-2451658D01*
G01X9685767Y-2447415D01*
G01X9685160Y-2441355D01*
G01X9686373Y-2435294D01*
G01X9692888Y-2433930D01*
G01X9710009Y-2433476D01*
G01X9734251Y-2432870D01*
G01X9743342Y-2432264D01*
G01X9754857Y-2431658D01*
G01X9760918Y-2430445D01*
G01X9766979Y-2429839D01*
G01X9774251Y-2429233D01*
G01X9776676Y-2427567D01*
G01X9777888Y-2423779D01*
G01X9779100Y-2417112D01*
G01X9779706Y-2411052D01*
G01X9780312Y-2402567D01*
G01X9781524Y-2396506D01*
G01X9782130Y-2378324D01*
G01X9781524Y-2360142D01*
G01X9781524Y-2355900D01*
G01X9782282Y-2354233D01*
G01X9783342Y-2354082D01*
G01X9788191Y-2355294D01*
G01X9794857Y-2356506D01*
G01X9799706Y-2357718D01*
G01X9805767Y-2359536D01*
G01X9811221Y-2362567D01*
G01X9811221Y-2366809D01*
G01X9808797Y-2371052D01*
G01X9805160Y-2380749D01*
G01X9803948Y-2385597D01*
G01X9803342Y-2390446D01*
G01X9800918Y-2403779D01*
G01X9800312Y-2411052D01*
G01X9799100Y-2418930D01*
G01X9797888Y-2423779D01*
G01X9798948Y-2425597D01*
G01X9802130Y-2426203D01*
G01X9808191Y-2425597D01*
G01X9813645Y-2424385D01*
G01X9822736Y-2423173D01*
G01X9831221Y-2421961D01*
G01X9836069Y-2420749D01*
G01X9840918Y-2420142D01*
G01X9847585Y-2418930D01*
G01X9855463Y-2417112D01*
G01X9861524Y-2415900D01*
G01X9871221Y-2413476D01*
G01X9882130Y-2411052D01*
G01X9886979Y-2410446D01*
G01X9889403Y-2410900D01*
G01X9890615Y-2412264D01*
G01X9891827Y-2415900D01*
G01X9892433Y-2422567D01*
G01X9891676Y-2426809D01*
G01X9889403Y-2429839D01*
G01X9883948Y-2432264D01*
G01X9877282Y-2433476D01*
G01X9871221Y-2435294D01*
G01X9866372Y-2435900D01*
G01X9860918Y-2437112D01*
G01X9856069Y-2438324D01*
G01X9851827Y-2438930D01*
G01X9839706Y-2441355D01*
G01X9833645Y-2441961D01*
G01X9826979Y-2443173D01*
G01X9820918Y-2444385D01*
G01X9814251Y-2444991D01*
G01X9806979Y-2446203D01*
G01X9794251Y-2448021D01*
G01X9794251Y-2451658D01*
G01X9793039Y-2457718D01*
G01X9791827Y-2462567D01*
G01X9791221Y-2466809D01*
G01X9788797Y-2480142D01*
G01X9788191Y-2485597D01*
G01X9786979Y-2491658D01*
G01X9785767Y-2496506D01*
G01X9785161Y-2500749D01*
G01X9782736Y-2512870D01*
G01X9782130Y-2517718D01*
G01X9780918Y-2523173D01*
G01X9779706Y-2528021D01*
G01X9778494Y-2534688D01*
G01X9776676Y-2540749D01*
G01X9776070Y-2544991D01*
G01X9774858Y-2551052D01*
G01X9773039Y-2558930D01*
G01X9773039Y-2562112D01*
G01X9774251Y-2563173D01*
G01X9777282Y-2561355D01*
G01X9783342Y-2555294D01*
G01X9789403Y-2550445D01*
G01X9796676Y-2544385D01*
G01X9800918Y-2540749D01*
G01X9805160Y-2537718D01*
G01X9808797Y-2535900D01*
G01X9812433Y-2533476D01*
G01X9816676Y-2530446D01*
G01X9831221Y-2523173D01*
G01X9836676Y-2520749D01*
G01X9843342Y-2518324D01*
G01X9848191Y-2516506D01*
G01X9856675Y-2514082D01*
G01X9860918Y-2513476D01*
G01X9865766Y-2512264D01*
G01X9871221Y-2511052D01*
G01X9876069Y-2510446D01*
G01X9884554Y-2509233D01*
G01X9891827Y-2508627D01*
G01X9901524Y-2509233D01*
G01X9907585Y-2510446D01*
G01X9918494Y-2511658D01*
G01X9923342Y-2512870D01*
G01X9928797Y-2514688D01*
G01X9933645Y-2516506D01*
G01X9939100Y-2518930D01*
G01X9944554Y-2521961D01*
G01X9949403Y-2524991D01*
G01X9953645Y-2528021D01*
G01X9959706Y-2534082D01*
G01X9965766Y-2541355D01*
G01X9968797Y-2545597D01*
G01X9971221Y-2550445D01*
G01X9973039Y-2554688D01*
G01X9974857Y-2559536D01*
G01X9976069Y-2564991D01*
G01X9976676Y-2569839D01*
G01X9977282Y-2575294D01*
G01X9975463Y-2591658D01*
G01X9974251Y-2597112D01*
G01X9972433Y-2603779D01*
G01X9970009Y-2609839D01*
G01X9966979Y-2615900D01*
G01X9963948Y-2620748D01*
G01X9961524Y-2624385D01*
G01X9956676Y-2630446D01*
G01X9947585Y-2639536D01*
G01X9942736Y-2643173D01*
G01X9937282Y-2646809D01*
G01X9927585Y-2652870D01*
G01X9922130Y-2655294D01*
G01X9917282Y-2657718D01*
G01X9908797Y-2661355D01*
G01X9899100Y-2664991D01*
G01X9890615Y-2667415D01*
G01X9885160Y-2669233D01*
G01X9879706Y-2670446D01*
G01X9865160Y-2674082D01*
G01X9857888Y-2675294D01*
G01X9849403Y-2676506D01*
G01X9843342Y-2677718D01*
G01X9837282Y-2678324D01*
G37*
G36*
G01X8350009Y-2674082D02*
G01X8329403Y-2674688D01*
G01X8310009Y-2674082D01*
G01X8304555Y-2672870D01*
G01X8295464Y-2671658D01*
G01X8283342Y-2669233D01*
G01X8276070Y-2667415D01*
G01X8266373Y-2663779D01*
G01X8260918Y-2661355D01*
G01X8256676Y-2658930D01*
G01X8253039Y-2657112D01*
G01X8250009Y-2654688D01*
G01X8246979Y-2651658D01*
G01X8240918Y-2644385D01*
G01X8237888Y-2640143D01*
G01X8233039Y-2630446D01*
G01X8231221Y-2624385D01*
G01X8230009Y-2619536D01*
G01X8228797Y-2608627D01*
G01X8228191Y-2603779D01*
G01X8230009Y-2599536D01*
G01X8234858Y-2598324D01*
G01X8240918Y-2598930D01*
G01X8245767Y-2601961D01*
G01X8247585Y-2606809D01*
G01X8248191Y-2611051D01*
G01X8249403Y-2615900D01*
G01X8251221Y-2621961D01*
G01X8253645Y-2627415D01*
G01X8256070Y-2631658D01*
G01X8260918Y-2637718D01*
G01X8265161Y-2641355D01*
G01X8270009Y-2644385D01*
G01X8275464Y-2646809D01*
G01X8283342Y-2649233D01*
G01X8293039Y-2651052D01*
G01X8300312Y-2652264D01*
G01X8323343Y-2652870D01*
G01X8346373Y-2652264D01*
G01X8362736Y-2650446D01*
G01X8370615Y-2649840D01*
G01X8376676Y-2648627D01*
G01X8382130Y-2648021D01*
G01X8386979Y-2649233D01*
G01X8388797Y-2652264D01*
G01X8389403Y-2660143D01*
G01X8388948Y-2665142D01*
G01X8387585Y-2668021D01*
G01X8380918Y-2670446D01*
G01X8374251Y-2671658D01*
G01X8363342Y-2672870D01*
G01X8350009Y-2674082D01*
G37*
G36*
G01X8117888Y-2665597D02*
G01X8114858Y-2671052D01*
G01X8112585Y-2672567D01*
G01X8109403Y-2672264D01*
G01X8103948Y-2669839D01*
G01X8099100Y-2667415D01*
G01X8095464Y-2664385D01*
G01X8096070Y-2659536D01*
G01X8108191Y-2632264D01*
G01X8110009Y-2628021D01*
G01X8111827Y-2624385D01*
G01X8113645Y-2620142D01*
G01X8116070Y-2614688D01*
G01X8119100Y-2608021D01*
G01X8121524Y-2601354D01*
G01X8123948Y-2595294D01*
G01X8126373Y-2589839D01*
G01X8131221Y-2577718D01*
G01X8133039Y-2573476D01*
G01X8134857Y-2568627D01*
G01X8137282Y-2562567D01*
G01X8139100Y-2557718D01*
G01X8140312Y-2553476D01*
G01X8142130Y-2548627D01*
G01X8144554Y-2542567D01*
G01X8148797Y-2529839D01*
G01X8150009Y-2525597D01*
G01X8151827Y-2520749D01*
G01X8153645Y-2515294D01*
G01X8155464Y-2510446D01*
G01X8159100Y-2498324D01*
G01X8161524Y-2489839D01*
G01X8163342Y-2484385D01*
G01X8165161Y-2477718D01*
G01X8166979Y-2471657D01*
G01X8168797Y-2466203D01*
G01X8170009Y-2461354D01*
G01X8169100Y-2459536D01*
G01X8166373Y-2458930D01*
G01X8159706Y-2459536D01*
G01X8154857Y-2460748D01*
G01X8128191Y-2461961D01*
G01X8113645Y-2462567D01*
G01X8095464Y-2463173D01*
G01X8085767Y-2462567D01*
G01X8082433Y-2461203D01*
G01X8080918Y-2459536D01*
G01X8078494Y-2449839D01*
G01X8078494Y-2445597D01*
G01X8085161Y-2443779D01*
G01X8103948Y-2443173D01*
G01X8134251Y-2442567D01*
G01X8141524Y-2441355D01*
G01X8157282Y-2440142D01*
G01X8161524Y-2439536D01*
G01X8168191Y-2438930D01*
G01X8174252Y-2437718D01*
G01X8177282Y-2434688D01*
G01X8179100Y-2428021D01*
G01X8180312Y-2421961D01*
G01X8182736Y-2412264D01*
G01X8185161Y-2401355D01*
G01X8185767Y-2397112D01*
G01X8188797Y-2381961D01*
G01X8190009Y-2374688D01*
G01X8190615Y-2362567D01*
G01X8191827Y-2351658D01*
G01X8196070Y-2351658D01*
G01X8203342Y-2353476D01*
G01X8211221Y-2355900D01*
G01X8216676Y-2358324D01*
G01X8220312Y-2360749D01*
G01X8221373Y-2362264D01*
G01X8220918Y-2364385D01*
G01X8217282Y-2369839D01*
G01X8214252Y-2375900D01*
G01X8212433Y-2381355D01*
G01X8208797Y-2393476D01*
G01X8206979Y-2400143D01*
G01X8205161Y-2407415D01*
G01X8203342Y-2413476D01*
G01X8201524Y-2420749D01*
G01X8199706Y-2426809D01*
G01X8199100Y-2431052D01*
G01X8200312Y-2432870D01*
G01X8203949Y-2433476D01*
G01X8213039Y-2432264D01*
G01X8225161Y-2429233D01*
G01X8230615Y-2428021D01*
G01X8236676Y-2426203D01*
G01X8243342Y-2424385D01*
G01X8249403Y-2422567D01*
G01X8257888Y-2420142D01*
G01X8262736Y-2418324D01*
G01X8267585Y-2418930D01*
G01X8269403Y-2423173D01*
G01X8270009Y-2428021D01*
G01X8270009Y-2432870D01*
G01X8267585Y-2437112D01*
G01X8263342Y-2439536D01*
G01X8258494Y-2440748D01*
G01X8250009Y-2443173D01*
G01X8245161Y-2444385D01*
G01X8238494Y-2446203D01*
G01X8230615Y-2448021D01*
G01X8223949Y-2449839D01*
G01X8217888Y-2451051D01*
G01X8213039Y-2452264D01*
G01X8204555Y-2453476D01*
G01X8199100Y-2454688D01*
G01X8193646Y-2456506D01*
G01X8191827Y-2460142D01*
G01X8190615Y-2464385D01*
G01X8188797Y-2469233D01*
G01X8187585Y-2474082D01*
G01X8185767Y-2480142D01*
G01X8183343Y-2488021D01*
G01X8177888Y-2504385D01*
G01X8175464Y-2512870D01*
G01X8165161Y-2543779D01*
G01X8162736Y-2550445D01*
G01X8160312Y-2557718D01*
G01X8157888Y-2564385D01*
G01X8154251Y-2575294D01*
G01X8151827Y-2581355D01*
G01X8149403Y-2588021D01*
G01X8146979Y-2594082D01*
G01X8144554Y-2600748D01*
G01X8139706Y-2612870D01*
G01X8137282Y-2619536D01*
G01X8134857Y-2625597D01*
G01X8132433Y-2631052D01*
G01X8130615Y-2635900D01*
G01X8125161Y-2648627D01*
G01X8122736Y-2654082D01*
G01X8120312Y-2660143D01*
G01X8117888Y-2665597D01*
G37*
G36*
G01X9427585Y-2668021D02*
G01X9422736Y-2668627D01*
G01X9419100Y-2667415D01*
G01X9417282Y-2664991D01*
G01X9414251Y-2660749D01*
G01X9410615Y-2656506D01*
G01X9407585Y-2654082D01*
G01X9407585Y-2653021D01*
G01X9410009Y-2652264D01*
G01X9417888Y-2651052D01*
G01X9423948Y-2649840D01*
G01X9428191Y-2649233D01*
G01X9434857Y-2648021D01*
G01X9440918Y-2646203D01*
G01X9446373Y-2644991D01*
G01X9454251Y-2643173D01*
G01X9462130Y-2640749D01*
G01X9469403Y-2638324D01*
G01X9481524Y-2633476D01*
G01X9486979Y-2631052D01*
G01X9497888Y-2625597D01*
G01X9502736Y-2622567D01*
G01X9506373Y-2620142D01*
G01X9509403Y-2617718D01*
G01X9512433Y-2615900D01*
G01X9515464Y-2613476D01*
G01X9518494Y-2610445D01*
G01X9523342Y-2604385D01*
G01X9526979Y-2600142D01*
G01X9530009Y-2595294D01*
G01X9533645Y-2586809D01*
G01X9535464Y-2581961D01*
G01X9536676Y-2577112D01*
G01X9537282Y-2571658D01*
G01X9537888Y-2564991D01*
G01X9537888Y-2560142D01*
G01X9537282Y-2555900D01*
G01X9536676Y-2548021D01*
G01X9534857Y-2540142D01*
G01X9532433Y-2534688D01*
G01X9529403Y-2529233D01*
G01X9526373Y-2524991D01*
G01X9520312Y-2518930D01*
G01X9516070Y-2515900D01*
G01X9511827Y-2513476D01*
G01X9507585Y-2511658D01*
G01X9502736Y-2509840D01*
G01X9496676Y-2508021D01*
G01X9490615Y-2506809D01*
G01X9475463Y-2506203D01*
G01X9460312Y-2506809D01*
G01X9450615Y-2508021D01*
G01X9432433Y-2511658D01*
G01X9423948Y-2513476D01*
G01X9406979Y-2518324D01*
G01X9399100Y-2520749D01*
G01X9391827Y-2523173D01*
G01X9365161Y-2532870D01*
G01X9359100Y-2535294D01*
G01X9354251Y-2537112D01*
G01X9350009Y-2538930D01*
G01X9344554Y-2541355D01*
G01X9337888Y-2544385D01*
G01X9333645Y-2547415D01*
G01X9330009Y-2549233D01*
G01X9325160Y-2548627D01*
G01X9321524Y-2544991D01*
G01X9319100Y-2541355D01*
G01X9316676Y-2537112D01*
G01X9314251Y-2532264D01*
G01X9312433Y-2528021D01*
G01X9312433Y-2525597D01*
G01X9316070Y-2524991D01*
G01X9328191Y-2522567D01*
G01X9333039Y-2521355D01*
G01X9338494Y-2520143D01*
G01X9345766Y-2518324D01*
G01X9351221Y-2516506D01*
G01X9356070Y-2515294D01*
G01X9362736Y-2513476D01*
G01X9386373Y-2506203D01*
G01X9411827Y-2498930D01*
G01X9417888Y-2497112D01*
G01X9439706Y-2492264D01*
G01X9454251Y-2489839D01*
G01X9465160Y-2488627D01*
G01X9473645Y-2488021D01*
G01X9485767Y-2488627D01*
G01X9495464Y-2489839D01*
G01X9501524Y-2491052D01*
G01X9506373Y-2492264D01*
G01X9512433Y-2494082D01*
G01X9518494Y-2496506D01*
G01X9524554Y-2499536D01*
G01X9530009Y-2503173D01*
G01X9534251Y-2506203D01*
G01X9543342Y-2515294D01*
G01X9545767Y-2518324D01*
G01X9548191Y-2521961D01*
G01X9550615Y-2526203D01*
G01X9553039Y-2531052D01*
G01X9555463Y-2538324D01*
G01X9557282Y-2544385D01*
G01X9557888Y-2559536D01*
G01X9557282Y-2574688D01*
G01X9556070Y-2581355D01*
G01X9554251Y-2589839D01*
G01X9551827Y-2595900D01*
G01X9549403Y-2601354D01*
G01X9546373Y-2607415D01*
G01X9543342Y-2611657D01*
G01X9540918Y-2615294D01*
G01X9537888Y-2618930D01*
G01X9530615Y-2626203D01*
G01X9520918Y-2633476D01*
G01X9515464Y-2637112D01*
G01X9510615Y-2640143D01*
G01X9505161Y-2643173D01*
G01X9495464Y-2648021D01*
G01X9483342Y-2652870D01*
G01X9476676Y-2655294D01*
G01X9470615Y-2657718D01*
G01X9464554Y-2659536D01*
G01X9457282Y-2661355D01*
G01X9451827Y-2663173D01*
G01X9440918Y-2665597D01*
G01X9427585Y-2668021D01*
G37*
G36*
G01X9079706Y-2668021D02*
G01X9045160Y-2668627D01*
G01X9010615Y-2668021D01*
G01X9006979Y-2666809D01*
G01X8993645Y-2665597D01*
G01X8982736Y-2663173D01*
G01X8978494Y-2662567D01*
G01X8973645Y-2661355D01*
G01X8961524Y-2657718D01*
G01X8956676Y-2655900D01*
G01X8951221Y-2653476D01*
G01X8945766Y-2650446D01*
G01X8940918Y-2647415D01*
G01X8936676Y-2644385D01*
G01X8926373Y-2634082D01*
G01X8922736Y-2628627D01*
G01X8919706Y-2623173D01*
G01X8916676Y-2615900D01*
G01X8914857Y-2609839D01*
G01X8914251Y-2597718D01*
G01X8914857Y-2585597D01*
G01X8917282Y-2575900D01*
G01X8919100Y-2571051D01*
G01X8921524Y-2565597D01*
G01X8923948Y-2560748D01*
G01X8926373Y-2557112D01*
G01X8928797Y-2554082D01*
G01X8930160Y-2552870D01*
G01X8931827Y-2552870D01*
G01X8935463Y-2554688D01*
G01X8940312Y-2557718D01*
G01X8942433Y-2559688D01*
G01X8942736Y-2561961D01*
G01X8940918Y-2566203D01*
G01X8938494Y-2570445D01*
G01X8936070Y-2575900D01*
G01X8934251Y-2580748D01*
G01X8933645Y-2590445D01*
G01X8934251Y-2603779D01*
G01X8936070Y-2610445D01*
G01X8937888Y-2614688D01*
G01X8940312Y-2618930D01*
G01X8947585Y-2627415D01*
G01X8957282Y-2633476D01*
G01X8970009Y-2638930D01*
G01X8974252Y-2640143D01*
G01X8983949Y-2642567D01*
G01X8996070Y-2644991D01*
G01X9010615Y-2646203D01*
G01X9030009Y-2646809D01*
G01X9049403Y-2646203D01*
G01X9083342Y-2644991D01*
G01X9094251Y-2643779D01*
G01X9098494Y-2643173D01*
G01X9106373Y-2642567D01*
G01X9116070Y-2641355D01*
G01X9122130Y-2640143D01*
G01X9133039Y-2638930D01*
G01X9143948Y-2636506D01*
G01X9150615Y-2635900D01*
G01X9154554Y-2636355D01*
G01X9156676Y-2637718D01*
G01X9158494Y-2641355D01*
G01X9159100Y-2649840D01*
G01X9159100Y-2656506D01*
G01X9154857Y-2657718D01*
G01X9148797Y-2659536D01*
G01X9140312Y-2660749D01*
G01X9134251Y-2661961D01*
G01X9124555Y-2663173D01*
G01X9113645Y-2664385D01*
G01X9106373Y-2665597D01*
G01X9088191Y-2666809D01*
G01X9079706Y-2668021D01*
G37*
G36*
G01X8262736Y-2512870D02*
G01X8257888Y-2512870D01*
G01X8257282Y-2506203D01*
G01X8257888Y-2497112D01*
G01X8259251Y-2494536D01*
G01X8262130Y-2492870D01*
G01X8267585Y-2491052D01*
G01X8273645Y-2489839D01*
G01X8280918Y-2488627D01*
G01X8285767Y-2487415D01*
G01X8299100Y-2486203D01*
G01X8308797Y-2484991D01*
G01X8323949Y-2484385D01*
G01X8339100Y-2484991D01*
G01X8353645Y-2486203D01*
G01X8374251Y-2487415D01*
G01X8379100Y-2488627D01*
G01X8383948Y-2491052D01*
G01X8385312Y-2493627D01*
G01X8385767Y-2497718D01*
G01X8384554Y-2505597D01*
G01X8382433Y-2507870D01*
G01X8378494Y-2508627D01*
G01X8371827Y-2508021D01*
G01X8346373Y-2506809D01*
G01X8325767Y-2505597D01*
G01X8322736Y-2505597D01*
G01X8314858Y-2506203D01*
G01X8306373Y-2506809D01*
G01X8290615Y-2508021D01*
G01X8280918Y-2509233D01*
G01X8262736Y-2512870D01*
G37*
G36*
G01X9023342Y-2476506D02*
G01X9017888Y-2478324D01*
G01X9013645Y-2477112D01*
G01X9010009Y-2474688D01*
G01X9005767Y-2472264D01*
G01X9004706Y-2471051D01*
G01X9005161Y-2469839D01*
G01X9009403Y-2466809D01*
G01X9014858Y-2463173D01*
G01X9029403Y-2454082D01*
G01X9033039Y-2451658D01*
G01X9037282Y-2449233D01*
G01X9048191Y-2443173D01*
G01X9053039Y-2440748D01*
G01X9061524Y-2435900D01*
G01X9066373Y-2433476D01*
G01X9070009Y-2431052D01*
G01X9061373Y-2430142D01*
G01X9034251Y-2429839D01*
G01X8992433Y-2429233D01*
G01X8985161Y-2428021D01*
G01X8980918Y-2427415D01*
G01X8973039Y-2426809D01*
G01X8965767Y-2425597D01*
G01X8953039Y-2423779D01*
G01X8947585Y-2423173D01*
G01X8942736Y-2420749D01*
G01X8941373Y-2417567D01*
G01X8940918Y-2411658D01*
G01X8941373Y-2406052D01*
G01X8942736Y-2403779D01*
G01X8946373Y-2403779D01*
G01X8959706Y-2406203D01*
G01X8965161Y-2406809D01*
G01X8971827Y-2407415D01*
G01X8976676Y-2408627D01*
G01X8992433Y-2409839D01*
G01X9023948Y-2411052D01*
G01X9033039Y-2411658D01*
G01X9042130Y-2411052D01*
G01X9086979Y-2409839D01*
G01X9107585Y-2408627D01*
G01X9116070Y-2407415D01*
G01X9122130Y-2406809D01*
G01X9125918Y-2407415D01*
G01X9128797Y-2409233D01*
G01X9131827Y-2415294D01*
G01X9131827Y-2421961D01*
G01X9130009Y-2426203D01*
G01X9126979Y-2428627D01*
G01X9122736Y-2429839D01*
G01X9118494Y-2430445D01*
G01X9113645Y-2431658D01*
G01X9108191Y-2433476D01*
G01X9103342Y-2435294D01*
G01X9097888Y-2437112D01*
G01X9091827Y-2439536D01*
G01X9080918Y-2444385D01*
G01X9062736Y-2453476D01*
G01X9058494Y-2455900D01*
G01X9053039Y-2458930D01*
G01X9044554Y-2463779D01*
G01X9039706Y-2466203D01*
G01X9034857Y-2469233D01*
G01X9028797Y-2472870D01*
G01X9023342Y-2476506D01*
G37*
G36*
G01X9180312Y-2419536D02*
G01X9177585Y-2420446D01*
G01X9175463Y-2419536D01*
G01X9172433Y-2414688D01*
G01X9169403Y-2410446D01*
G01X9164554Y-2403173D01*
G01X9152433Y-2388627D01*
G01X9143342Y-2379537D01*
G01X9131221Y-2369839D01*
G01X9130767Y-2368173D01*
G01X9131827Y-2366809D01*
G01X9136070Y-2363779D01*
G01X9140918Y-2360749D01*
G01X9143342Y-2360294D01*
G01X9145767Y-2361355D01*
G01X9150009Y-2364385D01*
G01X9156070Y-2369233D01*
G01X9159706Y-2372264D01*
G01X9163948Y-2376506D01*
G01X9167585Y-2380749D01*
G01X9174857Y-2388021D01*
G01X9185766Y-2402567D01*
G01X9188797Y-2406809D01*
G01X9190009Y-2411052D01*
G01X9187585Y-2414082D01*
G01X9184554Y-2416506D01*
G01X9180312Y-2419536D01*
G37*
G36*
G01X9218494Y-2388627D02*
G01X9214857Y-2391658D01*
G01X9211827Y-2394082D01*
G01X9210009Y-2393930D01*
G01X9208191Y-2392264D01*
G01X9204554Y-2387415D01*
G01X9201524Y-2383173D01*
G01X9199100Y-2380143D01*
G01X9196676Y-2376506D01*
G01X9187585Y-2365597D01*
G01X9178494Y-2356506D01*
G01X9171221Y-2350445D01*
G01X9166979Y-2346203D01*
G01X9165009Y-2344082D01*
G01X9165160Y-2342567D01*
G01X9169403Y-2338930D01*
G01X9174857Y-2335900D01*
G01X9178494Y-2336506D01*
G01X9182736Y-2340142D01*
G01X9187585Y-2343779D01*
G01X9194857Y-2349839D01*
G01X9210009Y-2364991D01*
G01X9212433Y-2368021D01*
G01X9214857Y-2371658D01*
G01X9217888Y-2375294D01*
G01X9221524Y-2379537D01*
G01X9222585Y-2382415D01*
G01X9222130Y-2384991D01*
G01X9218494Y-2388627D01*
G37*
G54D10*
G01X4891096Y-4413300D02*
G01X4826072Y-4413300D01*
G01X4891096Y-4413300D02*
G01X4891096Y-4441240D01*
G01X4888048Y-4450384D01*
G01X4885000Y-4453432D01*
G01X4878650Y-4456734D01*
G01X4872554Y-4456734D01*
G01X4866458Y-4453432D01*
G01X4863410Y-4450384D01*
G01X4860108Y-4441240D01*
G01X4860108Y-4413300D02*
G01X4860108Y-4441240D01*
G01X4857060Y-4450384D01*
G01X4854012Y-4453432D01*
G01X4847916Y-4456734D01*
G01X4838518Y-4456734D01*
G01X4832422Y-4453432D01*
G01X4829120Y-4450384D01*
G01X4826072Y-4441240D01*
G01X4826072Y-4413300D01*
G01X4891096Y-4486960D02*
G01X4844614Y-4486960D01*
G01X4835470Y-4490008D01*
G01X4829120Y-4496104D01*
G01X4826072Y-4505502D01*
G01X4826072Y-4511598D01*
G01X4829120Y-4520996D01*
G01X4835470Y-4527092D01*
G01X4844614Y-4530140D01*
G01X4891096Y-4530140D01*
G01X4891096Y-4603546D02*
G01X4826072Y-4560366D01*
G01X4891096Y-4560366D02*
G01X4891096Y-4603546D01*
G01X4826072Y-4560366D02*
G01X4826072Y-4603546D01*
G01X4891096Y-4676952D02*
G01X4826072Y-4633772D01*
G01X4891096Y-4633772D02*
G01X4891096Y-4676952D01*
G01X4826072Y-4633772D02*
G01X4826072Y-4676952D01*
G01X4891096Y-4707178D02*
G01X4826072Y-4707178D01*
G01X4891096Y-4707178D02*
G01X4891096Y-4747310D01*
G01X4860108Y-4707178D02*
G01X4860108Y-4731816D01*
G01X4826072Y-4707178D02*
G01X4826072Y-4747310D01*
G01X4891096Y-4777536D02*
G01X4826072Y-4777536D01*
G01X4891096Y-4777536D02*
G01X4891096Y-4805222D01*
G01X4888048Y-4814620D01*
G01X4885000Y-4817668D01*
G01X4878650Y-4820716D01*
G01X4872554Y-4820716D01*
G01X4866458Y-4817668D01*
G01X4863410Y-4814620D01*
G01X4860108Y-4805222D01*
G01X4860108Y-4777536D01*
G01X4860108Y-4799126D02*
G01X4826072Y-4820716D01*
G01X4878650Y-4850942D02*
G01X4881952Y-4857038D01*
G01X4891096Y-4866182D01*
G01X4826072Y-4866182D01*
G01X4153477Y-5980292D02*
G01X4144676Y-5980472D01*
G01X4136055Y-5984782D01*
G01X4127255Y-5993583D01*
G01X4122765Y-6002383D01*
G01X4122765Y-6011004D01*
G01X4127255Y-6015495D01*
G01X4133720Y-6017650D01*
G01X4138031Y-6017650D01*
G01X4144676Y-6015315D01*
G01X4162278Y-6006694D01*
G01X4168743Y-6004539D01*
G01X4173054Y-6004539D01*
G01X4179879Y-6006694D01*
G01X4186345Y-6013160D01*
G01X4186345Y-6022140D01*
G01X4182034Y-6030761D01*
G01X4173234Y-6039562D01*
G01X4164433Y-6044052D01*
G01X4155632Y-6043872D01*
G01X4168384Y-5952453D02*
G01X4225139Y-5987656D01*
G01X4190116Y-5930721D02*
G01X4225139Y-5987656D01*
G01X4190116Y-5930721D02*
G01X4247051Y-5965744D01*
G01X4212028Y-5908809D02*
G01X4247051Y-5965744D01*
G01X4246512Y-5896237D02*
G01X4244357Y-5894082D01*
G01X4242022Y-5887436D01*
G01X4242022Y-5883126D01*
G01X4244178Y-5876660D01*
G01X4252978Y-5867859D01*
G01X4259624Y-5865524D01*
G01X4263934Y-5865524D01*
G01X4270580Y-5867859D01*
G01X4274890Y-5872170D01*
G01X4277045Y-5878636D01*
G01X4279201Y-5889771D01*
G01X4279380Y-5933415D01*
G01X4309913Y-5902882D01*
G01X4693920Y-3804666D02*
G01X4693920Y-3851148D01*
G01X4696968Y-3860292D01*
G01X4703318Y-3866642D01*
G01X4712462Y-3869690D01*
G01X4718812Y-3869690D01*
G01X4727956Y-3866642D01*
G01X4734052Y-3860292D01*
G01X4737354Y-3851148D01*
G01X4737354Y-3804666D01*
G01X4770628Y-3820160D02*
G01X4770628Y-3817112D01*
G01X4773676Y-3810762D01*
G01X4776724Y-3807714D01*
G01X4782820Y-3804666D01*
G01X4795266Y-3804666D01*
G01X4801616Y-3807714D01*
G01X4804664Y-3810762D01*
G01X4807712Y-3817112D01*
G01X4807712Y-3823208D01*
G01X4804664Y-3829304D01*
G01X4798314Y-3838702D01*
G01X4767580Y-3869690D01*
G01X4810760Y-3869690D01*
G01X8906002Y-4201160D02*
G01X8902954Y-4194810D01*
G01X8896604Y-4188714D01*
G01X8890508Y-4185666D01*
G01X8878062Y-4185666D01*
G01X8871966Y-4188714D01*
G01X8865616Y-4194810D01*
G01X8862568Y-4201160D01*
G01X8859520Y-4210304D01*
G01X8859520Y-4225798D01*
G01X8862568Y-4235196D01*
G01X8865616Y-4241292D01*
G01X8871966Y-4247642D01*
G01X8878062Y-4250690D01*
G01X8890508Y-4250690D01*
G01X8896604Y-4247642D01*
G01X8902954Y-4241292D01*
G01X8906002Y-4235196D01*
G01X8936228Y-4198112D02*
G01X8942324Y-4194810D01*
G01X8951468Y-4185666D01*
G01X8951468Y-4250690D01*
G01X9000236Y-4185666D02*
G01X8990838Y-4188714D01*
G01X8984742Y-4198112D01*
G01X8981694Y-4213352D01*
G01X8981694Y-4222750D01*
G01X8984742Y-4238244D01*
G01X8990838Y-4247642D01*
G01X9000236Y-4250690D01*
G01X9006332Y-4250690D01*
G01X9015730Y-4247642D01*
G01X9021826Y-4238244D01*
G01X9024874Y-4222750D01*
G01X9024874Y-4213352D01*
G01X9021826Y-4198112D01*
G01X9015730Y-4188714D01*
G01X9006332Y-4185666D01*
G01X9000236Y-4185666D01*
G01X8687991Y-3349986D02*
G01X8687991Y-3415010D01*
G01X8687991Y-3349986D02*
G01X8715931Y-3349986D01*
G01X8725075Y-3353034D01*
G01X8728123Y-3356082D01*
G01X8731425Y-3362432D01*
G01X8731425Y-3368528D01*
G01X8728123Y-3374624D01*
G01X8725075Y-3377672D01*
G01X8715931Y-3380974D01*
G01X8687991Y-3380974D01*
G01X8709581Y-3380974D02*
G01X8731425Y-3415010D01*
G01X8798735Y-3359130D02*
G01X8795687Y-3353034D01*
G01X8786289Y-3349986D01*
G01X8780193Y-3349986D01*
G01X8770795Y-3353034D01*
G01X8764699Y-3362432D01*
G01X8761651Y-3377672D01*
G01X8761651Y-3393166D01*
G01X8764699Y-3405612D01*
G01X8770795Y-3411962D01*
G01X8780193Y-3415010D01*
G01X8783241Y-3415010D01*
G01X8792385Y-3411962D01*
G01X8798735Y-3405612D01*
G01X8801783Y-3396468D01*
G01X8801783Y-3393166D01*
G01X8798735Y-3384022D01*
G01X8792385Y-3377672D01*
G01X8783241Y-3374624D01*
G01X8780193Y-3374624D01*
G01X8770795Y-3377672D01*
G01X8764699Y-3384022D01*
G01X8761651Y-3393166D01*
G01X8776891Y-3083286D02*
G01X8776891Y-3148310D01*
G01X8776891Y-3083286D02*
G01X8804831Y-3083286D01*
G01X8813975Y-3086334D01*
G01X8817023Y-3089382D01*
G01X8820325Y-3095732D01*
G01X8820325Y-3101828D01*
G01X8817023Y-3107924D01*
G01X8813975Y-3110972D01*
G01X8804831Y-3114274D01*
G01X8776891Y-3114274D01*
G01X8798481Y-3114274D02*
G01X8820325Y-3148310D01*
G01X8893731Y-3083286D02*
G01X8862743Y-3148310D01*
G01X8850551Y-3083286D02*
G01X8893731Y-3083286D01*
G01X9138920Y-4058666D02*
G01X9138920Y-4123690D01*
G01X9138920Y-4058666D02*
G01X9166860Y-4058666D01*
G01X9176004Y-4061714D01*
G01X9179052Y-4064762D01*
G01X9182354Y-4071112D01*
G01X9182354Y-4077208D01*
G01X9179052Y-4083304D01*
G01X9176004Y-4086352D01*
G01X9166860Y-4089654D01*
G01X9138920Y-4089654D01*
G01X9160510Y-4089654D02*
G01X9182354Y-4123690D01*
G01X9227820Y-4058666D02*
G01X9218676Y-4061714D01*
G01X9215628Y-4067810D01*
G01X9215628Y-4074160D01*
G01X9218676Y-4080256D01*
G01X9224772Y-4083304D01*
G01X9237218Y-4086352D01*
G01X9246616Y-4089654D01*
G01X9252712Y-4095750D01*
G01X9255760Y-4101846D01*
G01X9255760Y-4111244D01*
G01X9252712Y-4117340D01*
G01X9249664Y-4120642D01*
G01X9240266Y-4123690D01*
G01X9227820Y-4123690D01*
G01X9218676Y-4120642D01*
G01X9215628Y-4117340D01*
G01X9212580Y-4111244D01*
G01X9212580Y-4101846D01*
G01X9215628Y-4095750D01*
G01X9221724Y-4089654D01*
G01X9231122Y-4086352D01*
G01X9243314Y-4083304D01*
G01X9249664Y-4080256D01*
G01X9252712Y-4074160D01*
G01X9252712Y-4067810D01*
G01X9249664Y-4061714D01*
G01X9240266Y-4058666D01*
G01X9227820Y-4058666D01*
G01X8720312Y-4177912D02*
G01X8720312Y-4242936D01*
G01X8720312Y-4177912D02*
G01X8748252Y-4177912D01*
G01X8757396Y-4180960D01*
G01X8760444Y-4184008D01*
G01X8763746Y-4190358D01*
G01X8763746Y-4196454D01*
G01X8760444Y-4202550D01*
G01X8757396Y-4205598D01*
G01X8748252Y-4208900D01*
G01X8720312Y-4208900D01*
G01X8741902Y-4208900D02*
G01X8763746Y-4242936D01*
G01X8834104Y-4199502D02*
G01X8831056Y-4208900D01*
G01X8824706Y-4214996D01*
G01X8815562Y-4218044D01*
G01X8812514Y-4218044D01*
G01X8803116Y-4214996D01*
G01X8797020Y-4208900D01*
G01X8793972Y-4199502D01*
G01X8793972Y-4196454D01*
G01X8797020Y-4187056D01*
G01X8803116Y-4180960D01*
G01X8812514Y-4177912D01*
G01X8815562Y-4177912D01*
G01X8824706Y-4180960D01*
G01X8831056Y-4187056D01*
G01X8834104Y-4199502D01*
G01X8834104Y-4214996D01*
G01X8831056Y-4230490D01*
G01X8824706Y-4239888D01*
G01X8815562Y-4242936D01*
G01X8809212Y-4242936D01*
G01X8800068Y-4239888D01*
G01X8797020Y-4233538D01*
G01X4205097Y-5385689D02*
G01X4205097Y-5450713D01*
G01X4205097Y-5385689D02*
G01X4233037Y-5385689D01*
G01X4242181Y-5388737D01*
G01X4245229Y-5391785D01*
G01X4248531Y-5398135D01*
G01X4248531Y-5404231D01*
G01X4245229Y-5410327D01*
G01X4242181Y-5413375D01*
G01X4233037Y-5416677D01*
G01X4205097Y-5416677D01*
G01X4226687Y-5416677D02*
G01X4248531Y-5450713D01*
G01X4278757Y-5398135D02*
G01X4284853Y-5394833D01*
G01X4293997Y-5385689D01*
G01X4293997Y-5450713D01*
G01X4342765Y-5385689D02*
G01X4333367Y-5388737D01*
G01X4327271Y-5398135D01*
G01X4324223Y-5413375D01*
G01X4324223Y-5422773D01*
G01X4327271Y-5438267D01*
G01X4333367Y-5447665D01*
G01X4342765Y-5450713D01*
G01X4348861Y-5450713D01*
G01X4358259Y-5447665D01*
G01X4364355Y-5438267D01*
G01X4367403Y-5422773D01*
G01X4367403Y-5413375D01*
G01X4364355Y-5398135D01*
G01X4358259Y-5388737D01*
G01X4348861Y-5385689D01*
G01X4342765Y-5385689D01*
G01X9318567Y-4130443D02*
G01X9312471Y-4136793D01*
G01X9309423Y-4145937D01*
G01X9309423Y-4158383D01*
G01X9312471Y-4167781D01*
G01X9318567Y-4173877D01*
G01X9324917Y-4173877D01*
G01X9331013Y-4170829D01*
G01X9334061Y-4167781D01*
G01X9337109Y-4161431D01*
G01X9343459Y-4142889D01*
G01X9346507Y-4136793D01*
G01X9349555Y-4133745D01*
G01X9355905Y-4130443D01*
G01X9365049Y-4130443D01*
G01X9371399Y-4136793D01*
G01X9374447Y-4145937D01*
G01X9374447Y-4158383D01*
G01X9371399Y-4167781D01*
G01X9365049Y-4173877D01*
G01X9309423Y-4100217D02*
G01X9374447Y-4084977D01*
G01X9309423Y-4069483D02*
G01X9374447Y-4084977D01*
G01X9309423Y-4069483D02*
G01X9374447Y-4053989D01*
G01X9309423Y-4038495D02*
G01X9374447Y-4053989D01*
G01X9309423Y-3971185D02*
G01X9309423Y-4002173D01*
G01X9337109Y-4005221D01*
G01X9334061Y-4002173D01*
G01X9331013Y-3993029D01*
G01X9331013Y-3983631D01*
G01X9334061Y-3974233D01*
G01X9340411Y-3968137D01*
G01X9349555Y-3965089D01*
G01X9355905Y-3965089D01*
G01X9365049Y-3968137D01*
G01X9371399Y-3974233D01*
G01X9374447Y-3983631D01*
G01X9374447Y-3993029D01*
G01X9371399Y-4002173D01*
G01X9368097Y-4005221D01*
G01X9362001Y-4008269D01*
G01X5505351Y-4221333D02*
G01X5511447Y-4214983D01*
G01X5514495Y-4205839D01*
G01X5514495Y-4193393D01*
G01X5511447Y-4183995D01*
G01X5505351Y-4177899D01*
G01X5499001Y-4177899D01*
G01X5492905Y-4180947D01*
G01X5489857Y-4183995D01*
G01X5486809Y-4190345D01*
G01X5480459Y-4208887D01*
G01X5477411Y-4214983D01*
G01X5474363Y-4218031D01*
G01X5468013Y-4221333D01*
G01X5458869Y-4221333D01*
G01X5452519Y-4214983D01*
G01X5449471Y-4205839D01*
G01X5449471Y-4193393D01*
G01X5452519Y-4183995D01*
G01X5458869Y-4177899D01*
G01X5514495Y-4251559D02*
G01X5449471Y-4266799D01*
G01X5514495Y-4282293D02*
G01X5449471Y-4266799D01*
G01X5514495Y-4282293D02*
G01X5449471Y-4297787D01*
G01X5514495Y-4313281D02*
G01X5449471Y-4297787D01*
G01X5505351Y-4380591D02*
G01X5511447Y-4377543D01*
G01X5514495Y-4368145D01*
G01X5514495Y-4362049D01*
G01X5511447Y-4352651D01*
G01X5502049Y-4346555D01*
G01X5486809Y-4343507D01*
G01X5471315Y-4343507D01*
G01X5458869Y-4346555D01*
G01X5452519Y-4352651D01*
G01X5449471Y-4362049D01*
G01X5449471Y-4365097D01*
G01X5452519Y-4374241D01*
G01X5458869Y-4380591D01*
G01X5468013Y-4383639D01*
G01X5471315Y-4383639D01*
G01X5480459Y-4380591D01*
G01X5486809Y-4374241D01*
G01X5489857Y-4365097D01*
G01X5489857Y-4362049D01*
G01X5486809Y-4352651D01*
G01X5480459Y-4346555D01*
G01X5471315Y-4343507D01*
G01X8187436Y-3448660D02*
G01X8187436Y-3495142D01*
G01X8190484Y-3504286D01*
G01X8196834Y-3510636D01*
G01X8205978Y-3513684D01*
G01X8212328Y-3513684D01*
G01X8221472Y-3510636D01*
G01X8227568Y-3504286D01*
G01X8230870Y-3495142D01*
G01X8230870Y-3448660D01*
G01X8267192Y-3448660D02*
G01X8301228Y-3448660D01*
G01X8282686Y-3473298D01*
G01X8291830Y-3473298D01*
G01X8298180Y-3476346D01*
G01X8301228Y-3479648D01*
G01X8304276Y-3488792D01*
G01X8304276Y-3495142D01*
G01X8301228Y-3504286D01*
G01X8295132Y-3510636D01*
G01X8285734Y-3513684D01*
G01X8276336Y-3513684D01*
G01X8267192Y-3510636D01*
G01X8264144Y-3507334D01*
G01X8261096Y-3501238D01*
G01X8999220Y-3377959D02*
G01X8999220Y-3424441D01*
G01X9002268Y-3433585D01*
G01X9008618Y-3439935D01*
G01X9017762Y-3442983D01*
G01X9024112Y-3442983D01*
G01X9033256Y-3439935D01*
G01X9039352Y-3433585D01*
G01X9042654Y-3424441D01*
G01X9042654Y-3377959D01*
G01X9103614Y-3377959D02*
G01X9072880Y-3421139D01*
G01X9119108Y-3421139D01*
G01X9103614Y-3377959D02*
G01X9103614Y-3442983D01*
G01X8372856Y-3073809D02*
G01X8372856Y-3120291D01*
G01X8375904Y-3129435D01*
G01X8382254Y-3135785D01*
G01X8391398Y-3138833D01*
G01X8397748Y-3138833D01*
G01X8406892Y-3135785D01*
G01X8412988Y-3129435D01*
G01X8416290Y-3120291D01*
G01X8416290Y-3073809D01*
G01X8486648Y-3095399D02*
G01X8483600Y-3104797D01*
G01X8477250Y-3110893D01*
G01X8468106Y-3113941D01*
G01X8465058Y-3113941D01*
G01X8455660Y-3110893D01*
G01X8449564Y-3104797D01*
G01X8446516Y-3095399D01*
G01X8446516Y-3092351D01*
G01X8449564Y-3082953D01*
G01X8455660Y-3076857D01*
G01X8465058Y-3073809D01*
G01X8468106Y-3073809D01*
G01X8477250Y-3076857D01*
G01X8483600Y-3082953D01*
G01X8486648Y-3095399D01*
G01X8486648Y-3110893D01*
G01X8483600Y-3126387D01*
G01X8477250Y-3135785D01*
G01X8468106Y-3138833D01*
G01X8461756Y-3138833D01*
G01X8452612Y-3135785D01*
G01X8449564Y-3129435D01*
G01X4843990Y-4899182D02*
G01X4797508Y-4899182D01*
G01X4788364Y-4902230D01*
G01X4782014Y-4908580D01*
G01X4778966Y-4917724D01*
G01X4778966Y-4924074D01*
G01X4782014Y-4933218D01*
G01X4788364Y-4939314D01*
G01X4797508Y-4942616D01*
G01X4843990Y-4942616D01*
G01X4831544Y-4972842D02*
G01X4834846Y-4978938D01*
G01X4843990Y-4988082D01*
G01X4778966Y-4988082D01*
G01X4828496Y-5021356D02*
G01X4831544Y-5021356D01*
G01X4837894Y-5024404D01*
G01X4840942Y-5027452D01*
G01X4843990Y-5033548D01*
G01X4843990Y-5045994D01*
G01X4840942Y-5052344D01*
G01X4837894Y-5055392D01*
G01X4831544Y-5058440D01*
G01X4825448Y-5058440D01*
G01X4819352Y-5055392D01*
G01X4809954Y-5049042D01*
G01X4778966Y-5018308D01*
G01X4778966Y-5061488D01*
G01X7650480Y-7752334D02*
G01X7650480Y-7705852D01*
G01X7647432Y-7696708D01*
G01X7641082Y-7690358D01*
G01X7631938Y-7687310D01*
G01X7625588Y-7687310D01*
G01X7616444Y-7690358D01*
G01X7610348Y-7696708D01*
G01X7607046Y-7705852D01*
G01X7607046Y-7752334D01*
G01X7576820Y-7739888D02*
G01X7570724Y-7743190D01*
G01X7561580Y-7752334D01*
G01X7561580Y-7687310D01*
G01X7933861Y-5878713D02*
G01X7927511Y-5872617D01*
G01X7918367Y-5869569D01*
G01X7905921Y-5869569D01*
G01X7896523Y-5872617D01*
G01X7890427Y-5878713D01*
G01X7890427Y-5885063D01*
G01X7893475Y-5891159D01*
G01X7896523Y-5894207D01*
G01X7902873Y-5897255D01*
G01X7921415Y-5903605D01*
G01X7927511Y-5906653D01*
G01X7930559Y-5909701D01*
G01X7933861Y-5916051D01*
G01X7933861Y-5925195D01*
G01X7927511Y-5931545D01*
G01X7918367Y-5934593D01*
G01X7905921Y-5934593D01*
G01X7896523Y-5931545D01*
G01X7890427Y-5925195D01*
G01X7964087Y-5869569D02*
G01X7979327Y-5934593D01*
G01X7994821Y-5869569D02*
G01X7979327Y-5934593D01*
G01X7994821Y-5869569D02*
G01X8010315Y-5934593D01*
G01X8025809Y-5869569D02*
G01X8010315Y-5934593D01*
G01X8062131Y-5869569D02*
G01X8096167Y-5869569D01*
G01X8077625Y-5894207D01*
G01X8086769Y-5894207D01*
G01X8093119Y-5897255D01*
G01X8096167Y-5900557D01*
G01X8099215Y-5909701D01*
G01X8099215Y-5916051D01*
G01X8096167Y-5925195D01*
G01X8090071Y-5931545D01*
G01X8080673Y-5934593D01*
G01X8071275Y-5934593D01*
G01X8062131Y-5931545D01*
G01X8059083Y-5928243D01*
G01X8056035Y-5922147D01*
G01X8289461Y-5091313D02*
G01X8283111Y-5085217D01*
G01X8273967Y-5082169D01*
G01X8261521Y-5082169D01*
G01X8252123Y-5085217D01*
G01X8246027Y-5091313D01*
G01X8246027Y-5097663D01*
G01X8249075Y-5103759D01*
G01X8252123Y-5106807D01*
G01X8258473Y-5109855D01*
G01X8277015Y-5116205D01*
G01X8283111Y-5119253D01*
G01X8286159Y-5122301D01*
G01X8289461Y-5128651D01*
G01X8289461Y-5137795D01*
G01X8283111Y-5144145D01*
G01X8273967Y-5147193D01*
G01X8261521Y-5147193D01*
G01X8252123Y-5144145D01*
G01X8246027Y-5137795D01*
G01X8319687Y-5082169D02*
G01X8334927Y-5147193D01*
G01X8350421Y-5082169D02*
G01X8334927Y-5147193D01*
G01X8350421Y-5082169D02*
G01X8365915Y-5147193D01*
G01X8381409Y-5082169D02*
G01X8365915Y-5147193D01*
G01X8442369Y-5082169D02*
G01X8411635Y-5125349D01*
G01X8457863Y-5125349D01*
G01X8442369Y-5082169D02*
G01X8442369Y-5147193D01*
G04 Text End*

G04 PolygonModel Start*
G54D11*
G01X4698463Y-4830685D02*
G01X4771462Y-4830685D01*
G01X4771462Y-4830685D02*
G01X4771462Y-4430686D01*
G01X4771462Y-4430686D02*
G01X4698463Y-4430686D01*
G01X4444463Y-4830685D02*
G01X4371463Y-4830685D01*
G01X4371463Y-4830685D02*
G01X4371463Y-4430686D01*
G01X4371463Y-4430686D02*
G01X4444463Y-4430686D01*
G01X4571463Y-4554485D02*
G01X4571463Y-4592585D01*
G01X4607462Y-4574686D02*
G01X4545463Y-4574686D01*
G01X4772271Y-6056113D02*
G01X4772271Y-6199797D01*
G01X4772271Y-6199797D02*
G01X4915956Y-6199797D01*
G01X4915956Y-6199797D02*
G01X4915956Y-6056113D01*
G01X4915956Y-6056113D02*
G01X4772271Y-6056113D01*
G01X4413061Y-6235718D02*
G01X4424021Y-6246678D01*
G01X4725409Y-6548066D02*
G01X4736350Y-6559007D01*
G01X5275166Y-6020192D02*
G01X5264224Y-6009250D01*
G01X4962836Y-5707862D02*
G01X4951877Y-5696903D01*
G01X5275166Y-6235718D02*
G01X5275166Y-6020192D01*
G01X4413061Y-6020192D02*
G01X4413061Y-6235718D01*
G01X4951877Y-6559007D02*
G01X5026467Y-6484417D01*
G01X5200576Y-6310308D02*
G01X5275166Y-6235718D01*
G01X4736350Y-6559007D02*
G01X4951877Y-6559007D01*
G01X4628806Y-5930389D02*
G01X4646548Y-5930389D01*
G01X4646548Y-5930389D02*
G01X4646548Y-5912648D01*
G01X4951877Y-5696903D02*
G01X4736350Y-5696903D01*
G01X4736350Y-5696903D02*
G01X4682496Y-5750775D01*
G01X4466970Y-5966301D02*
G01X4413061Y-6020192D01*
G01X4466970Y-5966301D02*
G01X4502891Y-5966301D01*
G01X4682496Y-5750775D02*
G01X4682496Y-5786696D01*
G01X4851405Y-3683005D02*
G01X4851405Y-3733805D01*
G01X4851405Y-3733805D02*
G01X4673605Y-3733805D01*
G01X4673605Y-3733805D02*
G01X4673605Y-3556005D01*
G01X4673605Y-3556005D02*
G01X4851405Y-3556005D01*
G01X4851405Y-3556005D02*
G01X4851405Y-3683005D01*
G36*
G01X4775505Y-3651905D02*
G01X4737405Y-3651905D01*
G01X4750105Y-3639205D01*
G01X4762805Y-3626505D01*
G01X4788205Y-3651905D01*
G01X4775505Y-3651905D01*
G37*
G01X8980777Y-4152201D02*
G01X8900775Y-4152201D01*
G01X9011763Y-4041226D02*
G01X9011763Y-4121224D01*
G01X8869797Y-4041226D02*
G01X8869797Y-4121224D01*
G01X9012344Y-3983637D02*
G01X9012344Y-3903637D01*
G01X8981361Y-3872654D02*
G01X8901364Y-3872654D01*
G01X8870384Y-3983637D02*
G01X8870384Y-3903637D01*
G01X8981361Y-3872649D02*
G02X9012344Y-3903632I0J-30983D01*
G01X8870379Y-3903632D02*
G02X8901364Y-3872649I30983J0D01*
G01X9011763Y-4121219D02*
G02X8980777Y-4152201I-30983J0D01*
G01X8900780Y-4152201D02*
G02X8869797Y-4121219I0J30983D01*
G54D10*
G01X8869121Y-3596660D02*
G01X8965009Y-3596660D01*
G01X8965009Y-3596660D02*
G01X8965009Y-3464540D01*
G01X8965009Y-3464540D02*
G01X8869121Y-3464540D01*
G01X8783879Y-3596660D02*
G01X8687991Y-3596660D01*
G01X8687991Y-3596660D02*
G01X8687991Y-3464540D01*
G01X8687991Y-3464540D02*
G01X8783879Y-3464540D01*
G01X8958021Y-3329960D02*
G01X9053909Y-3329960D01*
G01X9053909Y-3329960D02*
G01X9053909Y-3197840D01*
G01X9053909Y-3197840D02*
G01X8958021Y-3197840D01*
G01X8872779Y-3329960D02*
G01X8776891Y-3329960D01*
G01X8776891Y-3329960D02*
G01X8776891Y-3197840D01*
G01X8776891Y-3197840D02*
G01X8872779Y-3197840D01*
G01X9224721Y-4003060D02*
G01X9320609Y-4003060D01*
G01X9320609Y-4003060D02*
G01X9320609Y-3870940D01*
G01X9320609Y-3870940D02*
G01X9224721Y-3870940D01*
G01X9139479Y-4003060D02*
G01X9043591Y-4003060D01*
G01X9043591Y-4003060D02*
G01X9043591Y-3870940D01*
G01X9043591Y-3870940D02*
G01X9139479Y-3870940D01*
G01X8841760Y-3974807D02*
G01X8841760Y-3878919D01*
G01X8841760Y-3878919D02*
G01X8709640Y-3878919D01*
G01X8709640Y-3878919D02*
G01X8709640Y-3974807D01*
G01X8841760Y-4060049D02*
G01X8841760Y-4155937D01*
G01X8841760Y-4155937D02*
G01X8709640Y-4155937D01*
G01X8709640Y-4155937D02*
G01X8709640Y-4060049D01*
G01X4549160Y-5367579D02*
G01X4549160Y-5271691D01*
G01X4549160Y-5271691D02*
G01X4417040Y-5271691D01*
G01X4417040Y-5271691D02*
G01X4417040Y-5367579D01*
G01X4549160Y-5452821D02*
G01X4549160Y-5548709D01*
G01X4549160Y-5548709D02*
G01X4417040Y-5548709D01*
G01X4417040Y-5548709D02*
G01X4417040Y-5452821D01*
G54D11*
G01X9994542Y-3616505D02*
G01X9994542Y-3746513D01*
G01X9994542Y-3746513D02*
G01X9844535Y-3746513D01*
G01X9844535Y-3616505D02*
G01X9994542Y-3616505D01*
G01X9574543Y-3737323D02*
G01X9574543Y-3905697D01*
G01X9574543Y-3587323D02*
G01X9574543Y-3605703D01*
G01X9844535Y-3426513D02*
G01X9844535Y-4066512D01*
G01X9755729Y-4076515D02*
G01X9663349Y-4076515D01*
G01X9755729Y-3416511D02*
G01X9663349Y-3416511D01*
G54D12*
G01X5380060Y-5097779D02*
G01X5330060Y-5097778D01*
G01X5180060Y-5097778D02*
G01X5130061Y-5097778D01*
G01X5130061Y-5097778D02*
G01X5130061Y-4197779D01*
G01X5380060Y-4197780D02*
G01X5380060Y-5097779D01*
G01X5330061Y-4197780D02*
G01X5380060Y-4197780D01*
G01X5130061Y-4197779D02*
G01X5180061Y-4197780D01*
G54D11*
G01X8229595Y-3632195D02*
G01X8229595Y-3581395D01*
G01X8229595Y-3581395D02*
G01X8407395Y-3581395D01*
G01X8407395Y-3581395D02*
G01X8407395Y-3759195D01*
G01X8407395Y-3759195D02*
G01X8229595Y-3759195D01*
G01X8229595Y-3759195D02*
G01X8229595Y-3632195D01*
G36*
G01X8305495Y-3663295D02*
G01X8343595Y-3663295D01*
G01X8330895Y-3675995D01*
G01X8318195Y-3688695D01*
G01X8292795Y-3663295D01*
G01X8305495Y-3663295D01*
G37*
G01X9004300Y-3575050D02*
G01X9004300Y-3714750D01*
G01X9296400Y-3602660D02*
G01X9296400Y-3687138D01*
G01X9118600Y-3556000D02*
G01X9194800Y-3556000D01*
G54D13*
G01X8543740Y-3296249D02*
G01X8542749Y-3296249D01*
G01X8542749Y-3296249D02*
G01X8509739Y-3263247D01*
G01X8543740Y-3228246D02*
G01X8543740Y-3229247D01*
G01X8543740Y-3229247D02*
G01X8509739Y-3263247D01*
G01X8543740Y-3228246D02*
G01X8543740Y-3296249D01*
G01X8545744Y-3188244D02*
G01X8660750Y-3188244D01*
G01X8545744Y-3338256D02*
G01X8660750Y-3338256D01*
G01X8660750Y-3188249D02*
G01X8660750Y-3336247D01*
G01X8507743Y-3338485D02*
G01X8402731Y-3338485D01*
G01X8372737Y-3298474D02*
G01X8372737Y-3308477D01*
G01X8372737Y-3308477D02*
G01X8402731Y-3338485D01*
G01X8372737Y-3228482D02*
G01X8372737Y-3298474D01*
G01X8372737Y-3228482D02*
G01X8372737Y-3218467D01*
G01X8372737Y-3218467D02*
G01X8402731Y-3188472D01*
G01X8507743Y-3188472D02*
G01X8402731Y-3188472D01*
G01X8543740Y-3263247D02*
G01X8509739Y-3263247D01*
G54D10*
G01X4729436Y-5126684D02*
G01X4729436Y-4981442D01*
G01X4729436Y-4981442D02*
G01X4626273Y-4981442D01*
G01X4424194Y-5126684D02*
G01X4424194Y-4981442D01*
G01X4424194Y-4981442D02*
G01X4527356Y-4981442D01*
G01X4622354Y-5126684D02*
G01X4531275Y-5126684D01*
G54D11*
G01X7366000Y-7442200D02*
G01X7366000Y-7505700D01*
G01X6921500Y-7505700D01*
G01X5842000Y-7442200D02*
G01X5842000Y-7505700D01*
G01X6286500Y-7505700D01*
G01X7366000Y-5410200D02*
G01X7366000Y-5070149D01*
G01X5842000Y-5070149D01*
G01X5842000Y-5410200D01*
G01X8522787Y-6589189D02*
G01X8522787Y-6589194D01*
G01X8522787Y-6589194D02*
G01X8552782Y-6619189D01*
G01X8522792Y-6589197D02*
G01X8336001Y-6589197D01*
G01X8336001Y-6589197D02*
G01X8306029Y-6619194D01*
G01X8342782Y-6009183D02*
G01X8529574Y-6009183D01*
G01X8529574Y-6009183D02*
G01X8559546Y-5979185D01*
G01X8342787Y-6009190D02*
G01X8342787Y-6009185D01*
G01X8342787Y-6009185D02*
G01X8312793Y-5979190D01*
G01X8132788Y-6002083D02*
G01X8132788Y-5979190D01*
G01X8132788Y-5979190D02*
G01X8732787Y-5979190D01*
G01X8132788Y-6452070D02*
G01X8132788Y-6146310D01*
G01X8732787Y-6596296D02*
G01X8732787Y-6619189D01*
G01X8732787Y-6619189D02*
G01X8132788Y-6619189D01*
G01X8132788Y-6619189D02*
G01X8132788Y-6596296D01*
G01X8732787Y-6146310D02*
G01X8732787Y-6452070D01*
G01X8732787Y-5979190D02*
G01X8732787Y-6002083D01*
G36*
G01X8312788Y-5979190D02*
G01X8559541Y-5979190D01*
G01X8559546Y-5979185D01*
G01X8559546Y-5979211D01*
G01X8529574Y-6009183D01*
G01X8342782Y-6009183D01*
G01X8312788Y-5979190D01*
G37*
G36*
G01X8552787Y-6619189D02*
G01X8306034Y-6619189D01*
G01X8306029Y-6619194D01*
G01X8306029Y-6619169D01*
G01X8336001Y-6589197D01*
G01X8522792Y-6589197D01*
G01X8552787Y-6619189D01*
G37*
G01X8878387Y-5801789D02*
G01X8878387Y-5801794D01*
G01X8878387Y-5801794D02*
G01X8908382Y-5831789D01*
G01X8878392Y-5801797D02*
G01X8691601Y-5801797D01*
G01X8691601Y-5801797D02*
G01X8661629Y-5831794D01*
G01X8698382Y-5221783D02*
G01X8885174Y-5221783D01*
G01X8885174Y-5221783D02*
G01X8915146Y-5191785D01*
G01X8698387Y-5221790D02*
G01X8698387Y-5221785D01*
G01X8698387Y-5221785D02*
G01X8668393Y-5191790D01*
G01X8488388Y-5214683D02*
G01X8488388Y-5191790D01*
G01X8488388Y-5191790D02*
G01X9088387Y-5191790D01*
G01X8488388Y-5664670D02*
G01X8488388Y-5358910D01*
G01X9088387Y-5808896D02*
G01X9088387Y-5831789D01*
G01X9088387Y-5831789D02*
G01X8488388Y-5831789D01*
G01X8488388Y-5831789D02*
G01X8488388Y-5808896D01*
G01X9088387Y-5358910D02*
G01X9088387Y-5664670D01*
G01X9088387Y-5191790D02*
G01X9088387Y-5214683D01*
G36*
G01X8668388Y-5191790D02*
G01X8915141Y-5191790D01*
G01X8915146Y-5191785D01*
G01X8915146Y-5191811D01*
G01X8885174Y-5221783D01*
G01X8698382Y-5221783D01*
G01X8668388Y-5191790D01*
G37*
G36*
G01X8908387Y-5831789D02*
G01X8661634Y-5831789D01*
G01X8661629Y-5831794D01*
G01X8661629Y-5831769D01*
G01X8691601Y-5801797D01*
G01X8878392Y-5801797D01*
G01X8908387Y-5831789D01*
G37*

G04 Rect Start*
G01X6921500Y-7188200D02*
G01X6921500Y-7632700D01*
G01X6286500Y-7632700D01*
G01X6286500Y-7188200D01*
G01X6921500Y-7188200D01*
G01X6604000Y-5782174D02*
G01X7053013Y-6231187D01*
G01X6604000Y-6680200D01*
G01X6154987Y-6231187D01*
G01X6604000Y-5782174D01*
G04 Rect End*

G04 Circle Start*
G01X4602813Y-6127955D02*
G03X5085413Y-6127955I241300J0D01*
G03X4602813Y-6127955I-241300J0D01*
G01X4691713Y-6127955D02*
G03X4996513Y-6127955I152400J0D01*
G03X4691713Y-6127955I-152400J0D01*
G01X4876292Y-3740810D02*
G03X4888484Y-3740810I6096J0D01*
G03X4876292Y-3740810I-6096J0D01*
G01X8192516Y-3574390D02*
G03X8204708Y-3574390I6096J0D01*
G03X8192516Y-3574390I-6096J0D01*
G01X8279867Y-6299200D02*
G03X8585733Y-6299200I152933J0D01*
G03X8279867Y-6299200I-152933J0D01*
G01X8635467Y-5511800D02*
G03X8941333Y-5511800I152933J0D01*
G03X8635467Y-5511800I-152933J0D01*
G04 Circle End*

M02*

