G04 Layer: BottomPasteMaskLayer*
G04 EasyEDA Pro v2.2.28.1, 2024-09-30 17:42:25*
G04 Gerber Generator version 0.3*
G04 Scale: 100 percent, Rotated: No, Reflected: No*
G04 Dimensions in millimeters*
G04 Leading zeros omitted, absolute positions, 3 integers and 5 decimals*
%FSLAX35Y35*%
%MOMM*%
%ADD10R,0.9X0.8*%
%ADD11R,0.9X0.8*%
%ADD12R,0.9X0.8*%
%ADD13R,0.75001X1.0*%
%ADD14R,0.35052X2.99999*%
G75*


G04 PolygonModel Start*
G36*
G01X7271299Y-4871598D02*
G01X7271299Y-4951598D01*
G01X7266297Y-4956599D01*
G01X7243501Y-4956599D01*
G01X7243501Y-4919599D01*
G01X7210501Y-4919599D01*
G01X7210501Y-4956599D01*
G01X7186298Y-4956599D01*
G01X7181299Y-4951598D01*
G01X7181299Y-4871598D01*
G01X7186298Y-4866599D01*
G01X7266297Y-4866599D01*
G01X7271299Y-4871598D01*
G37*
G36*
G01X7181301Y-5110602D02*
G01X7181301Y-5030602D01*
G01X7186303Y-5025601D01*
G01X7209099Y-5025601D01*
G01X7209099Y-5062601D01*
G01X7242099Y-5062601D01*
G01X7242099Y-5025601D01*
G01X7266302Y-5025601D01*
G01X7271301Y-5030602D01*
G01X7271301Y-5110602D01*
G01X7266302Y-5115601D01*
G01X7186303Y-5115601D01*
G01X7181301Y-5110602D01*
G37*
G36*
G01X6763299Y-4858898D02*
G01X6763299Y-4938898D01*
G01X6758297Y-4943899D01*
G01X6735501Y-4943899D01*
G01X6735501Y-4906899D01*
G01X6702501Y-4906899D01*
G01X6702501Y-4943899D01*
G01X6678298Y-4943899D01*
G01X6673299Y-4938898D01*
G01X6673299Y-4858898D01*
G01X6678298Y-4853899D01*
G01X6758297Y-4853899D01*
G01X6763299Y-4858898D01*
G37*
G36*
G01X6673301Y-5097902D02*
G01X6673301Y-5017902D01*
G01X6678303Y-5012901D01*
G01X6701099Y-5012901D01*
G01X6701099Y-5049901D01*
G01X6734099Y-5049901D01*
G01X6734099Y-5012901D01*
G01X6758302Y-5012901D01*
G01X6763301Y-5017902D01*
G01X6763301Y-5097902D01*
G01X6758302Y-5102901D01*
G01X6678303Y-5102901D01*
G01X6673301Y-5097902D01*
G37*
G36*
G01X6902999Y-4858898D02*
G01X6902999Y-4938898D01*
G01X6897997Y-4943899D01*
G01X6875201Y-4943899D01*
G01X6875201Y-4906899D01*
G01X6842201Y-4906899D01*
G01X6842201Y-4943899D01*
G01X6817998Y-4943899D01*
G01X6812999Y-4938898D01*
G01X6812999Y-4858898D01*
G01X6817998Y-4853899D01*
G01X6897997Y-4853899D01*
G01X6902999Y-4858898D01*
G37*
G36*
G01X6813001Y-5097902D02*
G01X6813001Y-5017902D01*
G01X6818003Y-5012901D01*
G01X6840799Y-5012901D01*
G01X6840799Y-5049901D01*
G01X6873799Y-5049901D01*
G01X6873799Y-5012901D01*
G01X6898002Y-5012901D01*
G01X6903001Y-5017902D01*
G01X6903001Y-5097902D01*
G01X6898002Y-5102901D01*
G01X6818003Y-5102901D01*
G01X6813001Y-5097902D01*
G37*
G36*
G01X6305977Y-4854593D02*
G01X6305977Y-4934593D01*
G01X6300975Y-4939594D01*
G01X6278179Y-4939594D01*
G01X6278179Y-4902594D01*
G01X6245179Y-4902594D01*
G01X6245179Y-4939594D01*
G01X6220976Y-4939594D01*
G01X6215977Y-4934593D01*
G01X6215977Y-4854593D01*
G01X6220976Y-4849594D01*
G01X6300975Y-4849594D01*
G01X6305977Y-4854593D01*
G37*
G36*
G01X6215979Y-5093597D02*
G01X6215979Y-5013597D01*
G01X6220981Y-5008596D01*
G01X6243777Y-5008596D01*
G01X6243777Y-5045596D01*
G01X6276777Y-5045596D01*
G01X6276777Y-5008596D01*
G01X6300981Y-5008596D01*
G01X6305979Y-5013597D01*
G01X6305979Y-5093597D01*
G01X6300981Y-5098595D01*
G01X6220981Y-5098595D01*
G01X6215979Y-5093597D01*
G37*

G04 Pad Start*
G54D10*
G01X5633453Y-5048631D03*
G01X5633453Y-4908626D03*
G54D11*
G01X5809416Y-5048622D03*
G01X5809416Y-4908618D03*
G01X7518400Y-5061102D03*
G01X7518400Y-4921098D03*
G01X7366000Y-5061102D03*
G01X7366000Y-4921098D03*
G01X7658100Y-5061102D03*
G01X7658100Y-4921098D03*
G54D12*
G01X6083300Y-4908398D03*
G01X6083300Y-5048402D03*
G54D13*
G01X6426200Y-4886541D03*
G01X6426200Y-5121059D03*
G54D14*
G01X5576291Y-4597171D03*
G01X5646293Y-4597375D03*
G01X5716295Y-4597375D03*
G01X5786298Y-4597375D03*
G01X5856300Y-4597375D03*
G01X5926303Y-4597375D03*
G01X5996305Y-4597375D03*
G01X6066307Y-4597375D03*
G01X6136310Y-4597375D03*
G01X6206312Y-4597375D03*
G01X6276289Y-4597375D03*
G01X6346292Y-4597375D03*
G01X6486296Y-4597375D03*
G01X6556299Y-4597375D03*
G01X6626301Y-4597375D03*
G01X6696304Y-4597375D03*
G01X6766306Y-4597375D03*
G01X6836308Y-4597375D03*
G01X6906311Y-4597375D03*
G01X7046290Y-4597375D03*
G01X7116293Y-4597375D03*
G01X7186295Y-4597375D03*
G01X7256297Y-4597375D03*
G01X7326300Y-4597375D03*
G01X7396302Y-4597375D03*
G01X7466305Y-4597527D03*
G01X7536307Y-4597629D03*
G01X7606309Y-4597629D03*
G01X6416294Y-4597375D03*
G01X6976313Y-4597375D03*
G04 Pad End*

M02*

