G04 Layer: TopSolderMaskLayer*
G04 EasyEDA Pro v2.2.28.1, 2024-09-30 17:42:25*
G04 Gerber Generator version 0.3*
G04 Scale: 100 percent, Rotated: No, Reflected: No*
G04 Dimensions in millimeters*
G04 Leading zeros omitted, absolute positions, 3 integers and 5 decimals*
%FSLAX35Y35*%
%MOMM*%
%AMRoundRect*1,1,$1,$2,$3*1,1,$1,$4,$5*1,1,$1,0-$2,0-$3*1,1,$1,0-$4,0-$5*20,1,$1,$2,$3,$4,$5,0*20,1,$1,$4,$5,0-$2,0-$3,0*20,1,$1,0-$2,0-$3,0-$4,0-$5,0*20,1,$1,0-$4,0-$5,$2,$3,0*4,1,4,$2,$3,$4,$5,0-$2,0-$3,0-$4,0-$5,$2,$3,0*%
%ADD10RoundRect,0.09302X0.90429X0.50429X0.90429X-0.50429*%
%ADD11RoundRect,0.09336X-0.88999X-0.17678X0.17678X0.88999*%
%ADD12RoundRect,0.09681X-1.34717X-0.07071X0.07071X1.34717*%
%ADD13RoundRect,0.08722X0.25739X-0.25739X-0.25739X-0.25739*%
%ADD14RoundRect,0.09131X0.45514X0.40514X0.45514X-0.40514*%
%ADD15RoundRect,0.09138X-0.40835X0.43712X0.40835X0.43712*%
%ADD16RoundRect,0.09138X-0.43712X-0.40835X-0.43712X0.40835*%
%ADD17RoundRect,0.09224X-0.90468X-0.45468X-0.90468X0.45468*%
%ADD18RoundRect,0.09249X-0.46955X-0.55455X-0.46955X0.55455*%
%ADD19R,2.0X2.49999*%
%ADD20RoundRect,0.08722X-0.25739X0.25739X0.25739X0.25739*%
%ADD21RoundRect,0.08752X-0.30625X0.50625X0.30625X0.50625*%
%ADD22RoundRect,0.09131X-0.40514X-0.40514X-0.40514X0.40514*%
%ADD23RoundRect,0.09017X0.35571X0.63072X0.35571X-0.63072*%
%ADD24RoundRect,0.03X-1.735X-0.485X-1.735X0.485*%
%ADD25RoundRect,0.045X-1.6775X-0.7275X-1.6775X0.7275*%
%ADD26RoundRect,1.88X1.016X0.0X-1.016X0.0*%
%ADD27RoundRect,1.88X-1.016X0.0X1.016X0.0*%
%ADD28RoundRect,0.09302X0.91428X0.50429X0.91428X-0.50429*%
G75*


G04 Pad Start*
G54D10*
G01X4571463Y-4805691D03*
G01X4571463Y-4455679D03*
G54D11*
G01X4490579Y-6283529D03*
G01X4589577Y-6382527D03*
G01X4688558Y-6481508D03*
G01X5197702Y-5972363D03*
G01X5098686Y-5873419D03*
G01X4999723Y-5774384D03*
G54D12*
G01X4557751Y-5841593D03*
G01X5130494Y-6414335D03*
G54D13*
G01X4722495Y-3684905D03*
G01X4722495Y-3604895D03*
G01X4802505Y-3604895D03*
G01X4802505Y-3684905D03*
G54D14*
G01X8940800Y-4083202D03*
G01X8940800Y-3943198D03*
G54D15*
G01X8901836Y-3530600D03*
G01X8751164Y-3530600D03*
G01X8990736Y-3263900D03*
G01X8840064Y-3263900D03*
G01X9257436Y-3937000D03*
G01X9106764Y-3937000D03*
G54D16*
G01X8775700Y-3942092D03*
G01X8775700Y-4092764D03*
G01X4483100Y-5334864D03*
G01X4483100Y-5485536D03*
G54D17*
G01X9506356Y-3971506D03*
G01X9506356Y-3671506D03*
G01X9506356Y-3521519D03*
G54D18*
G01X9596044Y-3366503D03*
G01X9823044Y-3366503D03*
G01X9823044Y-4126497D03*
G01X9596044Y-4126497D03*
G54D19*
G01X5255060Y-4339779D03*
G01X5255061Y-4955779D03*
G54D20*
G01X8358505Y-3630295D03*
G01X8358505Y-3710305D03*
G01X8278495Y-3710305D03*
G01X8278495Y-3630295D03*
G54D21*
G01X9061704Y-3534893D03*
G01X9251696Y-3534893D03*
G01X9061704Y-3754907D03*
G01X9251696Y-3754907D03*
G01X9156700Y-3754907D03*
G54D22*
G01X8441733Y-3264238D03*
G01X8601652Y-3263552D03*
G54D23*
G01X4481819Y-5154063D03*
G01X4671811Y-5154063D03*
G01X4576815Y-4954063D03*
G54D24*
G01X9090301Y-4760900D03*
G01X9090301Y-4560900D03*
G54D25*
G01X9665299Y-4325901D03*
G01X9665299Y-4995899D03*
G54D26*
G01X7467600Y-7315200D03*
G01X7467600Y-7061200D03*
G01X7467600Y-6807200D03*
G01X7467600Y-6553200D03*
G01X7467600Y-6045200D03*
G01X7467600Y-6299200D03*
G01X7467600Y-5791200D03*
G01X7467600Y-5537200D03*
G54D27*
G01X5740400Y-7061200D03*
G01X5740400Y-6553200D03*
G01X5740400Y-7315200D03*
G01X5740400Y-6807200D03*
G01X5740400Y-6045200D03*
G01X5740400Y-6299200D03*
G01X5740400Y-5791200D03*
G01X5740400Y-5537200D03*
G54D28*
G01X8061808Y-6074207D03*
G01X8061808Y-6524193D03*
G01X8803792Y-6524193D03*
G01X8803792Y-6074207D03*
G01X8417408Y-5286807D03*
G01X8417408Y-5736793D03*
G01X9159392Y-5736793D03*
G01X9159392Y-5286807D03*
G04 Pad End*

M02*

