G04 Layer: TopLayer*
G04 EasyEDA Pro v2.2.28.1, 2024-09-30 17:42:25*
G04 Gerber Generator version 0.3*
G04 Scale: 100 percent, Rotated: No, Reflected: No*
G04 Dimensions in millimeters*
G04 Leading zeros omitted, absolute positions, 3 integers and 5 decimals*
%FSLAX35Y35*%
%MOMM*%
%AMRect*21,1,$1,$2,0,0,$3*%
%AMRoundRect*1,1,$1,$2,$3*1,1,$1,$4,$5*1,1,$1,0-$2,0-$3*1,1,$1,0-$4,0-$5*20,1,$1,$2,$3,$4,$5,0*20,1,$1,$4,$5,0-$2,0-$3,0*20,1,$1,0-$2,0-$3,0-$4,0-$5,0*20,1,$1,0-$4,0-$5,$2,$3,0*4,1,4,$2,$3,$4,$5,0-$2,0-$3,0-$4,0-$5,$2,$3,0*%
%ADD10C,0.2032*%
%ADD11C,0.254*%
%ADD12R,1.8X1.0*%
%ADD13Rect,1.5X1.0X45.0*%
%ADD14Rect,2.0X1.8X45.0*%
%ADD15R,0.5X0.5*%
%ADD16R,0.9X0.8*%
%ADD17R,0.80648X0.86401*%
%ADD18R,0.8621X0.80648*%
%ADD19R,0.86401X0.80648*%
%ADD20R,1.8X0.9*%
%ADD21R,0.93X1.1*%
%ADD22R,2.0X2.49999*%
%ADD23R,0.5X0.5*%
%ADD24R,0.6X1.0*%
%ADD25R,0.8X0.8*%
%ADD26R,0.7X1.25001*%
%ADD27RoundRect,0.03X-1.735X-0.485X-1.735X0.485*%
%ADD28RoundRect,0.045X-1.6775X-0.7275X-1.6775X0.7275*%
%ADD29RoundRect,1.778X1.016X0.0X-1.016X0.0*%
%ADD30RoundRect,1.778X-1.016X0.0X1.016X0.0*%
%ADD31R,1.81999X1.0*%
%ADD32C,0.61*%
%ADD33C,0.5*%
%ADD34C,0.508*%
%ADD35C,0.32*%
%ADD36C,0.7*%
G75*


G04 Copper Start*
G36*
G01X3437813Y-1066054D02*
G02X5060552Y-2162085I-145048J-1964049D01*
G03X5118230Y-2171417I32148J15785D01*
G02X8001531Y-2133972I1460556J-1436981D01*
G03X8053738Y-2131336I24869J25772D01*
G02X9735241Y-1008523I2795303J-2365693D01*
G02X9922788Y-3659081I-3137174J-1553894D01*
G03X9921590Y-3676851I34012J-11219D01*
G02X3336964Y-3563756I-3303842J-614670D01*
G03X3335370Y-3542997I-34964J7756D01*
G02X3437813Y-1066054I2878327J1121547D01*
G37*
%LPC*%
G36*
G01X4238582Y-6557996D02*
G03X4256511Y-6601281I61214J0D01*
G01X4619657Y-6964427D01*
G03X4662942Y-6982356I43285J43285D01*
G01X5037827Y-6982356D01*
G01X5412598Y-7357127D01*
G03X5455883Y-7375056I43285J43285D01*
G01X5529389Y-7375056D01*
G03X5575205Y-7422481I109411J59856D01*
G03X5638800Y-7439914I63595J107281D01*
G01X5842000Y-7439914D01*
G03X5966714Y-7315200I0J124714D01*
G03X5842000Y-7190486I-124714J0D01*
G01X5638800Y-7190486D01*
G03X5530919Y-7252628I0J-124714D01*
G01X5481239Y-7252628D01*
G01X5106468Y-6877858D01*
G03X5063183Y-6859928I-43285J-43285D01*
G01X4688298Y-6859928D01*
G01X4678932Y-6850563D01*
G01X5253968Y-6850563D01*
G03X5297253Y-6832633I0J61214D01*
G01X5507638Y-6622248D01*
G01X5534945Y-6622248D01*
G03X5579883Y-6663120I103855J69048D01*
G03X5638800Y-6677914I58917J109920D01*
G01X5842000Y-6677914D01*
G03X5966714Y-6553200I0J124714D01*
G03X5842000Y-6428486I-124714J0D01*
G01X5638800Y-6428486D01*
G03X5526087Y-6499820I0J-124714D01*
G01X5503471Y-6499820D01*
G01X5589524Y-6413767D01*
G03X5638800Y-6423914I49276J114567D01*
G01X5842000Y-6423914D01*
G03X5966714Y-6299200I0J124714D01*
G03X5842000Y-6174486I-124714J0D01*
G01X5638800Y-6174486D01*
G03X5545176Y-6216809I0J-124714D01*
G03X5515098Y-6315054I93624J-82391D01*
G01X5461349Y-6368802D01*
G01X5461349Y-6187579D01*
G01X5532972Y-6115955D01*
G01X5536100Y-6115955D01*
G03X5580794Y-6155603I102700J70755D01*
G03X5638800Y-6169914I58006J110403D01*
G01X5842000Y-6169914D01*
G03X5966714Y-6045200I0J124714D01*
G03X5842000Y-5920486I-124714J0D01*
G01X5638800Y-5920486D01*
G03X5525294Y-5993527I0J-124714D01*
G01X5507617Y-5993527D01*
G03X5464332Y-6011456I0J-61214D01*
G01X5356850Y-6118938D01*
G03X5338921Y-6162223I43285J-43285D01*
G01X5338921Y-6365479D01*
G01X5300500Y-6403901D01*
G03X5290168Y-6381940I-35656J-3364D01*
G01X5162889Y-6254661D01*
G03X5112241Y-6254661I-25324J-25324D01*
G01X5066260Y-6300641D01*
G03X4910711Y-6194553I-87802J38341D01*
G03X5016800Y-6350102I67747J-67747D01*
G01X4970820Y-6396082D01*
G03X4970820Y-6446731I25324J-25324D01*
G01X5084835Y-6560746D01*
G01X4857244Y-6560746D01*
G01X4793961Y-6497463D01*
G01X4802270Y-6489154D01*
G03X4802270Y-6438506I-25324J25324D01*
G01X4731559Y-6367795D01*
G03X4713113Y-6357972I-25324J-25324D01*
G03X4703290Y-6339525I-35147J-6878D01*
G01X4632579Y-6268815D01*
G03X4614117Y-6258989I-25324J-25324D01*
G03X4604291Y-6240527I-35150J-6863D01*
G01X4533581Y-6169817D01*
G03X4482932Y-6169817I-25324J-25324D01*
G01X4376866Y-6275882D01*
G03X4371696Y-6319988I25324J-25324D01*
G03X4365708Y-6346394I55226J-26406D01*
G01X4365708Y-6537339D01*
G01X4361010Y-6532641D01*
G01X4361010Y-3615485D01*
G01X4809763Y-3166732D01*
G01X8893630Y-3166732D01*
G01X8923720Y-3196822D01*
G03X8915400Y-3213166I26693J-23878D01*
G03X8880387Y-3184886I-35013J-7534D01*
G01X8799740Y-3184886D01*
G03X8768556Y-3203086I0J-35814D01*
G01X8671042Y-3203086D01*
G03X8641652Y-3187738I-29390J-20466D01*
G01X8561652Y-3187738D01*
G03X8525838Y-3223552I0J-35814D01*
G01X8525838Y-3303552D01*
G03X8561652Y-3339366I35814J0D01*
G01X8641652Y-3339366D01*
G03X8670545Y-3324714I0J35814D01*
G01X8768556Y-3324714D01*
G03X8799740Y-3342914I31183J17614D01*
G01X8880387Y-3342914D01*
G03X8915400Y-3314634I0J35814D01*
G03X8950413Y-3342914I35013J7534D01*
G01X9031060Y-3342914D01*
G03X9059275Y-3329159I0J35814D01*
G01X9101665Y-3329159D01*
G01X9193041Y-3420535D01*
G01X9193041Y-3463409D01*
G03X9185882Y-3484893I28655J-21483D01*
G01X9185882Y-3584892D01*
G03X9221696Y-3620706I35814J0D01*
G01X9281696Y-3620706D01*
G03X9315838Y-3595707I0J35814D01*
G01X9395602Y-3595707D01*
G01X9396786Y-3596513D01*
G03X9380543Y-3626507I19571J-29994D01*
G01X9380543Y-3677954D01*
G01X9364403Y-3694093D01*
G01X9315838Y-3694093D01*
G03X9281696Y-3669093I-34142J-10814D01*
G01X9221696Y-3669093D01*
G03X9204198Y-3673659I0J-35814D01*
G03X9186700Y-3669093I-17498J-31248D01*
G01X9126700Y-3669093D01*
G03X9109202Y-3673659I0J-35814D01*
G03X9091704Y-3669093I-17498J-31248D01*
G01X9031704Y-3669093D01*
G03X8997562Y-3694093I0J-35814D01*
G01X8745797Y-3694093D01*
G01X8502547Y-3450843D01*
G01X8502547Y-3333383D01*
G03X8517547Y-3304238I-20814J29145D01*
G01X8517547Y-3224238D01*
G03X8481733Y-3188424I-35814J0D01*
G01X8401733Y-3188424D01*
G03X8365919Y-3224238I0J-35814D01*
G01X8365919Y-3304238D01*
G03X8380919Y-3333383I35814J0D01*
G01X8380919Y-3476033D01*
G03X8398731Y-3519035I60814J0D01*
G01X8677605Y-3797909D01*
G03X8720607Y-3815721I43002J43002D01*
G01X8997562Y-3815721D01*
G03X9031704Y-3840721I34142J10814D01*
G01X9091704Y-3840721D01*
G03X9109202Y-3836156I0J35814D01*
G03X9126700Y-3840721I17498J31248D01*
G01X9186700Y-3840721D01*
G03X9190882Y-3840476I0J35814D01*
G01X9190882Y-3869415D01*
G03X9182100Y-3886266I26231J-24384D01*
G03X9147087Y-3857986I-35013J-7534D01*
G01X9066440Y-3857986D01*
G03X9032265Y-3883090I0J-35814D01*
G01X9015436Y-3883090D01*
G03X8985800Y-3867384I-29636J-20108D01*
G01X8895800Y-3867384D01*
G03X8866470Y-3882645I0J-35814D01*
G01X8849110Y-3882532D01*
G03X8818900Y-3865954I-30210J-19236D01*
G01X8732500Y-3865954D01*
G03X8700610Y-3885468I0J-35814D01*
G01X8382478Y-3885468D01*
G03X8339193Y-3903397I0J-61214D01*
G01X7976450Y-4266141D01*
G01X6295633Y-4266141D01*
G03X6252348Y-4284070I0J-61214D01*
G01X6162109Y-4374309D01*
G03X6144180Y-4417594I43285J-43285D01*
G01X6144180Y-5435540D01*
G01X6059955Y-5519765D01*
G01X5965489Y-5519765D01*
G03X5842000Y-5412486I-123489J-17435D01*
G01X5638800Y-5412486D01*
G03X5514086Y-5537200I0J-124714D01*
G03X5638800Y-5661914I124714J0D01*
G01X5842000Y-5661914D01*
G03X5909306Y-5642193I0J124714D01*
G01X6085311Y-5642193D01*
G03X6128596Y-5624264I0J61214D01*
G01X6248679Y-5504180D01*
G03X6266608Y-5460896I-43285J43285D01*
G01X6266608Y-4442950D01*
G01X6320989Y-4388569D01*
G01X8001805Y-4388569D01*
G03X8045090Y-4370640I0J61214D01*
G01X8372672Y-4043058D01*
G03X8373038Y-4093168I61579J-24607D01*
G01X8373038Y-4729260D01*
G01X7686893Y-5415405D01*
G03X7668964Y-5458689I43285J-43285D01*
G01X7668964Y-5462362D01*
G03X7624968Y-5425650I-99764J-74838D01*
G03X7569200Y-5412486I-55768J-111550D01*
G01X7366000Y-5412486D01*
G03X7241286Y-5537200I0J-124714D01*
G03X7366000Y-5661914I124714J0D01*
G01X7569200Y-5661914D01*
G03X7624968Y-5648750I0J124714D01*
G03X7668964Y-5612038I-55768J111550D01*
G01X7668964Y-5716362D01*
G03X7624968Y-5679650I-99764J-74838D01*
G03X7569200Y-5666486I-55768J-111550D01*
G01X7366000Y-5666486D01*
G03X7241286Y-5791200I0J-124714D01*
G03X7366000Y-5915914I124714J0D01*
G01X7569200Y-5915914D01*
G03X7668964Y-5866038I0J124714D01*
G01X7668964Y-5970362D01*
G03X7624968Y-5933650I-99764J-74838D01*
G03X7569200Y-5920486I-55768J-111550D01*
G01X7366000Y-5920486D01*
G03X7241286Y-6045200I0J-124714D01*
G03X7366000Y-6169914I124714J0D01*
G01X7569200Y-6169914D01*
G03X7668964Y-6120038I0J124714D01*
G01X7668964Y-6224362D01*
G03X7624968Y-6187650I-99764J-74838D01*
G03X7569200Y-6174486I-55768J-111550D01*
G01X7366000Y-6174486D01*
G03X7252453Y-6247619I0J-124714D01*
G01X6737909Y-6247619D01*
G01X6654916Y-6164626D01*
G01X6654916Y-4986774D01*
G01X6670193Y-4971497D01*
G01X6693951Y-4971497D01*
G03X6785768Y-4910283I25503J61214D01*
G03X6693951Y-4849069I-66314J0D01*
G01X6644838Y-4849069D01*
G03X6601553Y-4866998I0J-61214D01*
G01X6550418Y-4918133D01*
G03X6532488Y-4961418I43285J-43285D01*
G01X6532488Y-6189982D01*
G03X6550417Y-6233267I61214J0D01*
G01X6669269Y-6352118D01*
G03X6712554Y-6370047I43285J43285D01*
G01X7263364Y-6370047D01*
G03X7366000Y-6423914I102636J70847D01*
G01X7569200Y-6423914D01*
G03X7668964Y-6374038I0J124714D01*
G01X7668964Y-6478362D01*
G03X7624968Y-6441650I-99764J-74838D01*
G03X7569200Y-6428486I-55768J-111550D01*
G01X7366000Y-6428486D01*
G03X7241286Y-6553200I0J-124714D01*
G03X7366000Y-6677914I124714J0D01*
G01X7569200Y-6677914D01*
G03X7668964Y-6628038I0J124714D01*
G01X7668964Y-6721171D01*
G01X7663986Y-6726149D01*
G03X7621379Y-6693926I-94786J-81051D01*
G03X7569200Y-6682486I-52179J-113274D01*
G01X7366000Y-6682486D01*
G03X7241286Y-6807200I0J-124714D01*
G03X7366000Y-6931914I124714J0D01*
G01X7569200Y-6931914D01*
G03X7680657Y-6863155I0J124714D01*
G03X7717733Y-6845541I-6209J60898D01*
G01X7755059Y-6808215D01*
G01X7755059Y-6947595D01*
G01X7702932Y-6999723D01*
G01X7677709Y-6999723D01*
G03X7631995Y-6953449I-108509J-61477D01*
G03X7569200Y-6936486I-62795J-107751D01*
G01X7366000Y-6936486D01*
G03X7241286Y-7061200I0J-124714D01*
G03X7366000Y-7185914I124714J0D01*
G01X7569200Y-7185914D01*
G03X7678005Y-7122151I0J124714D01*
G01X7728287Y-7122151D01*
G03X7771572Y-7104222I0J61214D01*
G01X7859558Y-7016236D01*
G03X7877487Y-6972951I-43285J43285D01*
G01X7877487Y-6449626D01*
G01X7969727Y-6357386D01*
G01X8198550Y-6357386D01*
G03X8241834Y-6339457I0J61214D01*
G01X8404152Y-6177139D01*
G03X8422081Y-6133855I-43285J43285D01*
G01X8422081Y-5822607D01*
G01X8508407Y-5822607D01*
G03X8544221Y-5786793I0J35814D01*
G01X8544221Y-5686793D01*
G03X8508407Y-5650979I-35814J0D01*
G01X8326408Y-5650979D01*
G03X8290594Y-5686793I0J-35814D01*
G01X8290594Y-5786793D01*
G03X8299653Y-5810601I35814J0D01*
G01X8299653Y-6108499D01*
G01X8173194Y-6234958D01*
G01X7944371Y-6234958D01*
G03X7901086Y-6252887I0J-61214D01*
G01X7791392Y-6362582D01*
G01X7791392Y-5484045D01*
G01X8477536Y-4797900D01*
G03X8495466Y-4754616I-43285J43285D01*
G01X8495466Y-4093168D01*
G03X8462978Y-4007896I-61214J25503D01*
G01X8707333Y-4007896D01*
G03X8724966Y-4017428I25167J25481D01*
G03X8696686Y-4052441I7534J-35013D01*
G01X8696686Y-4133088D01*
G03X8732500Y-4168902I35814J0D01*
G01X8818900Y-4168902D01*
G03X8854714Y-4133088I0J35814D01*
G01X8854714Y-4052441D01*
G03X8826434Y-4017428I-35814J0D01*
G03X8846739Y-4004947I-7534J35013D01*
G01X8867451Y-4005082D01*
G03X8876243Y-4013200I28349J21885D01*
G03X8859986Y-4043202I19557J-30002D01*
G01X8859986Y-4123202D01*
G03X8895800Y-4159016I35814J0D01*
G01X8985800Y-4159016D01*
G03X9021614Y-4123202I0J35814D01*
G01X9021614Y-4043202D01*
G03X9005357Y-4013200I-35814J0D01*
G03X9013808Y-4005518I-19557J30002D01*
G01X9041108Y-4005518D01*
G03X9066440Y-4016014I25331J25317D01*
G01X9147087Y-4016014D01*
G03X9182100Y-3987734I0J35814D01*
G03X9186622Y-3998988I35013J7534D01*
G01X9186622Y-4358989D01*
G01X9070525Y-4475086D01*
G01X8916801Y-4475086D01*
G03X8879487Y-4512400I0J-37314D01*
G01X8879487Y-4609400D01*
G03X8916801Y-4646714I37314J0D01*
G01X9263800Y-4646714D01*
G03X9301114Y-4609400I0J37314D01*
G01X9301114Y-4512400D01*
G03X9270255Y-4475649I-37314J0D01*
G01X9307509Y-4438394D01*
G03X9328250Y-4388321I-50073J50073D01*
G01X9328250Y-3998988D01*
G03X9333574Y-3980200I-30490J18788D01*
G01X9333574Y-3893800D01*
G03X9312510Y-3861164I-35814J0D01*
G01X9312510Y-3823159D01*
G03X9315838Y-3815721I-30814J18252D01*
G01X9389593Y-3815721D01*
G03X9432595Y-3797909I0J60814D01*
G01X9478184Y-3752320D01*
G01X9596356Y-3752320D01*
G03X9632170Y-3716506I0J35814D01*
G01X9632170Y-3626507D01*
G03X9615927Y-3596513I-35814J0D01*
G03X9632170Y-3566519I-19571J29994D01*
G01X9632170Y-3476520D01*
G03X9626587Y-3457317I-35814J0D01*
G01X9642544Y-3457317D01*
G03X9678358Y-3421503I0J35814D01*
G01X9678358Y-3311503D01*
G03X9642544Y-3275689I-35814J0D01*
G01X9549544Y-3275689D01*
G03X9513730Y-3311503I0J-35814D01*
G01X9513730Y-3421503D01*
G03X9519313Y-3440706I35814J0D01*
G01X9416357Y-3440706D01*
G03X9380626Y-3474079I0J-35814D01*
G01X9315838Y-3474079D01*
G03X9314669Y-3470913I-34142J-10814D01*
G01X9314669Y-3395345D01*
G03X9296857Y-3352343I-60814J0D01*
G01X9169857Y-3225343D01*
G03X9126855Y-3207531I-43002J-43002D01*
G01X9064365Y-3207531D01*
G03X9052793Y-3192234I-33305J-13169D01*
G01X9052793Y-3178111D01*
G03X9034864Y-3134826I-61214J0D01*
G01X8962271Y-3062233D01*
G03X8918986Y-3044304I-43285J-43285D01*
G01X4784407Y-3044304D01*
G03X4741122Y-3062233I0J-61214D01*
G01X4256511Y-3546844D01*
G03X4238582Y-3590129I43285J-43285D01*
G01X4238582Y-6557996D01*
G37*
G36*
G01X4525356Y-6001267D02*
G03X4576004Y-6001267I25324J25324D01*
G01X4717425Y-5859846D01*
G03X4717425Y-5809197I-25324J25324D01*
G01X4590146Y-5681918D01*
G03X4539498Y-5681918I-25324J-25324D01*
G01X4398077Y-5823339D01*
G03X4398077Y-5873988I25324J-25324D01*
G01X4525356Y-6001267D01*
G37*
G36*
G01X5578217Y-5900210D02*
G03X5638800Y-5915914I60583J109010D01*
G01X5842000Y-5915914D01*
G03X5966714Y-5791200I0J124714D01*
G03X5842000Y-5666486I-124714J0D01*
G01X5638800Y-5666486D01*
G03X5527656Y-5734626I0J-124714D01*
G01X5503686Y-5734626D01*
G01X5223665Y-5454605D01*
G03X5180381Y-5436676I-43285J-43285D01*
G01X4561082Y-5436676D01*
G03X4533834Y-5410200I-34782J-8537D01*
G03X4562114Y-5375187I-7534J35013D01*
G01X4562114Y-5294540D01*
G03X4543664Y-5263216I-35814J0D01*
G01X4543664Y-5240269D01*
G03X4552633Y-5216563I-26845J23706D01*
G01X4552633Y-5091562D01*
G03X4516819Y-5055748I-35814J0D01*
G01X4446819Y-5055748D01*
G03X4411005Y-5091562I0J-35814D01*
G01X4411005Y-5216563D01*
G03X4421236Y-5241626I35814J0D01*
G01X4421236Y-5263974D01*
G03X4404086Y-5294540I18664J-30566D01*
G01X4404086Y-5375187D01*
G03X4432366Y-5410200I35814J0D01*
G03X4404086Y-5445213I7534J-35013D01*
G01X4404086Y-5525860D01*
G03X4439900Y-5561674I35814J0D01*
G01X4526300Y-5561674D01*
G03X4539623Y-5559104I0J35814D01*
G01X5155025Y-5559104D01*
G01X5435045Y-5839124D01*
G03X5478330Y-5857054I43285J43285D01*
G01X5532890Y-5857054D01*
G03X5578217Y-5900210I105910J65854D01*
G37*
G36*
G01X5006850Y-3566724D02*
G01X4905382Y-3465256D01*
G03X4862097Y-3447327I-43285J-43285D01*
G01X4648701Y-3447327D01*
G03X4605416Y-3465256I0J-61214D01*
G01X4527861Y-3542812D01*
G03X4509932Y-3586097I43285J-43285D01*
G01X4509932Y-4369866D01*
G01X4481463Y-4369866D01*
G03X4445649Y-4405680I0J-35814D01*
G01X4445649Y-4505679D01*
G03X4481463Y-4541493I35814J0D01*
G01X4661463Y-4541493D01*
G03X4697277Y-4505679I0J35814D01*
G01X4697277Y-4405680D01*
G03X4661463Y-4369866I-35814J0D01*
G01X4632360Y-4369866D01*
G01X4632360Y-3611452D01*
G01X4661681Y-3582131D01*
G01X4661681Y-3629895D01*
G03X4664976Y-3644900I35814J0D01*
G03X4661681Y-3659905I32519J-15005D01*
G01X4661681Y-3676061D01*
G03X4661015Y-3685068I60548J-9007D01*
G01X4661015Y-3735452D01*
G03X4678944Y-3778736I61214J0D01*
G01X4712651Y-3812444D01*
G03X4755936Y-3830373I43285J43285D01*
G01X5500291Y-3830373D01*
G03X5450586Y-3935400I86109J-105027D01*
G01X5450586Y-4035400D01*
G03X5586400Y-4171214I135814J0D01*
G01X7586400Y-4171214D01*
G03X7722214Y-4035400I0J135814D01*
G01X7722214Y-3935400D01*
G03X7672509Y-3830373I-135814J0D01*
G01X8219423Y-3830373D01*
G03X8262708Y-3812444I0J61214D01*
G01X8304036Y-3771115D01*
G03X8318500Y-3767824I-541J35810D01*
G03X8333505Y-3771119I15005J32519D01*
G01X8383505Y-3771119D01*
G03X8419319Y-3735305I0J35814D01*
G01X8419319Y-3685305D01*
G03X8417030Y-3672708I-35814J0D01*
G03X8419217Y-3590164I-50783J42646D01*
G03X8339276Y-3569481I-52969J-39898D01*
G01X8333505Y-3569481D01*
G03X8318500Y-3572776I0J-35814D01*
G03X8303495Y-3569481I-15005J-32519D01*
G01X8292375Y-3569481D01*
G03X8274211Y-3566724I-18164J-58457D01*
G01X5006850Y-3566724D01*
G37*
G36*
G01X4506001Y-4960591D02*
G03X4506001Y-4996646I58499J-18028D01*
G01X4506001Y-5016563D01*
G03X4541815Y-5052377I35814J0D01*
G01X4611815Y-5052377D01*
G03X4647629Y-5016563I0J35814D01*
G01X4647628Y-4891505D01*
G01X4661463Y-4891505D01*
G03X4697277Y-4855691I0J35814D01*
G01X4697277Y-4755692D01*
G03X4661463Y-4719878I-35814J0D01*
G01X4481463Y-4719878D01*
G03X4445649Y-4755692I0J-35814D01*
G01X4445649Y-4855691D01*
G03X4481463Y-4891505I35814J0D01*
G01X4506001Y-4891562D01*
G01X4506001Y-4960591D01*
G37*
G36*
G01X4636811Y-5055748D02*
G03X4600997Y-5091562I0J-35814D01*
G01X4600997Y-5216563D01*
G03X4636811Y-5252377I35814J0D01*
G01X4706811Y-5252377D01*
G03X4742625Y-5216563I0J35814D01*
G01X4742625Y-5091562D01*
G03X4706811Y-5055748I-35814J0D01*
G01X4636811Y-5055748D01*
G37*
G36*
G01X4790584Y-5993610D02*
G03X4628954Y-5993610I-80815J0D01*
G03X4790584Y-5993610I80815J0D01*
G37*
G36*
G01X5113436Y-5731382D02*
G01X5042725Y-5660672D01*
G03X4992077Y-5660672I-25324J-25324D01*
G01X4886011Y-5766738D01*
G03X4886011Y-5817386I25324J-25324D01*
G01X4956721Y-5888097D01*
G03X4975139Y-5897914I25324J25324D01*
G03X4984973Y-5916421I35159J6818D01*
G01X5055684Y-5987131D01*
G03X5074175Y-5996963I25324J25324D01*
G03X5083990Y-6015365I35139J6922D01*
G01X5154700Y-6086076D01*
G03X5205349Y-6086076I25324J25324D01*
G01X5311415Y-5980010D01*
G03X5311415Y-5929361I-25324J25324D01*
G01X5240704Y-5858651D01*
G03X5222213Y-5848819I-25324J-25324D01*
G03X5212398Y-5830417I-35139J-6922D01*
G01X5141688Y-5759706D01*
G03X5123271Y-5749889I-25324J-25324D01*
G03X5113436Y-5731382I-35159J-6818D01*
G37*
G36*
G01X5420500Y-5191780D02*
G03X5435676Y-5228418I51814J0D01*
G01X5451259Y-5244000D01*
G03X5487896Y-5259176I36638J36638D01*
G01X6002903Y-5259176D01*
G03X6110604Y-5207362I41387J51814D01*
G03X6002903Y-5155548I-66314J0D01*
G01X5524128Y-5155548D01*
G01X5524128Y-4434986D01*
G03X5508952Y-4398348I-51814J0D01*
G01X5406890Y-4296287D01*
G03X5390874Y-4285391I-36638J-36638D01*
G01X5390874Y-4214779D01*
G03X5355060Y-4178965I-35814J0D01*
G01X5155061Y-4178965D01*
G03X5119247Y-4214779I0J-35814D01*
G01X5119247Y-4464779D01*
G03X5155061Y-4500593I35814J0D01*
G01X5355060Y-4500593D01*
G03X5390874Y-4464779I0J35814D01*
G01X5390874Y-4426822D01*
G01X5420500Y-4456448D01*
G01X5420500Y-5191780D01*
G37*
G36*
G01X5155061Y-4794965D02*
G03X5119247Y-4830779I0J-35814D01*
G01X5119247Y-5080779D01*
G03X5155061Y-5116593I35814J0D01*
G01X5355061Y-5116593D01*
G03X5390875Y-5080779I0J35814D01*
G01X5390875Y-4830779D01*
G03X5355061Y-4794965I-35814J0D01*
G01X5155061Y-4794965D01*
G37*
G36*
G01X5514086Y-7061200D02*
G03X5550614Y-7149386I124714J0D01*
G03X5638800Y-7185914I88186J88186D01*
G01X5842000Y-7185914D01*
G03X5966714Y-7061200I0J124714D01*
G03X5842000Y-6936486I-124714J0D01*
G01X5638800Y-6936486D01*
G03X5514086Y-7061200I0J-124714D01*
G37*
G36*
G01X6034439Y-6744032D02*
G01X5949533Y-6744032D01*
G03X5842000Y-6682486I-107533J-63168D01*
G01X5638800Y-6682486D01*
G03X5514086Y-6807200I0J-124714D01*
G03X5638800Y-6931914I124714J0D01*
G01X5842000Y-6931914D01*
G03X5951735Y-6866460I0J124714D01*
G01X6058011Y-6866460D01*
G03X6097067Y-6852382I0J61214D01*
G01X6107472Y-6843760D01*
G03X6111701Y-6839909I-39056J47136D01*
G01X6473092Y-6478519D01*
G03X6491021Y-6435234I-43285J43285D01*
G01X6491021Y-5159140D01*
G03X6483524Y-5095476I-61404J25043D01*
G01X6483524Y-5084579D01*
G03X6468348Y-5047941I-51814J0D01*
G01X6388393Y-4967986D01*
G01X6388393Y-4857477D01*
G03X6339675Y-4748358I-50625J42833D01*
G03X6284765Y-4854497I-1907J-66287D01*
G01X6284765Y-4989448D01*
G03X6299941Y-5026086I51814J0D01*
G01X6373162Y-5099306D01*
G03X6368593Y-5160051I56455J-34791D01*
G01X6368593Y-6409878D01*
G01X6034439Y-6744032D01*
G37*
G36*
G01X7144514Y-1922400D02*
G01X7144514Y-1822400D01*
G03X7008700Y-1686586I-135814J0D01*
G01X6208700Y-1686586D01*
G03X6072886Y-1822400I0J-135814D01*
G01X6072886Y-1922400D01*
G03X6208700Y-2058214I135814J0D01*
G01X7008700Y-2058214D01*
G03X7144514Y-1922400I0J135814D01*
G37*
G36*
G01X7949739Y-7109995D02*
G01X7809011Y-7250724D01*
G01X7675954Y-7250724D01*
G03X7630488Y-7206585I-106754J-64476D01*
G03X7569200Y-7190486I-61288J-108615D01*
G01X7366000Y-7190486D01*
G03X7241286Y-7315200I0J-124714D01*
G03X7366000Y-7439914I124714J0D01*
G01X7569200Y-7439914D01*
G03X7679632Y-7373152I0J124714D01*
G01X7834367Y-7373152D01*
G03X7877651Y-7355223I0J61214D01*
G01X8054238Y-7178636D01*
G03X8072167Y-7135351I-43285J43285D01*
G01X8072167Y-6610007D01*
G01X8152807Y-6610007D01*
G03X8188621Y-6574193I0J35814D01*
G01X8188621Y-6474193D01*
G03X8152807Y-6438379I-35814J0D01*
G01X7970808Y-6438379D01*
G03X7934994Y-6474193I0J-35814D01*
G01X7934994Y-6574193D01*
G03X7949739Y-6603154I35814J0D01*
G01X7949739Y-7109995D01*
G37*
G36*
G01X7970808Y-5988393D02*
G03X7934994Y-6024207I0J-35814D01*
G01X7934994Y-6124207D01*
G03X7970808Y-6160021I35814J0D01*
G01X8152807Y-6160021D01*
G03X8188621Y-6124207I0J35814D01*
G01X8188621Y-6024207D01*
G03X8152807Y-5988393I-35814J0D01*
G01X7970808Y-5988393D01*
G37*
G36*
G01X8326408Y-5200993D02*
G03X8290594Y-5236807I0J-35814D01*
G01X8290594Y-5336807D01*
G03X8326408Y-5372621I35814J0D01*
G01X8508407Y-5372621D01*
G03X8544221Y-5336807I0J35814D01*
G01X8544221Y-5236807D01*
G03X8508407Y-5200993I-35814J0D01*
G01X8326408Y-5200993D01*
G37*
G36*
G01X8791487Y-3451586D02*
G01X8710840Y-3451586D01*
G03X8675026Y-3487400I0J-35814D01*
G01X8675026Y-3573800D01*
G03X8710840Y-3609614I35814J0D01*
G01X8791487Y-3609614D01*
G03X8826500Y-3581334I0J35814D01*
G03X8861513Y-3609614I35013J7534D01*
G01X8942160Y-3609614D01*
G03X8970493Y-3595707I0J35814D01*
G01X8997562Y-3595707D01*
G03X9031704Y-3620706I34142J10814D01*
G01X9091704Y-3620706D01*
G03X9127518Y-3584892I0J35814D01*
G01X9127518Y-3484893D01*
G03X9091704Y-3449079I-35814J0D01*
G01X9031704Y-3449079D01*
G03X8997562Y-3474079I0J-35814D01*
G01X8975405Y-3474079D01*
G03X8942160Y-3451586I-33244J-13321D01*
G01X8861513Y-3451586D01*
G03X8826500Y-3479866I0J-35814D01*
G03X8791487Y-3451586I-35013J-7534D01*
G37*
G36*
G01X8712793Y-6438379D02*
G03X8676979Y-6474193I0J-35814D01*
G01X8676979Y-6574193D01*
G03X8712793Y-6610007I35814J0D01*
G01X8894792Y-6610007D01*
G03X8930606Y-6574193I0J35814D01*
G01X8930606Y-6474193D01*
G03X8894792Y-6438379I-35814J0D01*
G01X8712793Y-6438379D01*
G37*
G36*
G01X8712793Y-5988393D02*
G03X8676979Y-6024207I0J-35814D01*
G01X8676979Y-6124207D01*
G03X8712793Y-6160021I35814J0D01*
G01X8894792Y-6160021D01*
G03X8930606Y-6124207I0J35814D01*
G01X8930606Y-6024207D01*
G03X8894792Y-5988393I-35814J0D01*
G01X8712793Y-5988393D01*
G37*
G36*
G01X9301114Y-4712400D02*
G03X9263800Y-4675086I-37314J0D01*
G01X8916801Y-4675086D01*
G03X8879487Y-4712400I0J-37314D01*
G01X8879487Y-4809400D01*
G03X8916801Y-4846714I37314J0D01*
G01X9263800Y-4846714D01*
G03X9301114Y-4809400I0J37314D01*
G01X9301114Y-4712400D01*
G37*
G36*
G01X9068393Y-5650979D02*
G03X9032579Y-5686793I0J-35814D01*
G01X9032579Y-5786793D01*
G03X9068393Y-5822607I35814J0D01*
G01X9250392Y-5822607D01*
G03X9286206Y-5786793I0J35814D01*
G01X9286206Y-5686793D01*
G03X9250392Y-5650979I-35814J0D01*
G01X9068393Y-5650979D01*
G37*
G36*
G01X9068393Y-5200993D02*
G03X9032579Y-5236807I0J-35814D01*
G01X9032579Y-5336807D01*
G03X9068393Y-5372621I35814J0D01*
G01X9250392Y-5372621D01*
G03X9286206Y-5336807I0J35814D01*
G01X9286206Y-5236807D01*
G03X9250392Y-5200993I-35814J0D01*
G01X9068393Y-5200993D01*
G37*
G36*
G01X9497550Y-4215087D02*
G03X9459486Y-4253151I0J-38064D01*
G01X9459486Y-4398651D01*
G03X9497550Y-4436715I38064J0D01*
G01X9833049Y-4436715D01*
G03X9871113Y-4398651I0J38064D01*
G01X9871113Y-4253151D01*
G03X9845869Y-4217311I-38064J0D01*
G01X9869543Y-4217311D01*
G03X9905357Y-4181497I0J35814D01*
G01X9905357Y-4071497D01*
G03X9869543Y-4035683I-35814J0D01*
G01X9776544Y-4035683D01*
G03X9740730Y-4071497I0J-35814D01*
G01X9740730Y-4181497D01*
G03X9764120Y-4215087I35814J0D01*
G01X9654967Y-4215087D01*
G03X9678358Y-4181497I-12423J33590D01*
G01X9678358Y-4071497D01*
G03X9642544Y-4035683I-35814J0D01*
G01X9626603Y-4035683D01*
G03X9632170Y-4016506I-30247J19177D01*
G01X9632170Y-3926506D01*
G03X9596356Y-3890692I-35814J0D01*
G01X9416357Y-3890692D01*
G03X9380543Y-3926506I0J-35814D01*
G01X9380543Y-4016506D01*
G03X9416357Y-4052320I35814J0D01*
G01X9519297Y-4052320D01*
G03X9513730Y-4071497I30247J-19177D01*
G01X9513730Y-4181497D01*
G03X9537121Y-4215087I35814J0D01*
G01X9497550Y-4215087D01*
G37*
G36*
G01X9871113Y-4923149D02*
G03X9833049Y-4885085I-38064J0D01*
G01X9497550Y-4885085D01*
G03X9459486Y-4923149I0J-38064D01*
G01X9459486Y-5068649D01*
G03X9497550Y-5106713I38064J0D01*
G01X9833049Y-5106713D01*
G03X9871113Y-5068649I0J38064D01*
G01X9871113Y-4923149D01*
G37*
G36*
G01X9787844Y-3596500D02*
G03X9631218Y-3596500I-78313J0D01*
G03X9787844Y-3596500I78313J0D01*
G37*
G36*
G01X9787844Y-3896500D02*
G03X9631218Y-3896500I-78313J0D01*
G03X9787844Y-3896500I78313J0D01*
G37*
G36*
G01X9869543Y-3457317D02*
G03X9905357Y-3421503I0J35814D01*
G01X9905357Y-3311503D01*
G03X9869543Y-3275689I-35814J0D01*
G01X9776544Y-3275689D01*
G03X9740730Y-3311503I0J-35814D01*
G01X9740730Y-3421503D01*
G03X9776544Y-3457317I35814J0D01*
G01X9869543Y-3457317D01*
G37*
%LPD*%
G54D10*
G01X3437813Y-1066054D02*
G02X5060552Y-2162085I-145048J-1964049D01*
G03X5118230Y-2171417I32148J15785D01*
G02X8001531Y-2133972I1460556J-1436981D01*
G03X8053738Y-2131336I24869J25772D01*
G02X9735241Y-1008523I2795303J-2365693D01*
G02X9922788Y-3659081I-3137174J-1553894D01*
G03X9921590Y-3676851I34012J-11219D01*
G02X3336964Y-3563756I-3303842J-614670D01*
G03X3335370Y-3542997I-34964J7756D01*
G02X3437813Y-1066054I2878327J1121547D01*
G01X4238582Y-6557996D02*
G03X4256511Y-6601281I61214J0D01*
G01X4619657Y-6964427D01*
G03X4662942Y-6982356I43285J43285D01*
G01X5037827Y-6982356D01*
G01X5412598Y-7357127D01*
G03X5455883Y-7375056I43285J43285D01*
G01X5529389Y-7375056D01*
G03X5575205Y-7422481I109411J59856D01*
G03X5638800Y-7439914I63595J107281D01*
G01X5842000Y-7439914D01*
G03X5966714Y-7315200I0J124714D01*
G03X5842000Y-7190486I-124714J0D01*
G01X5638800Y-7190486D01*
G03X5530919Y-7252628I0J-124714D01*
G01X5481239Y-7252628D01*
G01X5106468Y-6877858D01*
G03X5063183Y-6859928I-43285J-43285D01*
G01X4688298Y-6859928D01*
G01X4678932Y-6850563D01*
G01X5253968Y-6850563D01*
G03X5297253Y-6832633I0J61214D01*
G01X5507638Y-6622248D01*
G01X5534945Y-6622248D01*
G03X5579883Y-6663120I103855J69048D01*
G03X5638800Y-6677914I58917J109920D01*
G01X5842000Y-6677914D01*
G03X5966714Y-6553200I0J124714D01*
G03X5842000Y-6428486I-124714J0D01*
G01X5638800Y-6428486D01*
G03X5526087Y-6499820I0J-124714D01*
G01X5503471Y-6499820D01*
G01X5589524Y-6413767D01*
G03X5638800Y-6423914I49276J114567D01*
G01X5842000Y-6423914D01*
G03X5966714Y-6299200I0J124714D01*
G03X5842000Y-6174486I-124714J0D01*
G01X5638800Y-6174486D01*
G03X5545176Y-6216809I0J-124714D01*
G03X5515098Y-6315054I93624J-82391D01*
G01X5461349Y-6368802D01*
G01X5461349Y-6187579D01*
G01X5532972Y-6115955D01*
G01X5536100Y-6115955D01*
G03X5580794Y-6155603I102700J70755D01*
G03X5638800Y-6169914I58006J110403D01*
G01X5842000Y-6169914D01*
G03X5966714Y-6045200I0J124714D01*
G03X5842000Y-5920486I-124714J0D01*
G01X5638800Y-5920486D01*
G03X5525294Y-5993527I0J-124714D01*
G01X5507617Y-5993527D01*
G03X5464332Y-6011456I0J-61214D01*
G01X5356850Y-6118938D01*
G03X5338921Y-6162223I43285J-43285D01*
G01X5338921Y-6365479D01*
G01X5300500Y-6403901D01*
G03X5290168Y-6381940I-35656J-3364D01*
G01X5162889Y-6254661D01*
G03X5112241Y-6254661I-25324J-25324D01*
G01X5066260Y-6300641D01*
G03X4910711Y-6194553I-87802J38341D01*
G03X5016800Y-6350102I67747J-67747D01*
G01X4970820Y-6396082D01*
G03X4970820Y-6446731I25324J-25324D01*
G01X5084835Y-6560746D01*
G01X4857244Y-6560746D01*
G01X4793961Y-6497463D01*
G01X4802270Y-6489154D01*
G03X4802270Y-6438506I-25324J25324D01*
G01X4731559Y-6367795D01*
G03X4713113Y-6357972I-25324J-25324D01*
G03X4703290Y-6339525I-35147J-6878D01*
G01X4632579Y-6268815D01*
G03X4614117Y-6258989I-25324J-25324D01*
G03X4604291Y-6240527I-35150J-6863D01*
G01X4533581Y-6169817D01*
G03X4482932Y-6169817I-25324J-25324D01*
G01X4376866Y-6275882D01*
G03X4371696Y-6319988I25324J-25324D01*
G03X4365708Y-6346394I55226J-26406D01*
G01X4365708Y-6537339D01*
G01X4361010Y-6532641D01*
G01X4361010Y-3615485D01*
G01X4809763Y-3166732D01*
G01X8893630Y-3166732D01*
G01X8923720Y-3196822D01*
G03X8915400Y-3213166I26693J-23878D01*
G03X8880387Y-3184886I-35013J-7534D01*
G01X8799740Y-3184886D01*
G03X8768556Y-3203086I0J-35814D01*
G01X8671042Y-3203086D01*
G03X8641652Y-3187738I-29390J-20466D01*
G01X8561652Y-3187738D01*
G03X8525838Y-3223552I0J-35814D01*
G01X8525838Y-3303552D01*
G03X8561652Y-3339366I35814J0D01*
G01X8641652Y-3339366D01*
G03X8670545Y-3324714I0J35814D01*
G01X8768556Y-3324714D01*
G03X8799740Y-3342914I31183J17614D01*
G01X8880387Y-3342914D01*
G03X8915400Y-3314634I0J35814D01*
G03X8950413Y-3342914I35013J7534D01*
G01X9031060Y-3342914D01*
G03X9059275Y-3329159I0J35814D01*
G01X9101665Y-3329159D01*
G01X9193041Y-3420535D01*
G01X9193041Y-3463409D01*
G03X9185882Y-3484893I28655J-21483D01*
G01X9185882Y-3584892D01*
G03X9221696Y-3620706I35814J0D01*
G01X9281696Y-3620706D01*
G03X9315838Y-3595707I0J35814D01*
G01X9395602Y-3595707D01*
G01X9396786Y-3596513D01*
G03X9380543Y-3626507I19571J-29994D01*
G01X9380543Y-3677954D01*
G01X9364403Y-3694093D01*
G01X9315838Y-3694093D01*
G03X9281696Y-3669093I-34142J-10814D01*
G01X9221696Y-3669093D01*
G03X9204198Y-3673659I0J-35814D01*
G03X9186700Y-3669093I-17498J-31248D01*
G01X9126700Y-3669093D01*
G03X9109202Y-3673659I0J-35814D01*
G03X9091704Y-3669093I-17498J-31248D01*
G01X9031704Y-3669093D01*
G03X8997562Y-3694093I0J-35814D01*
G01X8745797Y-3694093D01*
G01X8502547Y-3450843D01*
G01X8502547Y-3333383D01*
G03X8517547Y-3304238I-20814J29145D01*
G01X8517547Y-3224238D01*
G03X8481733Y-3188424I-35814J0D01*
G01X8401733Y-3188424D01*
G03X8365919Y-3224238I0J-35814D01*
G01X8365919Y-3304238D01*
G03X8380919Y-3333383I35814J0D01*
G01X8380919Y-3476033D01*
G03X8398731Y-3519035I60814J0D01*
G01X8677605Y-3797909D01*
G03X8720607Y-3815721I43002J43002D01*
G01X8997562Y-3815721D01*
G03X9031704Y-3840721I34142J10814D01*
G01X9091704Y-3840721D01*
G03X9109202Y-3836156I0J35814D01*
G03X9126700Y-3840721I17498J31248D01*
G01X9186700Y-3840721D01*
G03X9190882Y-3840476I0J35814D01*
G01X9190882Y-3869415D01*
G03X9182100Y-3886266I26231J-24384D01*
G03X9147087Y-3857986I-35013J-7534D01*
G01X9066440Y-3857986D01*
G03X9032265Y-3883090I0J-35814D01*
G01X9015436Y-3883090D01*
G03X8985800Y-3867384I-29636J-20108D01*
G01X8895800Y-3867384D01*
G03X8866470Y-3882645I0J-35814D01*
G01X8849110Y-3882532D01*
G03X8818900Y-3865954I-30210J-19236D01*
G01X8732500Y-3865954D01*
G03X8700610Y-3885468I0J-35814D01*
G01X8382478Y-3885468D01*
G03X8339193Y-3903397I0J-61214D01*
G01X7976450Y-4266141D01*
G01X6295633Y-4266141D01*
G03X6252348Y-4284070I0J-61214D01*
G01X6162109Y-4374309D01*
G03X6144180Y-4417594I43285J-43285D01*
G01X6144180Y-5435540D01*
G01X6059955Y-5519765D01*
G01X5965489Y-5519765D01*
G03X5842000Y-5412486I-123489J-17435D01*
G01X5638800Y-5412486D01*
G03X5514086Y-5537200I0J-124714D01*
G03X5638800Y-5661914I124714J0D01*
G01X5842000Y-5661914D01*
G03X5909306Y-5642193I0J124714D01*
G01X6085311Y-5642193D01*
G03X6128596Y-5624264I0J61214D01*
G01X6248679Y-5504180D01*
G03X6266608Y-5460896I-43285J43285D01*
G01X6266608Y-4442950D01*
G01X6320989Y-4388569D01*
G01X8001805Y-4388569D01*
G03X8045090Y-4370640I0J61214D01*
G01X8372672Y-4043058D01*
G03X8373038Y-4093168I61579J-24607D01*
G01X8373038Y-4729260D01*
G01X7686893Y-5415405D01*
G03X7668964Y-5458689I43285J-43285D01*
G01X7668964Y-5462362D01*
G03X7624968Y-5425650I-99764J-74838D01*
G03X7569200Y-5412486I-55768J-111550D01*
G01X7366000Y-5412486D01*
G03X7241286Y-5537200I0J-124714D01*
G03X7366000Y-5661914I124714J0D01*
G01X7569200Y-5661914D01*
G03X7624968Y-5648750I0J124714D01*
G03X7668964Y-5612038I-55768J111550D01*
G01X7668964Y-5716362D01*
G03X7624968Y-5679650I-99764J-74838D01*
G03X7569200Y-5666486I-55768J-111550D01*
G01X7366000Y-5666486D01*
G03X7241286Y-5791200I0J-124714D01*
G03X7366000Y-5915914I124714J0D01*
G01X7569200Y-5915914D01*
G03X7668964Y-5866038I0J124714D01*
G01X7668964Y-5970362D01*
G03X7624968Y-5933650I-99764J-74838D01*
G03X7569200Y-5920486I-55768J-111550D01*
G01X7366000Y-5920486D01*
G03X7241286Y-6045200I0J-124714D01*
G03X7366000Y-6169914I124714J0D01*
G01X7569200Y-6169914D01*
G03X7668964Y-6120038I0J124714D01*
G01X7668964Y-6224362D01*
G03X7624968Y-6187650I-99764J-74838D01*
G03X7569200Y-6174486I-55768J-111550D01*
G01X7366000Y-6174486D01*
G03X7252453Y-6247619I0J-124714D01*
G01X6737909Y-6247619D01*
G01X6654916Y-6164626D01*
G01X6654916Y-4986774D01*
G01X6670193Y-4971497D01*
G01X6693951Y-4971497D01*
G03X6785768Y-4910283I25503J61214D01*
G03X6693951Y-4849069I-66314J0D01*
G01X6644838Y-4849069D01*
G03X6601553Y-4866998I0J-61214D01*
G01X6550418Y-4918133D01*
G03X6532488Y-4961418I43285J-43285D01*
G01X6532488Y-6189982D01*
G03X6550417Y-6233267I61214J0D01*
G01X6669269Y-6352118D01*
G03X6712554Y-6370047I43285J43285D01*
G01X7263364Y-6370047D01*
G03X7366000Y-6423914I102636J70847D01*
G01X7569200Y-6423914D01*
G03X7668964Y-6374038I0J124714D01*
G01X7668964Y-6478362D01*
G03X7624968Y-6441650I-99764J-74838D01*
G03X7569200Y-6428486I-55768J-111550D01*
G01X7366000Y-6428486D01*
G03X7241286Y-6553200I0J-124714D01*
G03X7366000Y-6677914I124714J0D01*
G01X7569200Y-6677914D01*
G03X7668964Y-6628038I0J124714D01*
G01X7668964Y-6721171D01*
G01X7663986Y-6726149D01*
G03X7621379Y-6693926I-94786J-81051D01*
G03X7569200Y-6682486I-52179J-113274D01*
G01X7366000Y-6682486D01*
G03X7241286Y-6807200I0J-124714D01*
G03X7366000Y-6931914I124714J0D01*
G01X7569200Y-6931914D01*
G03X7680657Y-6863155I0J124714D01*
G03X7717733Y-6845541I-6209J60898D01*
G01X7755059Y-6808215D01*
G01X7755059Y-6947595D01*
G01X7702932Y-6999723D01*
G01X7677709Y-6999723D01*
G03X7631995Y-6953449I-108509J-61477D01*
G03X7569200Y-6936486I-62795J-107751D01*
G01X7366000Y-6936486D01*
G03X7241286Y-7061200I0J-124714D01*
G03X7366000Y-7185914I124714J0D01*
G01X7569200Y-7185914D01*
G03X7678005Y-7122151I0J124714D01*
G01X7728287Y-7122151D01*
G03X7771572Y-7104222I0J61214D01*
G01X7859558Y-7016236D01*
G03X7877487Y-6972951I-43285J43285D01*
G01X7877487Y-6449626D01*
G01X7969727Y-6357386D01*
G01X8198550Y-6357386D01*
G03X8241834Y-6339457I0J61214D01*
G01X8404152Y-6177139D01*
G03X8422081Y-6133855I-43285J43285D01*
G01X8422081Y-5822607D01*
G01X8508407Y-5822607D01*
G03X8544221Y-5786793I0J35814D01*
G01X8544221Y-5686793D01*
G03X8508407Y-5650979I-35814J0D01*
G01X8326408Y-5650979D01*
G03X8290594Y-5686793I0J-35814D01*
G01X8290594Y-5786793D01*
G03X8299653Y-5810601I35814J0D01*
G01X8299653Y-6108499D01*
G01X8173194Y-6234958D01*
G01X7944371Y-6234958D01*
G03X7901086Y-6252887I0J-61214D01*
G01X7791392Y-6362582D01*
G01X7791392Y-5484045D01*
G01X8477536Y-4797900D01*
G03X8495466Y-4754616I-43285J43285D01*
G01X8495466Y-4093168D01*
G03X8462978Y-4007896I-61214J25503D01*
G01X8707333Y-4007896D01*
G03X8724966Y-4017428I25167J25481D01*
G03X8696686Y-4052441I7534J-35013D01*
G01X8696686Y-4133088D01*
G03X8732500Y-4168902I35814J0D01*
G01X8818900Y-4168902D01*
G03X8854714Y-4133088I0J35814D01*
G01X8854714Y-4052441D01*
G03X8826434Y-4017428I-35814J0D01*
G03X8846739Y-4004947I-7534J35013D01*
G01X8867451Y-4005082D01*
G03X8876243Y-4013200I28349J21885D01*
G03X8859986Y-4043202I19557J-30002D01*
G01X8859986Y-4123202D01*
G03X8895800Y-4159016I35814J0D01*
G01X8985800Y-4159016D01*
G03X9021614Y-4123202I0J35814D01*
G01X9021614Y-4043202D01*
G03X9005357Y-4013200I-35814J0D01*
G03X9013808Y-4005518I-19557J30002D01*
G01X9041108Y-4005518D01*
G03X9066440Y-4016014I25331J25317D01*
G01X9147087Y-4016014D01*
G03X9182100Y-3987734I0J35814D01*
G03X9186622Y-3998988I35013J7534D01*
G01X9186622Y-4358989D01*
G01X9070525Y-4475086D01*
G01X8916801Y-4475086D01*
G03X8879487Y-4512400I0J-37314D01*
G01X8879487Y-4609400D01*
G03X8916801Y-4646714I37314J0D01*
G01X9263800Y-4646714D01*
G03X9301114Y-4609400I0J37314D01*
G01X9301114Y-4512400D01*
G03X9270255Y-4475649I-37314J0D01*
G01X9307509Y-4438394D01*
G03X9328250Y-4388321I-50073J50073D01*
G01X9328250Y-3998988D01*
G03X9333574Y-3980200I-30490J18788D01*
G01X9333574Y-3893800D01*
G03X9312510Y-3861164I-35814J0D01*
G01X9312510Y-3823159D01*
G03X9315838Y-3815721I-30814J18252D01*
G01X9389593Y-3815721D01*
G03X9432595Y-3797909I0J60814D01*
G01X9478184Y-3752320D01*
G01X9596356Y-3752320D01*
G03X9632170Y-3716506I0J35814D01*
G01X9632170Y-3626507D01*
G03X9615927Y-3596513I-35814J0D01*
G03X9632170Y-3566519I-19571J29994D01*
G01X9632170Y-3476520D01*
G03X9626587Y-3457317I-35814J0D01*
G01X9642544Y-3457317D01*
G03X9678358Y-3421503I0J35814D01*
G01X9678358Y-3311503D01*
G03X9642544Y-3275689I-35814J0D01*
G01X9549544Y-3275689D01*
G03X9513730Y-3311503I0J-35814D01*
G01X9513730Y-3421503D01*
G03X9519313Y-3440706I35814J0D01*
G01X9416357Y-3440706D01*
G03X9380626Y-3474079I0J-35814D01*
G01X9315838Y-3474079D01*
G03X9314669Y-3470913I-34142J-10814D01*
G01X9314669Y-3395345D01*
G03X9296857Y-3352343I-60814J0D01*
G01X9169857Y-3225343D01*
G03X9126855Y-3207531I-43002J-43002D01*
G01X9064365Y-3207531D01*
G03X9052793Y-3192234I-33305J-13169D01*
G01X9052793Y-3178111D01*
G03X9034864Y-3134826I-61214J0D01*
G01X8962271Y-3062233D01*
G03X8918986Y-3044304I-43285J-43285D01*
G01X4784407Y-3044304D01*
G03X4741122Y-3062233I0J-61214D01*
G01X4256511Y-3546844D01*
G03X4238582Y-3590129I43285J-43285D01*
G01X4238582Y-6557996D01*
G01X4525356Y-6001267D02*
G03X4576004Y-6001267I25324J25324D01*
G01X4717425Y-5859846D01*
G03X4717425Y-5809197I-25324J25324D01*
G01X4590146Y-5681918D01*
G03X4539498Y-5681918I-25324J-25324D01*
G01X4398077Y-5823339D01*
G03X4398077Y-5873988I25324J-25324D01*
G01X4525356Y-6001267D01*
G01X5578217Y-5900210D02*
G03X5638800Y-5915914I60583J109010D01*
G01X5842000Y-5915914D01*
G03X5966714Y-5791200I0J124714D01*
G03X5842000Y-5666486I-124714J0D01*
G01X5638800Y-5666486D01*
G03X5527656Y-5734626I0J-124714D01*
G01X5503686Y-5734626D01*
G01X5223665Y-5454605D01*
G03X5180381Y-5436676I-43285J-43285D01*
G01X4561082Y-5436676D01*
G03X4533834Y-5410200I-34782J-8537D01*
G03X4562114Y-5375187I-7534J35013D01*
G01X4562114Y-5294540D01*
G03X4543664Y-5263216I-35814J0D01*
G01X4543664Y-5240269D01*
G03X4552633Y-5216563I-26845J23706D01*
G01X4552633Y-5091562D01*
G03X4516819Y-5055748I-35814J0D01*
G01X4446819Y-5055748D01*
G03X4411005Y-5091562I0J-35814D01*
G01X4411005Y-5216563D01*
G03X4421236Y-5241626I35814J0D01*
G01X4421236Y-5263974D01*
G03X4404086Y-5294540I18664J-30566D01*
G01X4404086Y-5375187D01*
G03X4432366Y-5410200I35814J0D01*
G03X4404086Y-5445213I7534J-35013D01*
G01X4404086Y-5525860D01*
G03X4439900Y-5561674I35814J0D01*
G01X4526300Y-5561674D01*
G03X4539623Y-5559104I0J35814D01*
G01X5155025Y-5559104D01*
G01X5435045Y-5839124D01*
G03X5478330Y-5857054I43285J43285D01*
G01X5532890Y-5857054D01*
G03X5578217Y-5900210I105910J65854D01*
G01X5006850Y-3566724D02*
G01X4905382Y-3465256D01*
G03X4862097Y-3447327I-43285J-43285D01*
G01X4648701Y-3447327D01*
G03X4605416Y-3465256I0J-61214D01*
G01X4527861Y-3542812D01*
G03X4509932Y-3586097I43285J-43285D01*
G01X4509932Y-4369866D01*
G01X4481463Y-4369866D01*
G03X4445649Y-4405680I0J-35814D01*
G01X4445649Y-4505679D01*
G03X4481463Y-4541493I35814J0D01*
G01X4661463Y-4541493D01*
G03X4697277Y-4505679I0J35814D01*
G01X4697277Y-4405680D01*
G03X4661463Y-4369866I-35814J0D01*
G01X4632360Y-4369866D01*
G01X4632360Y-3611452D01*
G01X4661681Y-3582131D01*
G01X4661681Y-3629895D01*
G03X4664976Y-3644900I35814J0D01*
G03X4661681Y-3659905I32519J-15005D01*
G01X4661681Y-3676061D01*
G03X4661015Y-3685068I60548J-9007D01*
G01X4661015Y-3735452D01*
G03X4678944Y-3778736I61214J0D01*
G01X4712651Y-3812444D01*
G03X4755936Y-3830373I43285J43285D01*
G01X5500291Y-3830373D01*
G03X5450586Y-3935400I86109J-105027D01*
G01X5450586Y-4035400D01*
G03X5586400Y-4171214I135814J0D01*
G01X7586400Y-4171214D01*
G03X7722214Y-4035400I0J135814D01*
G01X7722214Y-3935400D01*
G03X7672509Y-3830373I-135814J0D01*
G01X8219423Y-3830373D01*
G03X8262708Y-3812444I0J61214D01*
G01X8304036Y-3771115D01*
G03X8318500Y-3767824I-541J35810D01*
G03X8333505Y-3771119I15005J32519D01*
G01X8383505Y-3771119D01*
G03X8419319Y-3735305I0J35814D01*
G01X8419319Y-3685305D01*
G03X8417030Y-3672708I-35814J0D01*
G03X8419217Y-3590164I-50783J42646D01*
G03X8339276Y-3569481I-52969J-39898D01*
G01X8333505Y-3569481D01*
G03X8318500Y-3572776I0J-35814D01*
G03X8303495Y-3569481I-15005J-32519D01*
G01X8292375Y-3569481D01*
G03X8274211Y-3566724I-18164J-58457D01*
G01X5006850Y-3566724D01*
G01X4506001Y-4960591D02*
G03X4506001Y-4996646I58499J-18028D01*
G01X4506001Y-5016563D01*
G03X4541815Y-5052377I35814J0D01*
G01X4611815Y-5052377D01*
G03X4647629Y-5016563I0J35814D01*
G01X4647628Y-4891505D01*
G01X4661463Y-4891505D01*
G03X4697277Y-4855691I0J35814D01*
G01X4697277Y-4755692D01*
G03X4661463Y-4719878I-35814J0D01*
G01X4481463Y-4719878D01*
G03X4445649Y-4755692I0J-35814D01*
G01X4445649Y-4855691D01*
G03X4481463Y-4891505I35814J0D01*
G01X4506001Y-4891562D01*
G01X4506001Y-4960591D01*
G01X4636811Y-5055748D02*
G03X4600997Y-5091562I0J-35814D01*
G01X4600997Y-5216563D01*
G03X4636811Y-5252377I35814J0D01*
G01X4706811Y-5252377D01*
G03X4742625Y-5216563I0J35814D01*
G01X4742625Y-5091562D01*
G03X4706811Y-5055748I-35814J0D01*
G01X4636811Y-5055748D01*
G01X4790584Y-5993610D02*
G03X4628954Y-5993610I-80815J0D01*
G03X4790584Y-5993610I80815J0D01*
G01X5113436Y-5731382D02*
G01X5042725Y-5660672D01*
G03X4992077Y-5660672I-25324J-25324D01*
G01X4886011Y-5766738D01*
G03X4886011Y-5817386I25324J-25324D01*
G01X4956721Y-5888097D01*
G03X4975139Y-5897914I25324J25324D01*
G03X4984973Y-5916421I35159J6818D01*
G01X5055684Y-5987131D01*
G03X5074175Y-5996963I25324J25324D01*
G03X5083990Y-6015365I35139J6922D01*
G01X5154700Y-6086076D01*
G03X5205349Y-6086076I25324J25324D01*
G01X5311415Y-5980010D01*
G03X5311415Y-5929361I-25324J25324D01*
G01X5240704Y-5858651D01*
G03X5222213Y-5848819I-25324J-25324D01*
G03X5212398Y-5830417I-35139J-6922D01*
G01X5141688Y-5759706D01*
G03X5123271Y-5749889I-25324J-25324D01*
G03X5113436Y-5731382I-35159J-6818D01*
G01X5420500Y-5191780D02*
G03X5435676Y-5228418I51814J0D01*
G01X5451259Y-5244000D01*
G03X5487896Y-5259176I36638J36638D01*
G01X6002903Y-5259176D01*
G03X6110604Y-5207362I41387J51814D01*
G03X6002903Y-5155548I-66314J0D01*
G01X5524128Y-5155548D01*
G01X5524128Y-4434986D01*
G03X5508952Y-4398348I-51814J0D01*
G01X5406890Y-4296287D01*
G03X5390874Y-4285391I-36638J-36638D01*
G01X5390874Y-4214779D01*
G03X5355060Y-4178965I-35814J0D01*
G01X5155061Y-4178965D01*
G03X5119247Y-4214779I0J-35814D01*
G01X5119247Y-4464779D01*
G03X5155061Y-4500593I35814J0D01*
G01X5355060Y-4500593D01*
G03X5390874Y-4464779I0J35814D01*
G01X5390874Y-4426822D01*
G01X5420500Y-4456448D01*
G01X5420500Y-5191780D01*
G01X5155061Y-4794965D02*
G03X5119247Y-4830779I0J-35814D01*
G01X5119247Y-5080779D01*
G03X5155061Y-5116593I35814J0D01*
G01X5355061Y-5116593D01*
G03X5390875Y-5080779I0J35814D01*
G01X5390875Y-4830779D01*
G03X5355061Y-4794965I-35814J0D01*
G01X5155061Y-4794965D01*
G01X5514086Y-7061200D02*
G03X5550614Y-7149386I124714J0D01*
G03X5638800Y-7185914I88186J88186D01*
G01X5842000Y-7185914D01*
G03X5966714Y-7061200I0J124714D01*
G03X5842000Y-6936486I-124714J0D01*
G01X5638800Y-6936486D01*
G03X5514086Y-7061200I0J-124714D01*
G01X6034439Y-6744032D02*
G01X5949533Y-6744032D01*
G03X5842000Y-6682486I-107533J-63168D01*
G01X5638800Y-6682486D01*
G03X5514086Y-6807200I0J-124714D01*
G03X5638800Y-6931914I124714J0D01*
G01X5842000Y-6931914D01*
G03X5951735Y-6866460I0J124714D01*
G01X6058011Y-6866460D01*
G03X6097067Y-6852382I0J61214D01*
G01X6107472Y-6843760D01*
G03X6111701Y-6839909I-39056J47136D01*
G01X6473092Y-6478519D01*
G03X6491021Y-6435234I-43285J43285D01*
G01X6491021Y-5159140D01*
G03X6483524Y-5095476I-61404J25043D01*
G01X6483524Y-5084579D01*
G03X6468348Y-5047941I-51814J0D01*
G01X6388393Y-4967986D01*
G01X6388393Y-4857477D01*
G03X6339675Y-4748358I-50625J42833D01*
G03X6284765Y-4854497I-1907J-66287D01*
G01X6284765Y-4989448D01*
G03X6299941Y-5026086I51814J0D01*
G01X6373162Y-5099306D01*
G03X6368593Y-5160051I56455J-34791D01*
G01X6368593Y-6409878D01*
G01X6034439Y-6744032D01*
G01X7144514Y-1922400D02*
G01X7144514Y-1822400D01*
G03X7008700Y-1686586I-135814J0D01*
G01X6208700Y-1686586D01*
G03X6072886Y-1822400I0J-135814D01*
G01X6072886Y-1922400D01*
G03X6208700Y-2058214I135814J0D01*
G01X7008700Y-2058214D01*
G03X7144514Y-1922400I0J135814D01*
G01X7949739Y-7109995D02*
G01X7809011Y-7250724D01*
G01X7675954Y-7250724D01*
G03X7630488Y-7206585I-106754J-64476D01*
G03X7569200Y-7190486I-61288J-108615D01*
G01X7366000Y-7190486D01*
G03X7241286Y-7315200I0J-124714D01*
G03X7366000Y-7439914I124714J0D01*
G01X7569200Y-7439914D01*
G03X7679632Y-7373152I0J124714D01*
G01X7834367Y-7373152D01*
G03X7877651Y-7355223I0J61214D01*
G01X8054238Y-7178636D01*
G03X8072167Y-7135351I-43285J43285D01*
G01X8072167Y-6610007D01*
G01X8152807Y-6610007D01*
G03X8188621Y-6574193I0J35814D01*
G01X8188621Y-6474193D01*
G03X8152807Y-6438379I-35814J0D01*
G01X7970808Y-6438379D01*
G03X7934994Y-6474193I0J-35814D01*
G01X7934994Y-6574193D01*
G03X7949739Y-6603154I35814J0D01*
G01X7949739Y-7109995D01*
G01X7970808Y-5988393D02*
G03X7934994Y-6024207I0J-35814D01*
G01X7934994Y-6124207D01*
G03X7970808Y-6160021I35814J0D01*
G01X8152807Y-6160021D01*
G03X8188621Y-6124207I0J35814D01*
G01X8188621Y-6024207D01*
G03X8152807Y-5988393I-35814J0D01*
G01X7970808Y-5988393D01*
G01X8326408Y-5200993D02*
G03X8290594Y-5236807I0J-35814D01*
G01X8290594Y-5336807D01*
G03X8326408Y-5372621I35814J0D01*
G01X8508407Y-5372621D01*
G03X8544221Y-5336807I0J35814D01*
G01X8544221Y-5236807D01*
G03X8508407Y-5200993I-35814J0D01*
G01X8326408Y-5200993D01*
G01X8791487Y-3451586D02*
G01X8710840Y-3451586D01*
G03X8675026Y-3487400I0J-35814D01*
G01X8675026Y-3573800D01*
G03X8710840Y-3609614I35814J0D01*
G01X8791487Y-3609614D01*
G03X8826500Y-3581334I0J35814D01*
G03X8861513Y-3609614I35013J7534D01*
G01X8942160Y-3609614D01*
G03X8970493Y-3595707I0J35814D01*
G01X8997562Y-3595707D01*
G03X9031704Y-3620706I34142J10814D01*
G01X9091704Y-3620706D01*
G03X9127518Y-3584892I0J35814D01*
G01X9127518Y-3484893D01*
G03X9091704Y-3449079I-35814J0D01*
G01X9031704Y-3449079D01*
G03X8997562Y-3474079I0J-35814D01*
G01X8975405Y-3474079D01*
G03X8942160Y-3451586I-33244J-13321D01*
G01X8861513Y-3451586D01*
G03X8826500Y-3479866I0J-35814D01*
G03X8791487Y-3451586I-35013J-7534D01*
G01X8712793Y-6438379D02*
G03X8676979Y-6474193I0J-35814D01*
G01X8676979Y-6574193D01*
G03X8712793Y-6610007I35814J0D01*
G01X8894792Y-6610007D01*
G03X8930606Y-6574193I0J35814D01*
G01X8930606Y-6474193D01*
G03X8894792Y-6438379I-35814J0D01*
G01X8712793Y-6438379D01*
G01X8712793Y-5988393D02*
G03X8676979Y-6024207I0J-35814D01*
G01X8676979Y-6124207D01*
G03X8712793Y-6160021I35814J0D01*
G01X8894792Y-6160021D01*
G03X8930606Y-6124207I0J35814D01*
G01X8930606Y-6024207D01*
G03X8894792Y-5988393I-35814J0D01*
G01X8712793Y-5988393D01*
G01X9301114Y-4712400D02*
G03X9263800Y-4675086I-37314J0D01*
G01X8916801Y-4675086D01*
G03X8879487Y-4712400I0J-37314D01*
G01X8879487Y-4809400D01*
G03X8916801Y-4846714I37314J0D01*
G01X9263800Y-4846714D01*
G03X9301114Y-4809400I0J37314D01*
G01X9301114Y-4712400D01*
G01X9068393Y-5650979D02*
G03X9032579Y-5686793I0J-35814D01*
G01X9032579Y-5786793D01*
G03X9068393Y-5822607I35814J0D01*
G01X9250392Y-5822607D01*
G03X9286206Y-5786793I0J35814D01*
G01X9286206Y-5686793D01*
G03X9250392Y-5650979I-35814J0D01*
G01X9068393Y-5650979D01*
G01X9068393Y-5200993D02*
G03X9032579Y-5236807I0J-35814D01*
G01X9032579Y-5336807D01*
G03X9068393Y-5372621I35814J0D01*
G01X9250392Y-5372621D01*
G03X9286206Y-5336807I0J35814D01*
G01X9286206Y-5236807D01*
G03X9250392Y-5200993I-35814J0D01*
G01X9068393Y-5200993D01*
G01X9497550Y-4215087D02*
G03X9459486Y-4253151I0J-38064D01*
G01X9459486Y-4398651D01*
G03X9497550Y-4436715I38064J0D01*
G01X9833049Y-4436715D01*
G03X9871113Y-4398651I0J38064D01*
G01X9871113Y-4253151D01*
G03X9845869Y-4217311I-38064J0D01*
G01X9869543Y-4217311D01*
G03X9905357Y-4181497I0J35814D01*
G01X9905357Y-4071497D01*
G03X9869543Y-4035683I-35814J0D01*
G01X9776544Y-4035683D01*
G03X9740730Y-4071497I0J-35814D01*
G01X9740730Y-4181497D01*
G03X9764120Y-4215087I35814J0D01*
G01X9654967Y-4215087D01*
G03X9678358Y-4181497I-12423J33590D01*
G01X9678358Y-4071497D01*
G03X9642544Y-4035683I-35814J0D01*
G01X9626603Y-4035683D01*
G03X9632170Y-4016506I-30247J19177D01*
G01X9632170Y-3926506D01*
G03X9596356Y-3890692I-35814J0D01*
G01X9416357Y-3890692D01*
G03X9380543Y-3926506I0J-35814D01*
G01X9380543Y-4016506D01*
G03X9416357Y-4052320I35814J0D01*
G01X9519297Y-4052320D01*
G03X9513730Y-4071497I30247J-19177D01*
G01X9513730Y-4181497D01*
G03X9537121Y-4215087I35814J0D01*
G01X9497550Y-4215087D01*
G01X9871113Y-4923149D02*
G03X9833049Y-4885085I-38064J0D01*
G01X9497550Y-4885085D01*
G03X9459486Y-4923149I0J-38064D01*
G01X9459486Y-5068649D01*
G03X9497550Y-5106713I38064J0D01*
G01X9833049Y-5106713D01*
G03X9871113Y-5068649I0J38064D01*
G01X9871113Y-4923149D01*
G01X9787844Y-3596500D02*
G03X9631218Y-3596500I-78313J0D01*
G03X9787844Y-3596500I78313J0D01*
G01X9787844Y-3896500D02*
G03X9631218Y-3896500I-78313J0D01*
G03X9787844Y-3896500I78313J0D01*
G01X9869543Y-3457317D02*
G03X9905357Y-3421503I0J35814D01*
G01X9905357Y-3311503D01*
G03X9869543Y-3275689I-35814J0D01*
G01X9776544Y-3275689D01*
G03X9740730Y-3311503I0J-35814D01*
G01X9740730Y-3421503D01*
G03X9776544Y-3457317I35814J0D01*
G01X9869543Y-3457317D01*
G54D11*
G01X4697749Y-3604895D02*
G01X4671841Y-3604895D01*
G01X4671811Y-5091816D02*
G01X4671811Y-5065908D01*
G01X4671811Y-5216309D02*
G01X4671811Y-5242217D01*
G01X4706557Y-5154063D02*
G01X4732465Y-5154063D01*
G01X4637065Y-5154063D02*
G01X4611157Y-5154063D01*
G01X5255061Y-4831033D02*
G01X5255061Y-4805125D01*
G01X5255061Y-5080525D02*
G01X5255061Y-5106433D01*
G01X5354807Y-4955779D02*
G01X5380715Y-4955779D01*
G01X5155315Y-4955779D02*
G01X5129407Y-4955779D01*
G01X5045832Y-5926272D02*
G01X5027513Y-5944592D01*
G01X5151539Y-5820565D02*
G01X5169859Y-5802246D01*
G01X5550154Y-7061200D02*
G01X5524246Y-7061200D01*
G01X5930646Y-7061200D02*
G01X5956554Y-7061200D01*
G01X5740400Y-6972554D02*
G01X5740400Y-6946646D01*
G01X5740400Y-7149846D02*
G01X5740400Y-7175754D01*
G01X8775700Y-4132834D02*
G01X8775700Y-4158742D01*
G01X8732754Y-4092764D02*
G01X8706846Y-4092764D01*
G01X8818646Y-4092764D02*
G01X8844554Y-4092764D01*
G01X8940800Y-4122948D02*
G01X8940800Y-4148856D01*
G01X8985546Y-4083202D02*
G01X9011454Y-4083202D01*
G01X8896054Y-4083202D02*
G01X8870146Y-4083202D01*
G01X8383251Y-3710305D02*
G01X8409159Y-3710305D01*
G01X8358505Y-3735051D02*
G01X8358505Y-3760959D01*
G01X9090301Y-4810646D02*
G01X9090301Y-4836554D01*
G01X9090301Y-4711154D02*
G01X9090301Y-4685246D01*
G01X8915555Y-4760900D02*
G01X8889647Y-4760900D01*
G01X9265046Y-4760900D02*
G01X9290954Y-4760900D01*
G01X8803792Y-6024461D02*
G01X8803792Y-5998553D01*
G01X8803792Y-6123953D02*
G01X8803792Y-6149861D01*
G01X8894538Y-6074207D02*
G01X8920446Y-6074207D01*
G01X8713047Y-6074207D02*
G01X8687139Y-6074207D01*
G01X8711094Y-3530600D02*
G01X8685186Y-3530600D01*
G01X8751164Y-3487654D02*
G01X8751164Y-3461746D01*
G01X8751164Y-3573546D02*
G01X8751164Y-3599454D01*
G01X9156700Y-3705161D02*
G01X9156700Y-3679253D01*
G01X9156700Y-3804653D02*
G01X9156700Y-3830561D01*
G01X9159392Y-5237061D02*
G01X9159392Y-5211153D01*
G01X9159392Y-5336553D02*
G01X9159392Y-5362461D01*
G01X9250138Y-5286807D02*
G01X9276046Y-5286807D01*
G01X9068647Y-5286807D02*
G01X9042739Y-5286807D01*
G04 Copper End*

G04 Pad Start*
G54D12*
G01X4571463Y-4805691D03*
G01X4571463Y-4455679D03*
G54D13*
G01X4490579Y-6283529D03*
G01X4589577Y-6382527D03*
G01X4688558Y-6481508D03*
G01X5197702Y-5972363D03*
G01X5098686Y-5873419D03*
G01X4999723Y-5774384D03*
G54D14*
G01X4557751Y-5841593D03*
G01X5130494Y-6414335D03*
G54D15*
G01X4722495Y-3684905D03*
G01X4722495Y-3604895D03*
G01X4802505Y-3604895D03*
G01X4802505Y-3684905D03*
G54D16*
G01X8940800Y-4083202D03*
G01X8940800Y-3943198D03*
G54D17*
G01X8901836Y-3530600D03*
G01X8751164Y-3530600D03*
G01X8990736Y-3263900D03*
G01X8840064Y-3263900D03*
G01X9257436Y-3937000D03*
G01X9106764Y-3937000D03*
G54D19*
G01X8775700Y-3942092D03*
G01X8775700Y-4092764D03*
G01X4483100Y-5334864D03*
G01X4483100Y-5485536D03*
G54D20*
G01X9506356Y-3971506D03*
G01X9506356Y-3671506D03*
G01X9506356Y-3521519D03*
G54D21*
G01X9596044Y-3366503D03*
G01X9823044Y-3366503D03*
G01X9823044Y-4126497D03*
G01X9596044Y-4126497D03*
G54D22*
G01X5255060Y-4339779D03*
G01X5255061Y-4955779D03*
G54D23*
G01X8358505Y-3630295D03*
G01X8358505Y-3710305D03*
G01X8278495Y-3710305D03*
G01X8278495Y-3630295D03*
G54D24*
G01X9061704Y-3534893D03*
G01X9251696Y-3534893D03*
G01X9061704Y-3754907D03*
G01X9251696Y-3754907D03*
G01X9156700Y-3754907D03*
G54D25*
G01X8441733Y-3264238D03*
G01X8601652Y-3263552D03*
G54D26*
G01X4481819Y-5154063D03*
G01X4671811Y-5154063D03*
G01X4576815Y-4954063D03*
G54D27*
G01X9090301Y-4760900D03*
G01X9090301Y-4560900D03*
G54D28*
G01X9665299Y-4325901D03*
G01X9665299Y-4995899D03*
G54D29*
G01X7467600Y-7315200D03*
G01X7467600Y-7061200D03*
G01X7467600Y-6807200D03*
G01X7467600Y-6553200D03*
G01X7467600Y-6045200D03*
G01X7467600Y-6299200D03*
G01X7467600Y-5791200D03*
G01X7467600Y-5537200D03*
G54D30*
G01X5740400Y-7061200D03*
G01X5740400Y-6553200D03*
G01X5740400Y-7315200D03*
G01X5740400Y-6807200D03*
G01X5740400Y-6045200D03*
G01X5740400Y-6299200D03*
G01X5740400Y-5791200D03*
G01X5740400Y-5537200D03*
G54D31*
G01X8061808Y-6074207D03*
G01X8061808Y-6524193D03*
G01X8803792Y-6524193D03*
G01X8803792Y-6074207D03*
G01X8417408Y-5286807D03*
G01X8417408Y-5736793D03*
G01X9159392Y-5736793D03*
G01X9159392Y-5286807D03*
G04 Pad End*

G04 Via Start*
G54D32*
G01X6719454Y-4910283D03*
G01X8434252Y-4067665D03*
G01X8366248Y-3630062D03*
G01X7559419Y-6563395D03*
G01X6044290Y-5207362D03*
G01X7446879Y-5524887D03*
G01X5205538Y-5963289D03*
G01X4996844Y-5765298D03*
G01X7458361Y-6051583D03*
G01X7477090Y-5800080D03*
G01X6429617Y-5134097D03*
G01X4565616Y-4462232D03*
G01X9093719Y-4771620D03*
G01X5258301Y-4984661D03*
G01X4670569Y-5155303D03*
G01X5735443Y-7078809D03*
G01X5095315Y-5866779D03*
G01X9222034Y-5286851D03*
G01X8864847Y-6073466D03*
G01X7654406Y-5060683D03*
G01X6084743Y-5044926D03*
G01X8753021Y-3531041D03*
G01X9156139Y-3754897D03*
G01X8936743Y-4088450D03*
G01X6337768Y-4814644D03*
G01X5731308Y-6810977D03*
G04 Via End*

G04 Track Start*
G54D33*
G01X8995181Y-3268345D02*
G01X8990736Y-3263900D01*
G01X9253855Y-3532734D02*
G01X9253855Y-3395345D01*
G01X9251696Y-3534893D02*
G01X9253855Y-3532734D01*
G01X9061704Y-3534893D02*
G01X8906129Y-3534893D01*
G01X8840064Y-3263900D02*
G01X8602000Y-3263900D01*
G01X8601652Y-3263552D01*
G01X8441733Y-3264238D02*
G01X8441733Y-3476033D01*
G01X8720607Y-3754907D01*
G01X9061704Y-3754907D01*
G01X9506356Y-3521519D02*
G01X9492983Y-3534893D01*
G01X9251696Y-3534893D01*
G01X9506356Y-3671506D02*
G01X9472994Y-3671506D01*
G01X9389593Y-3754907D01*
G01X9251696Y-3754907D01*
G01X9251696Y-3931260D01*
G01X9257436Y-3937000D01*
G01X9126855Y-3268345D02*
G01X8995181Y-3268345D01*
G54D34*
G01X4574013Y-4818085D02*
G01X4574013Y-4969106D01*
G01X4564500Y-4978619D01*
G01X4481260Y-5167692D02*
G01X4482450Y-5168881D01*
G01X4482450Y-5344873D01*
G01X9098637Y-3938358D02*
G01X9092691Y-3944304D01*
G54D11*
G01X8932158Y-3944304D02*
G01X8928590Y-3944304D01*
G54D34*
G01X5830487Y-5580979D02*
G01X5794467Y-5544958D01*
G01X6085311Y-5580979D02*
G01X5830487Y-5580979D01*
G01X8752598Y-3946682D02*
G01X8382478Y-3946682D01*
G01X8001805Y-4327355D01*
G54D35*
G01X5231513Y-4332925D02*
G01X5370252Y-4332925D01*
G01X5472314Y-4434986D01*
G01X5472314Y-5191780D01*
G54D11*
G01X5205538Y-5960614D02*
G01X5205538Y-5947236D01*
G01X5208214Y-5963289D02*
G01X5205538Y-5965965D01*
G54D34*
G01X4692759Y-6482831D02*
G01X4831888Y-6621960D01*
G01X5169009Y-6621960D01*
G01X4500788Y-5497890D02*
G01X5180381Y-5497890D01*
G01X6058011Y-6805246D02*
G01X5791644Y-6805246D01*
G01X6068416Y-6796624D02*
G01X6058011Y-6805246D01*
G54D33*
G01X9253855Y-3395345D02*
G01X9126855Y-3268345D01*
G54D34*
G01X8775616Y-3943266D02*
G01X8774031Y-3941681D01*
G01X9092691Y-3944304D02*
G01X8934168Y-3944304D01*
G01X8932158Y-3944304D01*
G01X8934161Y-3944304D02*
G01X8775616Y-3943266D01*
G54D36*
G01X9257436Y-3937000D02*
G01X9257436Y-4388321D01*
G01X9090301Y-4555457D01*
G01X9090301Y-4560900D01*
G54D34*
G01X8219423Y-3769159D02*
G01X8278252Y-3710329D01*
G01X4722229Y-3685068D02*
G01X4722229Y-3735452D01*
G01X4755936Y-3769159D01*
G01X8219423Y-3769159D01*
G01X4801670Y-3684359D02*
G01X4901029Y-3684359D01*
G01X8277281Y-3631008D02*
G01X8274211Y-3627938D01*
G01X5002635Y-3627938D01*
G01X4901029Y-3684359D02*
G01X4957186Y-3628202D01*
G01X5002635Y-3628202D01*
G01X5002635Y-3627938D01*
G01X4981494Y-3627938D01*
G01X4862097Y-3508541D01*
G01X4648701Y-3508541D01*
G01X4571146Y-3586097D01*
G01X4571146Y-4437303D01*
G01X4588735Y-4454892D01*
G01X7531136Y-7311938D02*
G01X7516867Y-7326208D01*
G01X7834367Y-7311938D02*
G01X7531136Y-7311938D01*
G01X8010953Y-7135351D02*
G01X7834367Y-7311938D01*
G01X8017090Y-6518401D02*
G01X8010953Y-6524538D01*
G01X8010953Y-7135351D01*
G01X7816273Y-6972951D02*
G01X7728287Y-7060937D01*
G01X7554185Y-7060937D01*
G01X7554185Y-7075207D01*
G01X7816273Y-6424270D02*
G01X7816273Y-6972951D01*
G01X8360867Y-5722710D02*
G01X8360867Y-6133855D01*
G01X8198550Y-6296172D01*
G01X7944371Y-6296172D01*
G01X7816273Y-6424270D01*
G01X7474249Y-6802903D02*
G01X7474895Y-6802257D01*
G01X7674448Y-6802257D01*
G01X8434252Y-4754616D02*
G01X8434252Y-4067665D01*
G01X7674448Y-6802257D02*
G01X7730178Y-6746527D01*
G01X7730178Y-5458689D01*
G01X8434252Y-4754616D01*
G01X5507617Y-6054741D02*
G01X5647935Y-6054741D01*
G01X5169009Y-6621960D02*
G01X5400135Y-6390835D01*
G01X5400135Y-6162223D01*
G01X5507617Y-6054741D01*
G01X4569684Y-6399889D02*
G01X4520328Y-6449245D01*
G01X4520328Y-6514305D01*
G01X5611179Y-6305543D02*
G01X5732202Y-6305543D01*
G01X5757174Y-6280571D01*
G01X4520328Y-6514305D02*
G01X4712115Y-6706092D01*
G01X5210629Y-6706092D01*
G01X5611179Y-6305543D01*
G01X4494108Y-6279208D02*
G01X4426922Y-6346394D01*
G01X4426922Y-6552116D01*
G01X4664155Y-6789349D01*
G01X5253968Y-6789349D01*
G01X5482283Y-6561034D01*
G01X5578603Y-6561034D01*
G01X8991579Y-3178111D02*
G01X8991579Y-3242325D01*
G01X5678379Y-7316518D02*
G01X5675703Y-7313842D01*
G01X4299796Y-3590129D02*
G01X4784407Y-3105518D01*
G01X8918986Y-3105518D01*
G01X8991579Y-3178111D01*
G01X4299796Y-6557996D02*
G01X4299796Y-3590129D01*
G01X5675703Y-7313842D02*
G01X5455883Y-7313842D01*
G01X5063183Y-6921142D01*
G01X4662942Y-6921142D01*
G01X4299796Y-6557996D01*
G01X6429807Y-5141219D02*
G01X6429807Y-6435234D01*
G01X6068416Y-6796624D01*
G01X6593702Y-4961418D02*
G01X6644838Y-4910283D01*
G01X6719454Y-4910283D01*
G01X7356238Y-6308833D02*
G01X6712554Y-6308833D01*
G01X6593702Y-6189982D01*
G01X6593702Y-4961418D01*
G01X5180381Y-5497890D02*
G01X5478330Y-5795840D01*
G01X5654917Y-5795840D02*
G01X5664657Y-5805580D01*
G01X5478330Y-5795840D02*
G01X5633855Y-5795840D01*
G01X5654917Y-5795840D01*
G54D11*
G01X5626505Y-5803189D02*
G01X5633855Y-5795840D01*
G01X5656705Y-5772990D01*
G54D35*
G01X5472314Y-5191780D02*
G01X5487896Y-5207362D01*
G01X6044290Y-5207362D01*
G54D34*
G01X8001805Y-4327355D02*
G01X6295633Y-4327355D01*
G01X6205394Y-4417594D01*
G01X6205394Y-5460896D01*
G01X6085311Y-5580979D01*
G54D35*
G01X6336579Y-4818212D02*
G01X6336579Y-4989448D01*
G01X6431710Y-5084579D02*
G01X6431710Y-5129766D01*
G01X6336579Y-4989448D02*
G01X6431710Y-5084579D01*
G04 Track End*

M02*

