G04 Layer: BottomLayer*
G04 EasyEDA Pro v2.2.28.1, 2024-09-30 17:42:25*
G04 Gerber Generator version 0.3*
G04 Scale: 100 percent, Rotated: No, Reflected: No*
G04 Dimensions in millimeters*
G04 Leading zeros omitted, absolute positions, 3 integers and 5 decimals*
%FSLAX35Y35*%
%MOMM*%
%ADD10C,0.2032*%
%ADD11C,0.254*%
%ADD12R,0.9X0.8*%
%ADD13R,0.9X0.8*%
%ADD14R,0.9X0.8*%
%ADD15R,0.75001X1.0*%
%ADD16R,0.8685X0.80648*%
%ADD17R,0.86401X0.80648*%
%ADD18R,0.35052X2.99999*%
%ADD19C,0.61*%
%ADD20C,0.32*%
%ADD21C,0.508*%
G75*


G04 Copper Start*
G36*
G01X3437813Y-1066054D02*
G02X5060552Y-2162085I-145048J-1964049D01*
G03X5118230Y-2171417I32148J15785D01*
G02X8001531Y-2133972I1460556J-1436981D01*
G03X8053738Y-2131336I24869J25772D01*
G02X9735241Y-1008523I2795303J-2365693D01*
G02X9922788Y-3659081I-3137174J-1553894D01*
G03X9921590Y-3676851I34012J-11219D01*
G02X3336964Y-3563756I-3303842J-614670D01*
G03X3335370Y-3542997I-34964J7756D01*
G02X3437813Y-1066054I2878327J1121547D01*
G37*
%LPC*%
G36*
G01X4889368Y-6850248D02*
G03X4932653Y-6868177I43285J43285D01*
G01X5697757Y-6868177D01*
G03X5773791Y-6861896I33551J57201D01*
G03X5793594Y-6788219I-42483J50919D01*
G03X5754062Y-6748689I-58273J-18745D01*
G03X5719352Y-6745749I-22754J-62288D01*
G01X4958008Y-6745749D01*
G01X4624639Y-6412380D01*
G01X4624639Y-4492461D01*
G03X4631340Y-4453410I-59023J30229D01*
G03X4614578Y-4417508I-65725J-8822D01*
G03X4503334Y-4439462I-51153J-33624D01*
G03X4499325Y-4460469I62282J-22770D01*
G03X4502211Y-4481659I66291J-1764D01*
G01X4502211Y-6437736D01*
G03X4520140Y-6481021I61214J0D01*
G01X4889368Y-6850248D01*
G37*
G36*
G01X4790584Y-5993610D02*
G03X4628954Y-5993610I-80815J0D01*
G03X4790584Y-5993610I80815J0D01*
G37*
G36*
G01X5074267Y-6262300D02*
G03X4882649Y-6262300I-95809J0D01*
G03X5074267Y-6262300I95809J0D01*
G37*
G36*
G01X5086443Y-5603783D02*
G03X5043158Y-5621712I0J-61214D01*
G01X4961586Y-5703284D01*
G03X4951131Y-5717258I43285J-43285D01*
G03X4966010Y-5824007I45714J-48040D01*
G03X5062343Y-5775667I30834J58710D01*
G01X5111798Y-5726211D01*
G01X6156107Y-5726211D01*
G01X6273261Y-5843365D01*
G03X6316545Y-5861294I43285J43285D01*
G01X7451587Y-5861294D01*
G03X7543404Y-5800080I25503J61214D01*
G03X7451587Y-5738866I-66314J0D01*
G01X6341901Y-5738866D01*
G01X6224747Y-5621712D01*
G03X6181463Y-5603783I-43285J-43285D01*
G01X5086443Y-5603783D01*
G37*
G36*
G01X5246976Y-5857961D02*
G03X5203691Y-5875891I0J-61214D01*
G01X5175324Y-5904258D01*
G03X5162318Y-6013584I30214J-59031D01*
G03X5268443Y-5984279I43220J50295D01*
G01X5272332Y-5980389D01*
G01X6020025Y-5980389D01*
G01X6134503Y-6094868D01*
G03X6177788Y-6112797I43285J43285D01*
G01X7432858Y-6112797D01*
G03X7524675Y-6051583I25503J61214D01*
G03X7432858Y-5990369I-66314J0D01*
G01X6203143Y-5990369D01*
G01X6088665Y-5875891D01*
G03X6045381Y-5857961I-43285J-43285D01*
G01X5246976Y-5857961D01*
G37*
G36*
G01X7722214Y-4035400D02*
G01X7722214Y-3935400D01*
G03X7586400Y-3799586I-135814J0D01*
G01X5586400Y-3799586D01*
G03X5450586Y-3935400I0J-135814D01*
G01X5450586Y-4035400D01*
G03X5586400Y-4171214I135814J0D01*
G01X7586400Y-4171214D01*
G03X7722214Y-4035400I0J135814D01*
G37*
G36*
G01X6748604Y-5170724D02*
G03X6711966Y-5155548I-36638J-36638D01*
G01X6686705Y-5155548D01*
G01X6712379Y-5129874D01*
G01X6761500Y-5129874D01*
G03X6788150Y-5117986I0J35814D01*
G03X6814800Y-5129874I26650J23926D01*
G01X6901200Y-5129874D01*
G03X6937014Y-5094060I0J35814D01*
G01X6937014Y-5013413D01*
G03X6908734Y-4978400I-35814J0D01*
G03X6936061Y-4951595I-7534J35013D01*
G01X6974417Y-4951595D01*
G01X7029351Y-5006529D01*
G01X7029683Y-5007806D01*
G01X7029683Y-5242253D01*
G03X7044859Y-5278891I51814J0D01*
G01X7133153Y-5367185D01*
G03X7169791Y-5382361I36638J36638D01*
G01X7687103Y-5382361D01*
G01X7687103Y-6406582D01*
G01X7589427Y-6504259D01*
G03X7493451Y-6570161I-30007J-59136D01*
G03X7600806Y-6615209I65968J6766D01*
G01X7603566Y-6615209D01*
G03X7640204Y-6600033I0J51814D01*
G01X7775555Y-6464683D01*
G03X7790731Y-6428045I-36638J36638D01*
G01X7790731Y-5348507D01*
G03X7775555Y-5311869I-51814J0D01*
G01X7757594Y-5293909D01*
G03X7720956Y-5278733I-36638J-36638D01*
G01X7191253Y-5278733D01*
G01X7133311Y-5220791D01*
G01X7133311Y-4995962D01*
G03X7131454Y-4982215I-51814J0D01*
G03X7116296Y-4946922I-51797J-1345D01*
G01X7032517Y-4863143D01*
G03X6995879Y-4847967I-36638J-36638D01*
G01X6933826Y-4847967D01*
G03X6905819Y-4827225I-32625J-14773D01*
G01X6905819Y-4810992D01*
G03X6897062Y-4783188I-48514J0D01*
G01X6923837Y-4783188D01*
G03X6941312Y-4778635I0J35814D01*
G03X6958787Y-4783188I17475J31261D01*
G01X6993839Y-4783188D01*
G03X7011302Y-4778643I0J35814D01*
G03X7028764Y-4783188I17463J31268D01*
G01X7063816Y-4783188D01*
G03X7081291Y-4778635I0J35814D01*
G03X7098767Y-4783188I17475J31261D01*
G01X7133819Y-4783188D01*
G03X7151294Y-4778635I0J35814D01*
G03X7168769Y-4783188I17475J31261D01*
G01X7203821Y-4783188D01*
G03X7221296Y-4778635I0J35814D01*
G03X7238771Y-4783188I17475J31261D01*
G01X7253578Y-4783188D01*
G01X7197140Y-4839626D01*
G01X7183100Y-4839626D01*
G03X7147286Y-4875440I0J-35814D01*
G01X7147286Y-4956087D01*
G03X7175566Y-4991100I35814J0D01*
G03X7147286Y-5026113I7534J-35013D01*
G01X7147286Y-5106760D01*
G03X7183100Y-5142574I35814J0D01*
G01X7269500Y-5142574D01*
G03X7297951Y-5128514I0J35814D01*
G03X7321000Y-5136916I23049J27411D01*
G01X7411000Y-5136916D01*
G03X7442200Y-5118686I0J35814D01*
G03X7473400Y-5136916I31200J17584D01*
G01X7563400Y-5136916D01*
G03X7588250Y-5126892I0J35814D01*
G03X7613100Y-5136916I24850J25790D01*
G01X7703100Y-5136916D01*
G03X7738914Y-5101102I0J35814D01*
G01X7738914Y-5021102D01*
G03X7722657Y-4991100I-35814J0D01*
G03X7738914Y-4961098I-19557J30002D01*
G01X7738914Y-4881098D01*
G03X7703100Y-4845284I-35814J0D01*
G01X7613100Y-4845284D01*
G03X7588250Y-4855308I0J-35814D01*
G03X7564379Y-4845297I-24850J-25790D01*
G03X7554438Y-4831354I-46579J-22695D01*
G01X7520859Y-4797775D01*
G01X7520859Y-4783442D01*
G01X7553833Y-4783442D01*
G03X7571308Y-4778889I0J35814D01*
G03X7588783Y-4783442I17475J31261D01*
G01X7623835Y-4783442D01*
G03X7659649Y-4747628I0J35814D01*
G01X7659649Y-4447629D01*
G03X7623835Y-4411815I-35814J0D01*
G01X7588783Y-4411815D01*
G03X7571308Y-4416368I0J-35814D01*
G03X7553833Y-4411815I-17475J-31261D01*
G01X7518781Y-4411815D01*
G03X7501397Y-4416317I0J-35814D01*
G03X7483831Y-4411713I-17566J-31210D01*
G01X7448779Y-4411713D01*
G03X7431440Y-4416190I0J-35814D01*
G03X7413828Y-4411561I-17612J-31185D01*
G01X7378776Y-4411561D01*
G03X7361301Y-4416114I0J-35814D01*
G03X7343826Y-4411561I-17475J-31261D01*
G01X7308774Y-4411561D01*
G03X7291299Y-4416114I0J-35814D01*
G03X7273823Y-4411561I-17475J-31261D01*
G01X7238771Y-4411561D01*
G03X7221296Y-4416114I0J-35814D01*
G03X7203821Y-4411561I-17475J-31261D01*
G01X7168769Y-4411561D01*
G03X7151294Y-4416114I0J-35814D01*
G03X7133819Y-4411561I-17475J-31261D01*
G01X7098767Y-4411561D01*
G03X7081291Y-4416114I0J-35814D01*
G03X7063816Y-4411561I-17475J-31261D01*
G01X7028764Y-4411561D01*
G03X7011302Y-4416107I0J-35814D01*
G03X6993839Y-4411561I-17462J-31268D01*
G01X6958787Y-4411561D01*
G03X6941312Y-4416114I0J-35814D01*
G03X6923837Y-4411561I-17475J-31261D01*
G01X6888785Y-4411561D01*
G03X6871310Y-4416114I0J-35814D01*
G03X6853834Y-4411561I-17475J-31261D01*
G01X6818782Y-4411561D01*
G03X6801307Y-4416114I0J-35814D01*
G03X6783832Y-4411561I-17475J-31261D01*
G01X6748780Y-4411561D01*
G03X6731305Y-4416114I0J-35814D01*
G03X6713830Y-4411561I-17475J-31261D01*
G01X6678778Y-4411561D01*
G03X6661302Y-4416114I0J-35814D01*
G03X6643827Y-4411561I-17475J-31261D01*
G01X6608775Y-4411561D01*
G03X6591300Y-4416114I0J-35814D01*
G03X6573825Y-4411561I-17475J-31261D01*
G01X6538773Y-4411561D01*
G03X6521298Y-4416114I0J-35814D01*
G03X6503822Y-4411561I-17475J-31261D01*
G01X6468770Y-4411561D01*
G03X6451295Y-4416114I0J-35814D01*
G03X6433820Y-4411561I-17475J-31261D01*
G01X6398768Y-4411561D01*
G03X6381293Y-4416114I0J-35814D01*
G03X6363818Y-4411561I-17475J-31261D01*
G01X6328766Y-4411561D01*
G03X6311290Y-4416114I0J-35814D01*
G03X6293815Y-4411561I-17475J-31261D01*
G01X6258763Y-4411561D01*
G03X6241301Y-4416107I0J-35814D01*
G03X6223838Y-4411561I-17462J-31268D01*
G01X6188786Y-4411561D01*
G03X6171311Y-4416114I0J-35814D01*
G03X6153836Y-4411561I-17475J-31261D01*
G01X6118784Y-4411561D01*
G03X6101309Y-4416114I0J-35814D01*
G03X6083833Y-4411561I-17475J-31261D01*
G01X6048781Y-4411561D01*
G03X6031306Y-4416114I0J-35814D01*
G03X6013831Y-4411561I-17475J-31261D01*
G01X5978779Y-4411561D01*
G03X5961304Y-4416114I0J-35814D01*
G03X5943829Y-4411561I-17475J-31261D01*
G01X5908777Y-4411561D01*
G03X5891301Y-4416114I0J-35814D01*
G03X5873826Y-4411561I-17475J-31261D01*
G01X5838774Y-4411561D01*
G03X5821299Y-4416114I0J-35814D01*
G03X5803824Y-4411561I-17475J-31261D01*
G01X5768772Y-4411561D01*
G03X5751297Y-4416114I0J-35814D01*
G03X5733821Y-4411561I-17475J-31261D01*
G01X5698769Y-4411561D01*
G03X5681294Y-4416114I0J-35814D01*
G03X5663819Y-4411561I-17475J-31261D01*
G01X5628767Y-4411561D01*
G03X5611474Y-4416013I0J-35814D01*
G03X5593817Y-4411358I-17657J-31159D01*
G01X5558765Y-4411358D01*
G03X5522951Y-4447172I0J-35814D01*
G01X5522951Y-4747171D01*
G03X5558765Y-4782985I35814J0D01*
G01X5593559Y-4782985D01*
G01X5593559Y-4832812D01*
G01X5588453Y-4832812D01*
G03X5552639Y-4868626I0J-35814D01*
G01X5552639Y-4948626D01*
G03X5568896Y-4978629I35814J0D01*
G03X5552639Y-5008631I19557J-30002D01*
G01X5552639Y-5088631D01*
G03X5588453Y-5124445I35814J0D01*
G01X5678453Y-5124445D01*
G03X5714267Y-5088631I0J35814D01*
G01X5714267Y-5059457D01*
G01X5728602Y-5045121D01*
G01X5728602Y-5088622D01*
G03X5764416Y-5124436I35814J0D01*
G01X5854416Y-5124436D01*
G03X5889372Y-5096414I0J35814D01*
G03X5895144Y-5091436I-30867J41617D01*
G01X5903376Y-5083204D01*
G01X5903376Y-5105462D01*
G03X5918552Y-5142100I51814J0D01*
G01X5943444Y-5166992D01*
G03X5980082Y-5182168I36638J36638D01*
G01X5982948Y-5182168D01*
G03X6004514Y-5260423I61342J-25194D01*
G03X6085676Y-5259176I39776J53061D01*
G01X6690504Y-5259176D01*
G01X6992853Y-5561525D01*
G03X7029491Y-5576701I36638J36638D01*
G01X7405492Y-5576701D01*
G03X7513193Y-5524887I41387J51814D01*
G03X7405492Y-5473073I-66314J0D01*
G01X7050953Y-5473073D01*
G01X6748604Y-5170724D01*
G37*
G36*
G01X7144514Y-1922400D02*
G01X7144514Y-1822400D01*
G03X7008700Y-1686586I-135814J0D01*
G01X6208700Y-1686586D01*
G03X6072886Y-1822400I0J-135814D01*
G01X6072886Y-1922400D01*
G03X6208700Y-2058214I135814J0D01*
G01X7008700Y-2058214D01*
G03X7144514Y-1922400I0J135814D01*
G37*
G36*
G01X8373038Y-4042162D02*
G03X8434252Y-4133979I61214J-25503D01*
G03X8495466Y-4042162I0J66314D01*
G01X8495466Y-3652849D01*
G03X8477536Y-3609564I-61214J0D01*
G01X8454749Y-3586777D01*
G03X8411464Y-3568848I-43285J-43285D01*
G01X8391751Y-3568848D01*
G03X8300640Y-3620409I-25503J-61214D01*
G03X8373038Y-3696028I65608J-9653D01*
G01X8373038Y-4042162D01*
G37*
G36*
G01X9787844Y-3896500D02*
G03X9631218Y-3896500I-78313J0D01*
G03X9787844Y-3896500I78313J0D01*
G37*
G36*
G01X9787844Y-3596500D02*
G03X9631218Y-3596500I-78313J0D01*
G03X9787844Y-3596500I78313J0D01*
G37*
%LPD*%
G36*
G01X6013831Y-4783188D02*
G03X6031306Y-4778635I0J35814D01*
G03X6048781Y-4783188I17475J31261D01*
G01X6083833Y-4783188D01*
G03X6087146Y-4783035I0J35814D01*
G03X6100034Y-4804443I49525J15229D01*
G01X6123817Y-4828226D01*
G03X6128772Y-4832587I36638J36638D01*
G01X6128300Y-4832584D01*
G01X6038300Y-4832584D01*
G03X6007004Y-4850986I0J-35814D01*
G01X6007004Y-4808824D01*
G03X6000217Y-4783188I-51814J0D01*
G01X6013831Y-4783188D01*
G37*
G36*
G01X6573825Y-4783188D02*
G03X6591300Y-4778635I0J35814D01*
G03X6608775Y-4783188I17475J31261D01*
G01X6643827Y-4783188D01*
G03X6661302Y-4778635I0J35814D01*
G03X6678778Y-4783188I17475J31261D01*
G01X6693621Y-4783188D01*
G01X6680304Y-4796506D01*
G03X6666173Y-4828056I34305J-34305D01*
G03X6639286Y-4862740I8927J-34684D01*
G01X6639286Y-4943387D01*
G03X6667566Y-4978400I35814J0D01*
G03X6639286Y-5013413I7534J-35013D01*
G01X6639286Y-5056415D01*
G01X6619580Y-5076121D01*
G01X6499515Y-5076121D01*
G01X6499515Y-5071059D01*
G03X6463701Y-5035245I-35814J0D01*
G01X6388699Y-5035245D01*
G03X6352885Y-5071059I0J-35814D01*
G01X6352885Y-5071921D01*
G01X6346965Y-5071921D01*
G01X6339992Y-5064948D01*
G01X6339992Y-5009107D01*
G03X6311712Y-4974095I-35814J0D01*
G03X6337585Y-4951991I-7534J35013D01*
G01X6356389Y-4951991D01*
G03X6388699Y-4972355I32310J15450D01*
G01X6463701Y-4972355D01*
G03X6499515Y-4936541I0J35814D01*
G01X6499515Y-4882938D01*
G01X6523725Y-4858728D01*
G03X6538901Y-4822090I-36638J36638D01*
G01X6538901Y-4783188D01*
G01X6573825Y-4783188D01*
G37*
G36*
G01X6398768Y-4783188D02*
G01X6433820Y-4783188D01*
G01X6435198Y-4783162D01*
G01X6435174Y-4800727D01*
G01X6402606Y-4800727D01*
G03X6396093Y-4783088I-64837J-13917D01*
G03X6398768Y-4783188I2675J35714D01*
G37*
G54D10*
G01X3437813Y-1066054D02*
G02X5060552Y-2162085I-145048J-1964049D01*
G03X5118230Y-2171417I32148J15785D01*
G02X8001531Y-2133972I1460556J-1436981D01*
G03X8053738Y-2131336I24869J25772D01*
G02X9735241Y-1008523I2795303J-2365693D01*
G02X9922788Y-3659081I-3137174J-1553894D01*
G03X9921590Y-3676851I34012J-11219D01*
G02X3336964Y-3563756I-3303842J-614670D01*
G03X3335370Y-3542997I-34964J7756D01*
G02X3437813Y-1066054I2878327J1121547D01*
G01X4889368Y-6850248D02*
G03X4932653Y-6868177I43285J43285D01*
G01X5697757Y-6868177D01*
G03X5773791Y-6861896I33551J57201D01*
G03X5793594Y-6788219I-42483J50919D01*
G03X5754062Y-6748689I-58273J-18745D01*
G03X5719352Y-6745749I-22754J-62288D01*
G01X4958008Y-6745749D01*
G01X4624639Y-6412380D01*
G01X4624639Y-4492461D01*
G03X4631340Y-4453410I-59023J30229D01*
G03X4614578Y-4417508I-65725J-8822D01*
G03X4503334Y-4439462I-51153J-33624D01*
G03X4499325Y-4460469I62282J-22770D01*
G03X4502211Y-4481659I66291J-1764D01*
G01X4502211Y-6437736D01*
G03X4520140Y-6481021I61214J0D01*
G01X4889368Y-6850248D01*
G01X4790584Y-5993610D02*
G03X4628954Y-5993610I-80815J0D01*
G03X4790584Y-5993610I80815J0D01*
G01X5074267Y-6262300D02*
G03X4882649Y-6262300I-95809J0D01*
G03X5074267Y-6262300I95809J0D01*
G01X5086443Y-5603783D02*
G03X5043158Y-5621712I0J-61214D01*
G01X4961586Y-5703284D01*
G03X4951131Y-5717258I43285J-43285D01*
G03X4966010Y-5824007I45714J-48040D01*
G03X5062343Y-5775667I30834J58710D01*
G01X5111798Y-5726211D01*
G01X6156107Y-5726211D01*
G01X6273261Y-5843365D01*
G03X6316545Y-5861294I43285J43285D01*
G01X7451587Y-5861294D01*
G03X7543404Y-5800080I25503J61214D01*
G03X7451587Y-5738866I-66314J0D01*
G01X6341901Y-5738866D01*
G01X6224747Y-5621712D01*
G03X6181463Y-5603783I-43285J-43285D01*
G01X5086443Y-5603783D01*
G01X5246976Y-5857961D02*
G03X5203691Y-5875891I0J-61214D01*
G01X5175324Y-5904258D01*
G03X5162318Y-6013584I30214J-59031D01*
G03X5268443Y-5984279I43220J50295D01*
G01X5272332Y-5980389D01*
G01X6020025Y-5980389D01*
G01X6134503Y-6094868D01*
G03X6177788Y-6112797I43285J43285D01*
G01X7432858Y-6112797D01*
G03X7524675Y-6051583I25503J61214D01*
G03X7432858Y-5990369I-66314J0D01*
G01X6203143Y-5990369D01*
G01X6088665Y-5875891D01*
G03X6045381Y-5857961I-43285J-43285D01*
G01X5246976Y-5857961D01*
G01X7722214Y-4035400D02*
G01X7722214Y-3935400D01*
G03X7586400Y-3799586I-135814J0D01*
G01X5586400Y-3799586D01*
G03X5450586Y-3935400I0J-135814D01*
G01X5450586Y-4035400D01*
G03X5586400Y-4171214I135814J0D01*
G01X7586400Y-4171214D01*
G03X7722214Y-4035400I0J135814D01*
G01X6748604Y-5170724D02*
G03X6711966Y-5155548I-36638J-36638D01*
G01X6686705Y-5155548D01*
G01X6712379Y-5129874D01*
G01X6761500Y-5129874D01*
G03X6788150Y-5117986I0J35814D01*
G03X6814800Y-5129874I26650J23926D01*
G01X6901200Y-5129874D01*
G03X6937014Y-5094060I0J35814D01*
G01X6937014Y-5013413D01*
G03X6908734Y-4978400I-35814J0D01*
G03X6936061Y-4951595I-7534J35013D01*
G01X6974417Y-4951595D01*
G01X7029351Y-5006529D01*
G01X7029683Y-5007806D01*
G01X7029683Y-5242253D01*
G03X7044859Y-5278891I51814J0D01*
G01X7133153Y-5367185D01*
G03X7169791Y-5382361I36638J36638D01*
G01X7687103Y-5382361D01*
G01X7687103Y-6406582D01*
G01X7589427Y-6504259D01*
G03X7493451Y-6570161I-30007J-59136D01*
G03X7600806Y-6615209I65968J6766D01*
G01X7603566Y-6615209D01*
G03X7640204Y-6600033I0J51814D01*
G01X7775555Y-6464683D01*
G03X7790731Y-6428045I-36638J36638D01*
G01X7790731Y-5348507D01*
G03X7775555Y-5311869I-51814J0D01*
G01X7757594Y-5293909D01*
G03X7720956Y-5278733I-36638J-36638D01*
G01X7191253Y-5278733D01*
G01X7133311Y-5220791D01*
G01X7133311Y-4995962D01*
G03X7131454Y-4982215I-51814J0D01*
G03X7116296Y-4946922I-51797J-1345D01*
G01X7032517Y-4863143D01*
G03X6995879Y-4847967I-36638J-36638D01*
G01X6933826Y-4847967D01*
G03X6905819Y-4827225I-32625J-14773D01*
G01X6905819Y-4810992D01*
G03X6897062Y-4783188I-48514J0D01*
G01X6923837Y-4783188D01*
G03X6941312Y-4778635I0J35814D01*
G03X6958787Y-4783188I17475J31261D01*
G01X6993839Y-4783188D01*
G03X7011302Y-4778643I0J35814D01*
G03X7028764Y-4783188I17463J31268D01*
G01X7063816Y-4783188D01*
G03X7081291Y-4778635I0J35814D01*
G03X7098767Y-4783188I17475J31261D01*
G01X7133819Y-4783188D01*
G03X7151294Y-4778635I0J35814D01*
G03X7168769Y-4783188I17475J31261D01*
G01X7203821Y-4783188D01*
G03X7221296Y-4778635I0J35814D01*
G03X7238771Y-4783188I17475J31261D01*
G01X7253578Y-4783188D01*
G01X7197140Y-4839626D01*
G01X7183100Y-4839626D01*
G03X7147286Y-4875440I0J-35814D01*
G01X7147286Y-4956087D01*
G03X7175566Y-4991100I35814J0D01*
G03X7147286Y-5026113I7534J-35013D01*
G01X7147286Y-5106760D01*
G03X7183100Y-5142574I35814J0D01*
G01X7269500Y-5142574D01*
G03X7297951Y-5128514I0J35814D01*
G03X7321000Y-5136916I23049J27411D01*
G01X7411000Y-5136916D01*
G03X7442200Y-5118686I0J35814D01*
G03X7473400Y-5136916I31200J17584D01*
G01X7563400Y-5136916D01*
G03X7588250Y-5126892I0J35814D01*
G03X7613100Y-5136916I24850J25790D01*
G01X7703100Y-5136916D01*
G03X7738914Y-5101102I0J35814D01*
G01X7738914Y-5021102D01*
G03X7722657Y-4991100I-35814J0D01*
G03X7738914Y-4961098I-19557J30002D01*
G01X7738914Y-4881098D01*
G03X7703100Y-4845284I-35814J0D01*
G01X7613100Y-4845284D01*
G03X7588250Y-4855308I0J-35814D01*
G03X7564379Y-4845297I-24850J-25790D01*
G03X7554438Y-4831354I-46579J-22695D01*
G01X7520859Y-4797775D01*
G01X7520859Y-4783442D01*
G01X7553833Y-4783442D01*
G03X7571308Y-4778889I0J35814D01*
G03X7588783Y-4783442I17475J31261D01*
G01X7623835Y-4783442D01*
G03X7659649Y-4747628I0J35814D01*
G01X7659649Y-4447629D01*
G03X7623835Y-4411815I-35814J0D01*
G01X7588783Y-4411815D01*
G03X7571308Y-4416368I0J-35814D01*
G03X7553833Y-4411815I-17475J-31261D01*
G01X7518781Y-4411815D01*
G03X7501397Y-4416317I0J-35814D01*
G03X7483831Y-4411713I-17566J-31210D01*
G01X7448779Y-4411713D01*
G03X7431440Y-4416190I0J-35814D01*
G03X7413828Y-4411561I-17612J-31185D01*
G01X7378776Y-4411561D01*
G03X7361301Y-4416114I0J-35814D01*
G03X7343826Y-4411561I-17475J-31261D01*
G01X7308774Y-4411561D01*
G03X7291299Y-4416114I0J-35814D01*
G03X7273823Y-4411561I-17475J-31261D01*
G01X7238771Y-4411561D01*
G03X7221296Y-4416114I0J-35814D01*
G03X7203821Y-4411561I-17475J-31261D01*
G01X7168769Y-4411561D01*
G03X7151294Y-4416114I0J-35814D01*
G03X7133819Y-4411561I-17475J-31261D01*
G01X7098767Y-4411561D01*
G03X7081291Y-4416114I0J-35814D01*
G03X7063816Y-4411561I-17475J-31261D01*
G01X7028764Y-4411561D01*
G03X7011302Y-4416107I0J-35814D01*
G03X6993839Y-4411561I-17462J-31268D01*
G01X6958787Y-4411561D01*
G03X6941312Y-4416114I0J-35814D01*
G03X6923837Y-4411561I-17475J-31261D01*
G01X6888785Y-4411561D01*
G03X6871310Y-4416114I0J-35814D01*
G03X6853834Y-4411561I-17475J-31261D01*
G01X6818782Y-4411561D01*
G03X6801307Y-4416114I0J-35814D01*
G03X6783832Y-4411561I-17475J-31261D01*
G01X6748780Y-4411561D01*
G03X6731305Y-4416114I0J-35814D01*
G03X6713830Y-4411561I-17475J-31261D01*
G01X6678778Y-4411561D01*
G03X6661302Y-4416114I0J-35814D01*
G03X6643827Y-4411561I-17475J-31261D01*
G01X6608775Y-4411561D01*
G03X6591300Y-4416114I0J-35814D01*
G03X6573825Y-4411561I-17475J-31261D01*
G01X6538773Y-4411561D01*
G03X6521298Y-4416114I0J-35814D01*
G03X6503822Y-4411561I-17475J-31261D01*
G01X6468770Y-4411561D01*
G03X6451295Y-4416114I0J-35814D01*
G03X6433820Y-4411561I-17475J-31261D01*
G01X6398768Y-4411561D01*
G03X6381293Y-4416114I0J-35814D01*
G03X6363818Y-4411561I-17475J-31261D01*
G01X6328766Y-4411561D01*
G03X6311290Y-4416114I0J-35814D01*
G03X6293815Y-4411561I-17475J-31261D01*
G01X6258763Y-4411561D01*
G03X6241301Y-4416107I0J-35814D01*
G03X6223838Y-4411561I-17462J-31268D01*
G01X6188786Y-4411561D01*
G03X6171311Y-4416114I0J-35814D01*
G03X6153836Y-4411561I-17475J-31261D01*
G01X6118784Y-4411561D01*
G03X6101309Y-4416114I0J-35814D01*
G03X6083833Y-4411561I-17475J-31261D01*
G01X6048781Y-4411561D01*
G03X6031306Y-4416114I0J-35814D01*
G03X6013831Y-4411561I-17475J-31261D01*
G01X5978779Y-4411561D01*
G03X5961304Y-4416114I0J-35814D01*
G03X5943829Y-4411561I-17475J-31261D01*
G01X5908777Y-4411561D01*
G03X5891301Y-4416114I0J-35814D01*
G03X5873826Y-4411561I-17475J-31261D01*
G01X5838774Y-4411561D01*
G03X5821299Y-4416114I0J-35814D01*
G03X5803824Y-4411561I-17475J-31261D01*
G01X5768772Y-4411561D01*
G03X5751297Y-4416114I0J-35814D01*
G03X5733821Y-4411561I-17475J-31261D01*
G01X5698769Y-4411561D01*
G03X5681294Y-4416114I0J-35814D01*
G03X5663819Y-4411561I-17475J-31261D01*
G01X5628767Y-4411561D01*
G03X5611474Y-4416013I0J-35814D01*
G03X5593817Y-4411358I-17657J-31159D01*
G01X5558765Y-4411358D01*
G03X5522951Y-4447172I0J-35814D01*
G01X5522951Y-4747171D01*
G03X5558765Y-4782985I35814J0D01*
G01X5593559Y-4782985D01*
G01X5593559Y-4832812D01*
G01X5588453Y-4832812D01*
G03X5552639Y-4868626I0J-35814D01*
G01X5552639Y-4948626D01*
G03X5568896Y-4978629I35814J0D01*
G03X5552639Y-5008631I19557J-30002D01*
G01X5552639Y-5088631D01*
G03X5588453Y-5124445I35814J0D01*
G01X5678453Y-5124445D01*
G03X5714267Y-5088631I0J35814D01*
G01X5714267Y-5059457D01*
G01X5728602Y-5045121D01*
G01X5728602Y-5088622D01*
G03X5764416Y-5124436I35814J0D01*
G01X5854416Y-5124436D01*
G03X5889372Y-5096414I0J35814D01*
G03X5895144Y-5091436I-30867J41617D01*
G01X5903376Y-5083204D01*
G01X5903376Y-5105462D01*
G03X5918552Y-5142100I51814J0D01*
G01X5943444Y-5166992D01*
G03X5980082Y-5182168I36638J36638D01*
G01X5982948Y-5182168D01*
G03X6004514Y-5260423I61342J-25194D01*
G03X6085676Y-5259176I39776J53061D01*
G01X6690504Y-5259176D01*
G01X6992853Y-5561525D01*
G03X7029491Y-5576701I36638J36638D01*
G01X7405492Y-5576701D01*
G03X7513193Y-5524887I41387J51814D01*
G03X7405492Y-5473073I-66314J0D01*
G01X7050953Y-5473073D01*
G01X6748604Y-5170724D01*
G01X7144514Y-1922400D02*
G01X7144514Y-1822400D01*
G03X7008700Y-1686586I-135814J0D01*
G01X6208700Y-1686586D01*
G03X6072886Y-1822400I0J-135814D01*
G01X6072886Y-1922400D01*
G03X6208700Y-2058214I135814J0D01*
G01X7008700Y-2058214D01*
G03X7144514Y-1922400I0J135814D01*
G01X8373038Y-4042162D02*
G03X8434252Y-4133979I61214J-25503D01*
G03X8495466Y-4042162I0J66314D01*
G01X8495466Y-3652849D01*
G03X8477536Y-3609564I-61214J0D01*
G01X8454749Y-3586777D01*
G03X8411464Y-3568848I-43285J-43285D01*
G01X8391751Y-3568848D01*
G03X8300640Y-3620409I-25503J-61214D01*
G03X8373038Y-3696028I65608J-9653D01*
G01X8373038Y-4042162D01*
G01X9787844Y-3896500D02*
G03X9631218Y-3896500I-78313J0D01*
G03X9787844Y-3896500I78313J0D01*
G01X9787844Y-3596500D02*
G03X9631218Y-3596500I-78313J0D01*
G03X9787844Y-3596500I78313J0D01*
G01X6013831Y-4783188D02*
G03X6031306Y-4778635I0J35814D01*
G03X6048781Y-4783188I17475J31261D01*
G01X6083833Y-4783188D01*
G03X6087146Y-4783035I0J35814D01*
G03X6100034Y-4804443I49525J15229D01*
G01X6123817Y-4828226D01*
G03X6128772Y-4832587I36638J36638D01*
G01X6128300Y-4832584D01*
G01X6038300Y-4832584D01*
G03X6007004Y-4850986I0J-35814D01*
G01X6007004Y-4808824D01*
G03X6000217Y-4783188I-51814J0D01*
G01X6013831Y-4783188D01*
G01X6573825Y-4783188D02*
G03X6591300Y-4778635I0J35814D01*
G03X6608775Y-4783188I17475J31261D01*
G01X6643827Y-4783188D01*
G03X6661302Y-4778635I0J35814D01*
G03X6678778Y-4783188I17475J31261D01*
G01X6693621Y-4783188D01*
G01X6680304Y-4796506D01*
G03X6666173Y-4828056I34305J-34305D01*
G03X6639286Y-4862740I8927J-34684D01*
G01X6639286Y-4943387D01*
G03X6667566Y-4978400I35814J0D01*
G03X6639286Y-5013413I7534J-35013D01*
G01X6639286Y-5056415D01*
G01X6619580Y-5076121D01*
G01X6499515Y-5076121D01*
G01X6499515Y-5071059D01*
G03X6463701Y-5035245I-35814J0D01*
G01X6388699Y-5035245D01*
G03X6352885Y-5071059I0J-35814D01*
G01X6352885Y-5071921D01*
G01X6346965Y-5071921D01*
G01X6339992Y-5064948D01*
G01X6339992Y-5009107D01*
G03X6311712Y-4974095I-35814J0D01*
G03X6337585Y-4951991I-7534J35013D01*
G01X6356389Y-4951991D01*
G03X6388699Y-4972355I32310J15450D01*
G01X6463701Y-4972355D01*
G03X6499515Y-4936541I0J35814D01*
G01X6499515Y-4882938D01*
G01X6523725Y-4858728D01*
G03X6538901Y-4822090I-36638J36638D01*
G01X6538901Y-4783188D01*
G01X6573825Y-4783188D01*
G01X6398768Y-4783188D02*
G01X6433820Y-4783188D01*
G01X6435198Y-4783162D01*
G01X6435174Y-4800727D01*
G01X6402606Y-4800727D01*
G03X6396093Y-4783088I-64837J-13917D01*
G03X6398768Y-4783188I2675J35714D01*
G54D11*
G01X6626301Y-4447629D02*
G01X6626301Y-4421721D01*
G01X6626301Y-4747120D02*
G01X6626301Y-4773028D01*
G01X6556299Y-4447629D02*
G01X6556299Y-4421721D01*
G01X6556299Y-4747120D02*
G01X6556299Y-4773028D01*
G01X6416294Y-4447629D02*
G01X6416294Y-4421721D01*
G01X6416294Y-4747120D02*
G01X6416294Y-4773028D01*
G01X6346292Y-4447629D02*
G01X6346292Y-4421721D01*
G01X6066307Y-4447629D02*
G01X6066307Y-4421721D01*
G01X6066307Y-4747120D02*
G01X6066307Y-4773028D01*
G01X6696304Y-4447629D02*
G01X6696304Y-4421721D01*
G01X6206312Y-4447629D02*
G01X6206312Y-4421721D01*
G01X5996305Y-4447629D02*
G01X5996305Y-4421721D01*
G01X5576291Y-4447426D02*
G01X5576291Y-4421518D01*
G01X5576291Y-4746917D02*
G01X5576291Y-4772825D01*
G01X5559019Y-4597171D02*
G01X5533111Y-4597171D01*
G01X6976313Y-4447629D02*
G01X6976313Y-4421721D01*
G01X6976313Y-4747120D02*
G01X6976313Y-4773028D01*
G01X7046290Y-4447629D02*
G01X7046290Y-4421721D01*
G01X7046290Y-4747120D02*
G01X7046290Y-4773028D01*
G01X7116293Y-4447629D02*
G01X7116293Y-4421721D01*
G01X7116293Y-4747120D02*
G01X7116293Y-4773028D01*
G01X7186295Y-4447629D02*
G01X7186295Y-4421721D01*
G01X7186295Y-4747120D02*
G01X7186295Y-4773028D01*
G01X7226300Y-5106506D02*
G01X7226300Y-5132414D01*
G01X7183354Y-5066436D02*
G01X7157446Y-5066436D01*
G01X7256297Y-4447629D02*
G01X7256297Y-4421721D01*
G01X7366000Y-5100848D02*
G01X7366000Y-5126756D01*
G01X7518400Y-5100848D02*
G01X7518400Y-5126756D01*
G01X7536307Y-4447883D02*
G01X7536307Y-4421975D01*
G01X7536307Y-4747374D02*
G01X7536307Y-4773282D01*
G01X7606309Y-4447883D02*
G01X7606309Y-4421975D01*
G01X7606309Y-4747374D02*
G01X7606309Y-4773282D01*
G01X7623581Y-4597629D02*
G01X7649489Y-4597629D01*
G01X7658100Y-5100848D02*
G01X7658100Y-5126756D01*
G01X7702846Y-5061102D02*
G01X7728754Y-5061102D01*
G04 Copper End*

G04 Pad Start*
G54D12*
G01X5633453Y-5048631D03*
G01X5633453Y-4908626D03*
G54D13*
G01X5809416Y-5048622D03*
G01X5809416Y-4908618D03*
G01X7518400Y-5061102D03*
G01X7518400Y-4921098D03*
G01X7366000Y-5061102D03*
G01X7366000Y-4921098D03*
G01X7658100Y-5061102D03*
G01X7658100Y-4921098D03*
G54D14*
G01X6083300Y-4908398D03*
G01X6083300Y-5048402D03*
G54D15*
G01X6426200Y-4886541D03*
G01X6426200Y-5121059D03*
G54D17*
G01X7226300Y-4915764D03*
G01X7226300Y-5066436D03*
G01X6718300Y-4903064D03*
G01X6718300Y-5053736D03*
G01X6858000Y-4903064D03*
G01X6858000Y-5053736D03*
G01X6260978Y-4898758D03*
G01X6260978Y-5049431D03*
G54D18*
G01X5576291Y-4597171D03*
G01X5646293Y-4597375D03*
G01X5716295Y-4597375D03*
G01X5786298Y-4597375D03*
G01X5856300Y-4597375D03*
G01X5926303Y-4597375D03*
G01X5996305Y-4597375D03*
G01X6066307Y-4597375D03*
G01X6136310Y-4597375D03*
G01X6206312Y-4597375D03*
G01X6276289Y-4597375D03*
G01X6346292Y-4597375D03*
G01X6486296Y-4597375D03*
G01X6556299Y-4597375D03*
G01X6626301Y-4597375D03*
G01X6696304Y-4597375D03*
G01X6766306Y-4597375D03*
G01X6836308Y-4597375D03*
G01X6906311Y-4597375D03*
G01X7046290Y-4597375D03*
G01X7116293Y-4597375D03*
G01X7186295Y-4597375D03*
G01X7256297Y-4597375D03*
G01X7326300Y-4597375D03*
G01X7396302Y-4597375D03*
G01X7466305Y-4597527D03*
G01X7536307Y-4597629D03*
G01X7606309Y-4597629D03*
G01X6416294Y-4597375D03*
G01X6976313Y-4597375D03*
G04 Pad End*

G04 Via Start*
G54D19*
G01X6719454Y-4910283D03*
G01X8434252Y-4067665D03*
G01X8366248Y-3630062D03*
G01X7559419Y-6563395D03*
G01X6044290Y-5207362D03*
G01X7446879Y-5524887D03*
G01X5205538Y-5963289D03*
G01X4996844Y-5765298D03*
G01X7458361Y-6051583D03*
G01X7477090Y-5800080D03*
G01X6429617Y-5134097D03*
G01X4565616Y-4462232D03*
G01X9093719Y-4771620D03*
G01X5258301Y-4984661D03*
G01X4670569Y-5155303D03*
G01X5735443Y-7078809D03*
G01X5095315Y-5866779D03*
G01X9222034Y-5286851D03*
G01X8864847Y-6073466D03*
G01X7654406Y-5060683D03*
G01X6084743Y-5044926D03*
G01X8753021Y-3531041D03*
G01X9156139Y-3754897D03*
G01X8936743Y-4088450D03*
G01X6337768Y-4814644D03*
G01X5731308Y-6810977D03*
G04 Via End*

G04 Track Start*
G54D11*
G01X7518400Y-4921098D02*
G01X7658100Y-4921098D01*
G54D20*
G01X7517800Y-4867992D02*
G01X7517800Y-4909611D01*
G01X7469045Y-4688432D02*
G01X7469045Y-4819237D01*
G01X7517800Y-4867992D01*
G01X5858506Y-5054798D02*
G01X5806184Y-5054798D01*
G01X6273834Y-4900177D02*
G01X6418909Y-4900177D01*
G01X6430801Y-4888286D01*
G01X6487087Y-4730130D02*
G01X6487087Y-4822090D01*
G01X6429215Y-4879962D01*
G01X6728878Y-5059918D02*
G01X6873160Y-5059918D01*
G01X6873953Y-5059125D01*
G54D11*
G01X6764552Y-4733301D02*
G01X6764552Y-4780867D01*
G01X6714608Y-4830811D01*
G01X6834315Y-4784038D02*
G01X6838279Y-4788002D01*
G01X6838279Y-4791965D02*
G01X6857305Y-4810992D01*
G01X6714608Y-4830811D02*
G01X6714608Y-4898812D01*
G01X6719454Y-4910283D02*
G01X6719454Y-4898812D01*
G01X6857305Y-4810992D02*
G01X6857305Y-4895817D01*
G54D21*
G01X8434252Y-4067665D02*
G01X8434252Y-3652849D01*
G01X8411464Y-3630062D01*
G01X8366248Y-3630062D01*
G54D20*
G01X7081497Y-5242253D02*
G01X7169791Y-5330547D01*
G01X7720956Y-5330547D01*
G01X7738917Y-5348507D01*
G01X7738917Y-6428045D01*
G01X7603566Y-6563395D01*
G01X7559419Y-6563395D01*
G01X6856750Y-4899781D02*
G01X6995879Y-4899781D01*
G01X7079658Y-4983560D01*
G01X7079658Y-4994123D01*
G01X7081497Y-4995962D01*
G01X7081497Y-5242253D01*
G01X7029491Y-5524887D02*
G01X7446879Y-5524887D01*
G54D11*
G01X6834315Y-4733301D02*
G01X6834315Y-4784038D01*
G54D21*
G01X6177788Y-6051583D02*
G01X7458361Y-6051583D01*
G01X5205538Y-5960614D02*
G01X5246976Y-5919175D01*
G01X6045381Y-5919175D01*
G01X6177788Y-6051583D01*
G01X5004871Y-5746569D02*
G01X5086443Y-5664997D01*
G01X6181463Y-5664997D01*
G01X6316545Y-5800080D01*
G01X7477090Y-5800080D01*
G54D20*
G01X5638515Y-5061933D02*
G01X5715809Y-4984639D01*
G01X5715809Y-4717083D01*
G01X5717237Y-4715655D01*
G01X5645373Y-4896919D02*
G01X5633759Y-4908534D01*
G01X5645373Y-4719461D02*
G01X5645373Y-4896919D01*
G01X5648016Y-4719883D02*
G01X5645795Y-4719883D01*
G01X5645373Y-4719461D01*
G01X5788479Y-4727961D02*
G01X5788479Y-4902720D01*
G54D11*
G01X5788479Y-4902720D02*
G01X5800238Y-4914480D01*
G54D20*
G01X5859242Y-4731070D02*
G01X5856071Y-4734241D01*
G01X5856071Y-4796076D01*
G01X5897158Y-4837164D01*
G01X5897158Y-5016145D01*
G01X5858506Y-5054798D01*
G54D11*
G01X6839501Y-4738030D02*
G01X6844258Y-4733274D01*
G01X6909651Y-4733274D01*
G54D20*
G01X6089220Y-4907015D02*
G01X6094770Y-4901465D01*
G01X6254114Y-4901465D01*
G01X6273042Y-5045252D02*
G01X6273042Y-5071273D01*
G01X6325503Y-5123735D01*
G01X6444278Y-5123735D01*
G01X6463936Y-5127935D02*
G01X6641042Y-5127935D01*
G01X6712230Y-5056747D01*
G01X7360360Y-4898393D02*
G01X7383413Y-4898393D01*
G01X7385332Y-4896475D01*
G01X7385332Y-4830411D01*
G01X7397223Y-4818520D01*
G01X7397223Y-4731914D01*
G01X7327064Y-4782978D02*
G01X7327064Y-4730725D01*
G01X7247392Y-4903150D02*
G01X7227142Y-4882900D01*
G01X7327064Y-4782978D01*
G01X6044290Y-5207362D02*
G01X6711966Y-5207362D01*
G01X7029491Y-5524887D01*
G01X6276198Y-4731339D02*
G01X6276198Y-4769919D01*
G01X6160455Y-4791588D02*
G01X6254529Y-4791588D01*
G01X6136672Y-4767805D02*
G01X6160455Y-4791588D01*
G01X6136672Y-4723939D02*
G01X6136672Y-4767805D01*
G01X6271177Y-4775403D02*
G01X6308040Y-4812266D01*
G01X6335390Y-4812266D01*
G01X6254529Y-4791588D02*
G01X6270946Y-4775172D01*
G01X6437936Y-5101934D02*
G01X6449858Y-5113856D01*
G01X6452007Y-5116006D02*
G01X6463936Y-5127935D01*
G01X6192301Y-5068525D02*
G01X6249772Y-5068525D01*
G01X6130472Y-5130354D02*
G01X6192301Y-5068525D01*
G01X5980082Y-5130354D02*
G01X6130472Y-5130354D01*
G01X5925137Y-4734377D02*
G01X5925137Y-4778772D01*
G01X5955190Y-4808824D01*
G01X5955190Y-5105462D01*
G01X5980082Y-5130354D01*
G54D21*
G01X5735321Y-6806963D02*
G01X4932653Y-6806963D01*
G01X4563425Y-6437736D01*
G01X4563425Y-4451131D01*
G04 Track End*

M02*

